<svg width="40" height="40" viewBox="0 0 40 40" fill="none" xmlns="http://www.w3.org/2000/svg">
<path d="M12.5 20.866C12.7761 20.3877 13.3877 20.2239 13.866 20.5L20.7942 24.5C21.2725 24.7761 21.4364 25.3877 21.1603 25.866L14.3988 37.5773C14.045 38.1899 13.1844 38.2516 12.7469 37.6956L10.5775 34.9387C10.4187 34.7369 10.1884 34.6039 9.93421 34.5673L6.46194 34.067C5.7617 33.9662 5.38478 33.1899 5.73852 32.5773L12.5 20.866Z" fill="#26C7CD"/>
<path d="M12.329 37.1629L10.5777 34.9385C10.4189 34.7369 10.1888 34.604 9.9349 34.5674L7.13281 34.1629L14.7324 21L19.9286 24L12.329 37.1629Z" fill="#9DEBFF"/>
<path d="M19.5 25.866C19.2239 25.3877 19.3877 24.7761 19.866 24.5L26.7942 20.5C27.2725 20.2239 27.8841 20.3877 28.1603 20.866L34.9217 32.5773C35.2755 33.1899 34.8986 33.9662 34.1983 34.067L30.726 34.5673C30.4719 34.6039 30.2416 34.7369 30.0828 34.9387L27.9134 37.6956C27.4759 38.2516 26.6152 38.1899 26.2615 37.5773L19.5 25.866Z" fill="#26C7CD"/>
<path d="M33.5282 34.1629L30.7261 34.5674C30.4722 34.604 30.2421 34.7369 30.0833 34.9385L28.332 37.1629L20.7324 24L25.9286 21L33.5282 34.1629Z" fill="#9DEBFF"/>
<circle cx="20" cy="16" r="14" fill="#FFCA02"/>
<circle cx="20" cy="16" r="12" fill="url(#paint0_linear_6552_28492)"/>
<circle cx="20" cy="16" r="10" fill="#FFCA02"/>
<path d="M19.0489 9.92705C19.3483 9.00574 20.6517 9.00574 20.9511 9.92705L21.7961 12.5279C21.93 12.9399 22.3139 13.2188 22.7472 13.2188H25.4818C26.4505 13.2188 26.8533 14.4585 26.0696 15.0279L23.8572 16.6353C23.5067 16.8899 23.3601 17.3413 23.494 17.7533L24.339 20.3541C24.6384 21.2754 23.5839 22.0415 22.8002 21.4721L20.5878 19.8647C20.2373 19.6101 19.7627 19.6101 19.4122 19.8647L17.1998 21.4721C16.4161 22.0415 15.3616 21.2754 15.661 20.3541L16.506 17.7533C16.6399 17.3413 16.4933 16.8899 16.1428 16.6353L13.9304 15.0279C13.1467 14.4585 13.5495 13.2188 14.5182 13.2188H17.2528C17.6861 13.2188 18.07 12.9399 18.2039 12.5279L19.0489 9.92705Z" fill="url(#paint1_linear_6552_28492)"/>
<path d="M19.0489 9.92705C19.3483 9.00574 20.6517 9.00574 20.9511 9.92705L21.7961 12.5279C21.93 12.9399 22.3139 13.2188 22.7472 13.2188H25.4818C26.4505 13.2188 26.8533 14.4585 26.0696 15.0279L23.8572 16.6353C23.5067 16.8899 23.3601 17.3413 23.494 17.7533L24.339 20.3541C24.6384 21.2754 23.5839 22.0415 22.8002 21.4721L20.5878 19.8647C20.2373 19.6101 19.7627 19.6101 19.4122 19.8647L17.1998 21.4721C16.4161 22.0415 15.3616 21.2754 15.661 20.3541L16.506 17.7533C16.6399 17.3413 16.4933 16.8899 16.1428 16.6353L13.9304 15.0279C13.1467 14.4585 13.5495 13.2188 14.5182 13.2188H17.2528C17.6861 13.2188 18.07 12.9399 18.2039 12.5279L19.0489 9.92705Z" fill="#FFE68E"/>
<path d="M20 9.23584C20.4007 9.23581 20.8015 9.46656 20.9512 9.92725L21.7959 12.5278C21.8643 12.7383 21.9988 12.9131 22.1709 13.0347L21 14.4995H26.4453C26.3886 14.6977 26.2669 14.8843 26.0693 15.0278L23.8574 16.6353C23.507 16.8899 23.3603 17.3414 23.4941 17.7534L24.3389 20.354C24.6382 21.2753 23.5835 22.0416 22.7998 21.4722L20.5879 19.8647C20.2374 19.6101 19.7626 19.6101 19.4121 19.8647L17.2002 21.4722C16.8066 21.7581 16.3449 21.7064 16.0205 21.4683L20 15.4995V9.23584Z" fill="url(#paint2_linear_6552_28492)"/>
<path d="M20 9.23584C20.4007 9.23581 20.8015 9.46656 20.9512 9.92725L21.7959 12.5278C21.8643 12.7383 21.9988 12.9131 22.1709 13.0347L21 14.4995H26.4453C26.3886 14.6977 26.2669 14.8843 26.0693 15.0278L23.8574 16.6353C23.507 16.8899 23.3603 17.3414 23.4941 17.7534L24.3389 20.354C24.6382 21.2753 23.5835 22.0416 22.7998 21.4722L20.5879 19.8647C20.2374 19.6101 19.7626 19.6101 19.4121 19.8647L17.2002 21.4722C16.8066 21.7581 16.3449 21.7064 16.0205 21.4683L20 15.4995V9.23584Z" fill="#F9A80B"/>
<path d="M19.7622 11.7318C19.8371 11.5014 20.1629 11.5014 20.2378 11.7318L21.0664 14.2822C21.0999 14.3852 21.1959 14.4549 21.3042 14.4549H23.9859C24.228 14.4549 24.3287 14.7648 24.1328 14.9072L21.9633 16.4834C21.8757 16.5471 21.839 16.6599 21.8725 16.7629L22.7012 19.3133C22.776 19.5436 22.5124 19.7352 22.3165 19.5928L20.1469 18.0166C20.0593 17.9529 19.9407 17.9529 19.8531 18.0166L17.6835 19.5928C17.4876 19.7352 17.224 19.5436 17.2988 19.3133L18.1275 16.7629C18.161 16.6599 18.1243 16.5471 18.0367 16.4834L15.8672 14.9072C15.6713 14.7648 15.772 14.4549 16.0141 14.4549H18.6958C18.8041 14.4549 18.9001 14.3852 18.9336 14.2822L19.7622 11.7318Z" fill="#FFC901"/>
<defs>
<linearGradient id="paint0_linear_6552_28492" x1="11.6" y1="7" x2="32" y2="25" gradientUnits="userSpaceOnUse">
<stop stop-color="#F8A404"/>
<stop offset="1" stop-color="#FFE68E"/>
</linearGradient>
<linearGradient id="paint1_linear_6552_28492" x1="20" y1="14.5" x2="22.5" y2="18.5" gradientUnits="userSpaceOnUse">
<stop stop-color="#FFE68E"/>
<stop offset="1" stop-color="#F9A80B"/>
</linearGradient>
<linearGradient id="paint2_linear_6552_28492" x1="20.2283" y1="14.763" x2="22.3392" y2="18.331" gradientUnits="userSpaceOnUse">
<stop stop-color="#FFE68E"/>
<stop offset="1" stop-color="#F9A80B"/>
</linearGradient>
</defs>
</svg>
