<svg width="40" height="40" viewBox="0 0 40 40" fill="none" xmlns="http://www.w3.org/2000/svg">
<g clip-path="url(#clip0_6552_28520)">
<path d="M16.1126 18.1554L8.6748 20.5649L9.63828 23.539L17.0761 21.1295L16.1126 18.1554Z" fill="#B4B4B5"/>
<path d="M33 34.0397C33 36.3625 31.4204 38.3644 28.9304 38.3699L11.6812 38.3945C9.19386 38.3973 7.04114 36.4009 7.0384 34.0781L7 8.54706C6.99726 6.22431 9.14176 4.63924 11.6318 4.6365L28.8838 4.61182C31.3711 4.60908 32.9616 6.18592 32.9644 8.50867L33.0027 34.0397H33Z" fill="#26C7CD"/>
<path d="M29.8243 36.2552L10.9105 36.2525L10.8721 9.03212L29.7832 9.00195L29.8243 36.2552Z" fill="#17B1B7"/>
<path d="M30.7369 7.6322L9.51953 7.66553L9.56269 35.1409L30.78 35.1075L30.7369 7.6322Z" fill="white"/>
<path d="M15.5697 12.7537C15.5697 13.8698 14.6675 14.7748 13.5541 14.7775C12.438 14.7775 11.533 13.8753 11.5303 12.7592C11.5303 11.6431 12.4325 10.7381 13.5459 10.7354C14.662 10.7354 15.567 11.6376 15.5697 12.751" fill="#E2E2E2"/>
<path d="M15.5775 18.0984C15.5775 19.2146 14.6753 20.1195 13.5592 20.1223C12.4431 20.1223 11.5381 19.22 11.5381 18.1039C11.5381 16.9878 12.4403 16.0828 13.5564 16.0801C14.6726 16.0801 15.5775 16.9823 15.5803 18.0984" fill="#E2E2E2"/>
<path d="M23.49 2.85381C22.7469 2.09967 21.4744 1 20.032 1C18.5895 1 17.3198 2.1079 16.5794 2.86478H13.9961L14.0043 8.6648H26.3558L26.3475 2.84833H23.4873L23.49 2.85381Z" fill="#343433"/>
<path d="M21.0211 3.19376C21.0211 3.6627 20.6427 4.04114 20.1765 4.04114C19.7075 4.04114 19.3291 3.6627 19.3291 3.1965C19.3291 2.7303 19.7075 2.34912 20.1737 2.34912C20.6427 2.34912 21.0211 2.72756 21.0211 3.19376Z" fill="white"/>
<path d="M28.0334 11.4565H17.1875V13.6614H28.0334V11.4565Z" fill="#E2E2E2"/>
<path d="M28.0334 16.999H17.1875V19.2039H28.0334V16.999Z" fill="#E2E2E2"/>
<path d="M15.2998 32L15.2998 29L13.2998 29L13.2998 32L15.2998 32Z" fill="#26C7CD"/>
<path d="M15.2998 32L15.2998 29L14.2998 29L14.2998 32L15.2998 32Z" fill="#256379" fill-opacity="0.2"/>
<path d="M19.2998 32L19.2998 27L17.2998 27L17.2998 32L19.2998 32Z" fill="#26C7CD"/>
<path d="M19.2998 32L19.2998 27L18.2998 27L18.2998 32L19.2998 32Z" fill="#256379" fill-opacity="0.2"/>
<path d="M27.2998 32L27.2998 26L25.2998 26L25.2998 32L27.2998 32Z" fill="#26C7CD"/>
<path d="M27.2998 32L27.2998 26L26.2998 26L26.2998 32L27.2998 32Z" fill="#256379" fill-opacity="0.2"/>
<path d="M23.2998 32L23.2998 24L21.2998 24L21.2998 32L23.2998 32Z" fill="#26C7CD"/>
<path d="M23.2998 32L23.2998 24L22.2998 24L22.2998 32L23.2998 32Z" fill="#256379" fill-opacity="0.2"/>
<path d="M12 23L12 32H12.5L12.5 23H12Z" fill="#E2E2E2"/>
<path d="M28 32H12V32.5H28V32Z" fill="#E2E2E2"/>
<path d="M14.5849 10.7737C14.5849 10.7737 14.5602 10.7518 14.5547 10.749C14.5547 10.7655 14.5931 10.7792 14.5849 10.7737Z" fill="#26C7CD"/>
<path d="M14.5793 10.9301L14.5684 10.9219L14.5876 10.9575L14.5793 10.9301Z" fill="#26C7CD"/>
<path d="M14.5107 11.0398C14.5683 11.0617 14.5272 10.9959 14.5601 10.9877L14.5738 10.9932L14.5382 10.9575C14.5299 10.9849 14.5382 11.0343 14.5135 11.0398H14.5107Z" fill="#26C7CD"/>
<path d="M14.3633 11.0234C14.3852 11.0343 14.3715 11.048 14.377 11.0151H14.3715C14.3715 11.0151 14.3688 11.0206 14.3633 11.0261V11.0234Z" fill="#26C7CD"/>
<path d="M14.3489 11.0726L14.3407 11.0452C14.327 11.0397 14.316 11.0507 14.3105 11.0425C14.3105 11.0644 14.3243 11.0699 14.3489 11.0726Z" fill="#26C7CD"/>
<path d="M14.3769 11.1109V11.0972C14.3769 11.0972 14.366 11.0972 14.3769 11.1109Z" fill="#26C7CD"/>
<path d="M14.3682 11.0728L14.3736 11.1002C14.3736 11.1002 14.3983 11.1139 14.3736 11.0892C14.3874 11.1002 14.3736 11.0892 14.3682 11.0728Z" fill="#26C7CD"/>
<path d="M14.3818 11.0674C14.3983 11.0674 14.412 11.0591 14.4202 11.0866C14.4312 11.0537 14.3928 11.0345 14.3818 11.0674Z" fill="#26C7CD"/>
<path d="M14.5603 11.0781H14.5823L14.5713 11.0562C14.5768 11.0671 14.5439 11.0699 14.5603 11.0781Z" fill="#26C7CD"/>
<path d="M14.2588 11.1465C14.2588 11.1465 14.2917 11.1602 14.3054 11.1684L14.2999 11.1492C14.2999 11.1492 14.2752 11.1547 14.2588 11.1465Z" fill="#26C7CD"/>
<path d="M14.3057 11.1685L14.3139 11.1959C14.3139 11.1959 14.3194 11.1739 14.3057 11.1685Z" fill="#26C7CD"/>
<path d="M14.4311 11.152L14.4092 11.0972L14.4284 11.1575L14.4311 11.152Z" fill="#26C7CD"/>
<path d="M14.2145 11.2071L14.1953 11.1797L14.2227 11.2208L14.2145 11.2071Z" fill="#26C7CD"/>
<path d="M14.1904 11.2509C14.174 11.2289 14.1493 11.2372 14.1411 11.2207C14.1383 11.2344 14.1493 11.2564 14.1575 11.2755C14.1575 11.2591 14.1657 11.2509 14.1904 11.2509Z" fill="#26C7CD"/>
<path d="M14.1709 11.3056C14.1709 11.3056 14.1627 11.2864 14.1572 11.2754C14.1572 11.2836 14.1627 11.2918 14.1709 11.3056Z" fill="#26C7CD"/>
<path d="M14.2884 11.2209C14.2884 11.2209 14.2637 11.2072 14.25 11.2127L14.2857 11.2264C14.2857 11.2264 14.2884 11.2237 14.2911 11.2209H14.2884Z" fill="#26C7CD"/>
<path d="M14.2864 11.229C14.2864 11.229 14.2781 11.24 14.2754 11.2427C14.2754 11.2427 14.2809 11.2372 14.2891 11.229H14.2864Z" fill="#26C7CD"/>
<path d="M14.374 11.1768C14.385 11.1987 14.3877 11.2316 14.4289 11.2289C14.4124 11.2069 14.3905 11.2097 14.374 11.1768Z" fill="#26C7CD"/>
<path d="M14.3324 11.2373L14.3516 11.2236C14.3516 11.2236 14.3297 11.2126 14.3242 11.2017L14.3324 11.2346V11.2373Z" fill="#26C7CD"/>
<path d="M14.3352 11.2538L14.3324 11.2373L14.3242 11.2428L14.3352 11.2538Z" fill="#26C7CD"/>
<path d="M14.2197 11.295C14.228 11.3114 14.2225 11.3196 14.2197 11.3306C14.2307 11.3251 14.2417 11.3169 14.2499 11.3059C14.2417 11.2977 14.228 11.2813 14.2197 11.2922V11.295Z" fill="#26C7CD"/>
<path d="M14.2563 11.3113C14.2563 11.3113 14.2618 11.2976 14.2563 11.2866C14.2563 11.2948 14.2563 11.3003 14.248 11.3086C14.2508 11.3113 14.2535 11.314 14.2563 11.3086V11.3113Z" fill="#26C7CD"/>
<path d="M14.168 11.3386C14.168 11.3386 14.1845 11.3386 14.1927 11.3386C14.179 11.3359 14.1598 11.3331 14.168 11.3386Z" fill="#26C7CD"/>
<path d="M14.2451 11.2646C14.2451 11.2646 14.2506 11.2784 14.2561 11.2866C14.2561 11.2811 14.2561 11.2756 14.2561 11.2674C14.2561 11.2674 14.2506 11.2674 14.2451 11.2646Z" fill="#26C7CD"/>
<path d="M14.3274 11.5856C14.3 11.5637 14.289 11.528 14.3302 11.5308C14.322 11.4979 14.2205 11.4458 14.1602 11.4238C14.1711 11.4321 14.1821 11.4403 14.1876 11.4704C14.2068 11.4759 14.2507 11.4567 14.2644 11.4896C14.2644 11.5226 14.2424 11.5006 14.2205 11.5006C14.2616 11.5171 14.2507 11.5664 14.3055 11.5966V11.5637C14.3055 11.5637 14.3165 11.5856 14.3274 11.5856Z" fill="#26C7CD"/>
<path d="M14.1869 11.3935V11.3853C14.1869 11.3853 14.1622 11.3853 14.1348 11.3853C14.1403 11.4072 14.1485 11.4154 14.1567 11.4236L14.1841 11.3935V11.399L14.1869 11.3935Z" fill="#26C7CD"/>
<path d="M14.2116 11.3525C14.2363 11.3799 14.239 11.4046 14.2801 11.4183C14.2911 11.3964 14.2637 11.3854 14.2609 11.3635C14.2445 11.4019 14.25 11.3415 14.2171 11.3552C14.2171 11.3443 14.2171 11.3388 14.2225 11.3306C14.2143 11.3333 14.2061 11.3361 14.1979 11.3388C14.1979 11.3388 14.2061 11.3388 14.2006 11.3388C14.2061 11.3415 14.2088 11.3443 14.2116 11.347C14.1979 11.3525 14.2034 11.3443 14.2006 11.3388H14.1979V11.3361L14.1924 11.3799C14.1924 11.3799 14.2061 11.3662 14.2143 11.347L14.2116 11.3525Z" fill="#26C7CD"/>
<path d="M14.4809 11.2918C14.4809 11.2918 14.4754 11.2918 14.4727 11.2891C14.4727 11.2945 14.4781 11.2973 14.4809 11.2918Z" fill="#26C7CD"/>
<path d="M14.453 11.292C14.453 11.292 14.4393 11.2755 14.4475 11.2701C14.4612 11.2701 14.4612 11.281 14.4722 11.2865C14.4667 11.2755 14.4612 11.2536 14.4365 11.2591V11.2646C14.4201 11.2701 14.368 11.2618 14.3652 11.2563C14.3954 11.2728 14.4173 11.281 14.4502 11.292H14.453Z" fill="#26C7CD"/>
<path d="M14.3379 11.3276V11.366L14.3708 11.3715L14.3543 11.3605C14.3708 11.3496 14.3489 11.3386 14.3379 11.3276Z" fill="#26C7CD"/>
<path d="M14.1376 11.4156L14.1074 11.3882L14.1431 11.4348L14.1376 11.4156Z" fill="#26C7CD"/>
<path d="M14.1163 11.4536L14.0889 11.4316L14.0998 11.4536H14.1163Z" fill="#26C7CD"/>
<path d="M13.1758 13.7439L13.1621 13.7329C13.1621 13.7329 13.1731 13.7439 13.1758 13.7439Z" fill="#26C7CD"/>
<path d="M13.5069 12.3725C13.474 12.3698 13.4219 12.3561 13.4548 12.3753L13.4877 12.3917C13.4877 12.3917 13.496 12.3753 13.5042 12.3725H13.5069Z" fill="#26C7CD"/>
<path d="M13.3096 13.1295C13.3096 13.1295 13.3178 13.1295 13.3206 13.1295C13.3124 13.1212 13.3041 13.1103 13.2959 13.1021C13.2986 13.1103 13.3041 13.1185 13.3096 13.1267V13.1295Z" fill="#26C7CD"/>
<path d="M13.4384 13.2173L13.4082 13.2228C13.4082 13.2228 13.4274 13.2228 13.4384 13.2173Z" fill="#26C7CD"/>
<path d="M12.9561 14.166L12.9807 14.1962C12.989 14.1797 12.9698 14.177 12.9561 14.166Z" fill="#26C7CD"/>
<path d="M13.8638 11.835C13.8446 11.835 13.8336 11.8432 13.8281 11.8487C13.8555 11.8487 13.8885 11.8569 13.8638 11.835Z" fill="#26C7CD"/>
<path d="M12.8105 13.5737C12.8105 13.5737 12.8188 13.5874 12.8243 13.5929C12.8243 13.5847 12.8188 13.5765 12.8105 13.5737Z" fill="#26C7CD"/>
<path d="M13.8085 11.8788C13.8085 11.8788 13.814 11.8788 13.8195 11.8788C13.8195 11.8678 13.8195 11.8569 13.8277 11.8486C13.8085 11.8486 13.7921 11.8541 13.8085 11.8788Z" fill="#26C7CD"/>
<path d="M11.799 14.1284C11.799 14.1284 11.799 14.1252 11.8021 14.1221C11.7958 14.1221 11.7958 14.1252 11.799 14.1284Z" fill="#26C7CD"/>
<path d="M11.9746 13.5874C11.9746 13.5874 11.9828 13.5956 11.9856 13.6039C11.9856 13.5984 11.9856 13.5956 11.9746 13.5874Z" fill="#26C7CD"/>
<path d="M14.1465 11.6377C14.1465 11.6377 14.152 11.6459 14.1575 11.6514C14.152 11.6459 14.1465 11.6404 14.1465 11.6377Z" fill="#26C7CD"/>
<path d="M14.0223 11.5884C14.0223 11.5884 14.0113 11.5884 14.0059 11.5911C14.0086 11.5911 14.0141 11.5911 14.0223 11.5884Z" fill="#26C7CD"/>
<path d="M14.0059 11.5799C14.0059 11.5799 14.0113 11.5771 14.0141 11.5744C14.0086 11.5689 14.0059 11.5689 14.0059 11.5799Z" fill="#26C7CD"/>
<path d="M13.9922 11.6018C13.9922 11.6018 14.0004 11.5936 14.0032 11.5908C14.0004 11.5908 13.9977 11.5908 13.9977 11.5908C13.9977 11.5908 13.9977 11.5963 13.9922 11.6018Z" fill="#26C7CD"/>
<path d="M12.383 14.7393C12.3776 14.7694 12.3803 14.7612 12.383 14.7393V14.7393Z" fill="#26C7CD"/>
<path d="M13.7102 12.7844L13.707 12.7812V12.7844H13.7102Z" fill="#26C7CD"/>
<path d="M13.7153 12.8278C13.6824 12.7922 13.6934 12.7867 13.7071 12.7839L13.6084 12.7373L13.7153 12.8278Z" fill="#26C7CD"/>
<path d="M13.052 13.9602H13.0931C13.126 14.0123 13.0986 14.0205 13.1507 14.026C13.0547 13.9602 13.1891 13.941 13.0931 13.8752H13.1233C13.1233 13.8752 13.1233 13.8806 13.1233 13.8861C13.1863 13.8889 13.0629 13.8231 13.0986 13.7984C13.1123 13.7901 13.1315 13.7929 13.1397 13.8066L13.1315 13.7655C13.1315 13.7655 13.1534 13.7709 13.148 13.7764L13.1644 13.7326C13.1644 13.7326 13.137 13.6914 13.1288 13.6805C13.148 13.6805 13.137 13.6914 13.1507 13.6969L13.1397 13.6613C13.1726 13.6667 13.1863 13.6996 13.1726 13.7134C13.2851 13.7545 13.1589 13.6805 13.2439 13.6695V13.6996C13.3098 13.7188 13.2988 13.6914 13.3481 13.6887C13.3262 13.6832 13.2302 13.6832 13.2193 13.6448C13.2302 13.6448 13.2412 13.6366 13.2275 13.6119C13.2631 13.6338 13.2631 13.6146 13.2686 13.5982L13.3152 13.6283C13.3125 13.6037 13.2878 13.59 13.2714 13.568C13.2878 13.5516 13.3262 13.568 13.3591 13.5845C13.3838 13.557 13.2878 13.5708 13.2988 13.5296C13.3317 13.5159 13.3235 13.4857 13.3125 13.4391C13.3399 13.4309 13.3399 13.4583 13.3564 13.4611L13.329 13.4227C13.329 13.4227 13.3427 13.4282 13.3481 13.4309C13.3399 13.409 13.3015 13.4007 13.3015 13.3733C13.2522 13.3377 13.403 13.3733 13.3591 13.3157C13.3756 13.3157 13.3865 13.3349 13.4057 13.3459C13.3865 13.2883 13.3948 13.2993 13.3591 13.2389L13.4057 13.2335C13.3591 13.2307 13.3317 13.1813 13.307 13.1402C13.2851 13.1375 13.2686 13.132 13.2576 13.132L13.2522 13.0854C13.2522 13.0854 13.2768 13.0991 13.2933 13.1155C13.2933 13.11 13.2878 13.1073 13.2851 13.1018C13.3098 13.1018 13.3317 13.1238 13.3536 13.1457C13.3427 13.1457 13.329 13.143 13.318 13.1402C13.3427 13.1649 13.3701 13.1923 13.3975 13.206C13.392 13.2005 13.3893 13.1951 13.3893 13.1868C13.3975 13.1951 13.403 13.2005 13.4085 13.2005C13.414 13.2005 13.4085 13.1923 13.3975 13.1813L13.4551 13.206L13.4359 13.1923L13.4935 13.1704C13.4578 13.1073 13.3948 13.036 13.403 12.9729C13.4359 13.0086 13.4661 13.0141 13.5099 13.0415C13.4524 13.025 13.5099 13.0909 13.4825 13.11C13.4962 13.0991 13.5154 13.1155 13.5209 13.1238L13.5045 13.0525C13.5401 13.0771 13.5374 13.0607 13.5593 13.0579C13.4798 13.0223 13.5291 12.9949 13.5182 12.9647C13.5429 12.9784 13.5675 12.9976 13.5483 13.0168C13.6196 13.025 13.4798 12.9345 13.5401 12.9373C13.5401 12.9428 13.5319 12.9428 13.5429 12.9537C13.5291 12.9291 13.5648 12.9071 13.5812 12.9291V12.9345C13.6087 12.9044 13.6443 12.8276 13.5867 12.7837C13.595 12.7892 13.658 12.8331 13.6717 12.844L13.499 12.6521C13.5483 12.6905 13.6909 12.7481 13.7019 12.7947C13.7156 12.7919 13.7293 12.7865 13.7211 12.7563C13.7101 12.7563 13.6361 12.7234 13.6333 12.7124C13.7074 12.7261 13.6745 12.7179 13.743 12.7206C13.7266 12.7206 13.6471 12.6603 13.658 12.6493C13.669 12.6603 13.743 12.6987 13.7485 12.7097L13.6855 12.6247C13.6964 12.6411 13.754 12.6685 13.7814 12.6768C13.7622 12.6713 13.8006 12.6493 13.7979 12.6356H13.7705C13.8061 12.6082 13.6772 12.5287 13.7046 12.493C13.7184 12.5067 13.8006 12.5698 13.8253 12.5561C13.7897 12.5204 13.6471 12.3916 13.6361 12.3367L13.6635 12.3449L13.6525 12.3011C13.7074 12.3559 13.8116 12.4848 13.8472 12.5424C13.8747 12.5424 13.8774 12.5561 13.8884 12.5342C13.9158 12.5396 13.9158 12.5671 13.9131 12.5753L13.9569 12.5342C13.9076 12.5067 13.9323 12.4656 13.8884 12.4409L13.9048 12.5259C13.8555 12.4985 13.7842 12.408 13.8143 12.3778C13.839 12.3806 13.8966 12.4382 13.9131 12.4491C13.8994 12.4327 13.9021 12.3943 13.9131 12.3998L13.9295 12.4327C13.9597 12.4245 13.8829 12.3586 13.946 12.3669C13.9542 12.3614 14.0255 12.3833 13.9981 12.3641C13.935 12.3422 13.7595 12.2352 13.7238 12.1996C13.7293 12.1996 13.8061 12.1914 13.839 12.1996C13.8911 12.216 13.9295 12.2873 13.9734 12.2983C13.9597 12.2901 13.9487 12.2709 13.946 12.2654C13.9624 12.2654 13.9844 12.2956 13.9899 12.2736C13.9432 12.238 14.0173 12.2407 13.9542 12.238C13.9542 12.2106 13.9761 12.227 13.9899 12.2051C13.9542 12.1914 13.8939 12.1146 13.8911 12.0872C13.9021 12.0954 13.9213 12.1036 13.9323 12.1064C13.9624 12.0734 13.9953 12.068 14.02 12.0351C14.0337 12.0405 14.0584 12.0351 14.0749 12.0543C14.0694 12.0433 14.0557 12.0268 14.0612 12.0159C14.116 12.0241 14.0529 12.0433 14.1133 12.0625C14.0858 12.0433 14.0913 12.0104 14.0858 11.983C14.0392 11.9583 14.0529 12.0104 14.0612 12.0378C14.0008 11.9967 13.9569 11.9281 13.9542 11.8733C13.9597 11.8349 14.0008 11.887 13.9953 11.876C14.042 11.8321 13.924 11.7581 13.9953 11.7444C14.0447 11.7526 14.0721 11.7965 14.0995 11.8129C14.0995 11.8458 14.0502 11.8321 14.042 11.8486L14.0721 11.8431C14.0803 11.8595 14.0776 11.8815 14.0612 11.8815C14.105 11.8897 14.1297 11.7965 14.19 11.78C14.1818 11.7636 14.1791 11.7416 14.1571 11.7361V11.7526C14.1133 11.7444 14.127 11.6977 14.1023 11.706C14.0941 11.6731 14.0721 11.6319 14.1078 11.6182L14.1544 11.6456C14.1544 11.6456 14.1187 11.6456 14.127 11.6594C14.116 11.6347 14.212 11.6621 14.1626 11.6127L14.1215 11.6073C14.1133 11.5743 14.0803 11.5195 14.1105 11.5085C14.0612 11.4893 14.1105 11.5168 14.0502 11.4976C14.1215 11.5277 14.009 11.5497 14.0886 11.5771C14.02 11.5524 14.0447 11.5881 13.9816 11.5716C13.9953 11.5826 14.0145 11.5826 13.9953 11.5963C13.9981 11.599 14.0036 11.6045 14.0036 11.61C14.0118 11.61 14.0228 11.61 14.031 11.6155C14.0584 11.6484 14.0365 11.6758 14.0447 11.6977C14.031 11.7032 14.031 11.6813 14.0118 11.6758L14.0282 11.7087C13.9953 11.6868 13.9569 11.7005 13.9542 11.6621L13.9377 11.684C13.9103 11.684 13.8911 11.6977 13.8966 11.7197C13.8829 11.7252 13.9131 11.7718 13.8966 11.7444L13.8911 11.7937L13.8829 11.7882C13.8527 11.8212 13.8829 11.8979 13.8006 11.9007C13.8006 11.9171 13.8006 11.9391 13.7787 11.9528L13.7485 11.9391C13.7485 11.961 13.6882 11.9665 13.7129 11.9939C13.6251 11.961 13.6443 12.0597 13.6142 12.0789L13.6498 12.1036C13.6361 12.1201 13.6333 12.1475 13.6333 12.1804L13.6663 12.1996C13.68 12.238 13.6114 12.238 13.595 12.2736C13.584 12.2627 13.5922 12.2572 13.6032 12.2572C13.5045 12.249 13.6059 12.3724 13.5319 12.3751C13.5374 12.3916 13.5319 12.3943 13.5182 12.397C13.5182 12.397 13.5182 12.397 13.5182 12.3943C13.5182 12.3943 13.5182 12.3943 13.5182 12.397C13.5099 12.397 13.5017 12.397 13.4935 12.397C13.5045 12.397 13.5127 12.397 13.5182 12.397C13.5154 12.4053 13.5127 12.4162 13.5154 12.4327L13.477 12.4162C13.477 12.4162 13.477 12.4162 13.477 12.419C13.4578 12.419 13.488 12.4382 13.5182 12.4491C13.5182 12.4574 13.5237 12.4656 13.5319 12.4766C13.4688 12.4491 13.5346 12.515 13.4661 12.4875C13.4907 12.5122 13.4578 12.5534 13.5182 12.5945C13.5099 12.589 13.5045 12.5917 13.5072 12.5835C13.4935 12.589 13.4798 12.5972 13.4907 12.6192L13.4414 12.5972L13.488 12.6576C13.4524 12.6576 13.4304 12.6521 13.4057 12.6164C13.4359 12.685 13.4057 12.6576 13.4414 12.7206L13.414 12.7014C13.414 12.7014 13.4359 12.7535 13.4085 12.7453C13.3372 12.7371 13.3262 12.8605 13.2385 12.8934C13.3317 12.9318 13.1809 12.8989 13.2467 12.9428C13.2247 12.9345 13.2083 12.9373 13.1946 12.9153C13.1946 12.9592 13.1342 12.9455 13.1781 13.0004C13.1562 12.9921 13.1534 12.9757 13.1397 12.9729C13.1397 12.9784 13.1507 12.9949 13.137 12.9894C13.1233 12.9866 13.1233 12.9757 13.1178 12.9647C13.1013 13.0004 13.1644 13.0387 13.2193 13.0771C13.1809 13.0771 13.1809 13.0881 13.2138 13.1238C13.1918 13.1183 13.1644 13.1155 13.1699 13.0909C13.1589 13.1018 13.1013 13.143 13.148 13.1731C13.1342 13.1704 13.1342 13.1868 13.1397 13.1923C13.1205 13.217 13.115 13.217 13.1068 13.2444H13.1178C13.1699 13.2856 13.1178 13.2718 13.1123 13.2938L13.1068 13.2883C13.0383 13.3102 13.115 13.3212 13.041 13.3377L13.0767 13.3569C13.1507 13.4062 13.0081 13.3706 13.0218 13.4144H13.0465C13.0657 13.4474 12.9176 13.3952 12.9011 13.4035C12.8929 13.4035 12.8929 13.3925 12.8902 13.3843C12.8216 13.3952 12.9341 13.4172 12.9258 13.4501C12.8984 13.4391 12.8655 13.4062 12.849 13.4227C12.8244 13.4199 12.8957 13.5269 12.8326 13.5214C12.8545 13.5269 12.8765 13.5324 12.8847 13.5543C12.8792 13.579 12.7777 13.5625 12.8298 13.6174C12.8216 13.6174 12.8161 13.6146 12.8134 13.6119C12.8189 13.6366 12.8079 13.6777 12.8353 13.7079C12.7064 13.6475 12.8353 13.8395 12.7256 13.7682L12.7037 13.8176L12.6927 13.8093C12.668 13.834 12.6872 13.8614 12.7064 13.8889C12.6955 13.8889 12.6872 13.8806 12.6818 13.8752C12.6324 13.9053 12.6351 13.9108 12.668 13.9848L12.6297 13.9657C12.6434 13.9903 12.5337 13.9931 12.5474 14.0589C12.5446 14.0561 12.5364 14.0507 12.5337 14.0424C12.5392 14.0781 12.4953 14.0918 12.4651 14.1055C12.4514 14.111 12.435 14.1247 12.4404 14.1302C12.4432 14.1384 12.4569 14.1521 12.4843 14.1796C12.4843 14.1796 12.5008 14.2234 12.498 14.2262C12.5282 14.2042 12.5446 14.2783 12.5721 14.2838C12.5666 14.3084 12.5145 14.2838 12.52 14.2618H12.5282C12.4761 14.1988 12.4843 14.281 12.4514 14.2289C12.4377 14.2536 12.4158 14.2673 12.3993 14.2728C12.3801 14.2783 12.3664 14.2783 12.3554 14.292L12.3664 14.388L12.3554 14.3989C12.3527 14.3797 12.3499 14.3222 12.3554 14.3167C12.3499 14.2618 12.3472 14.3825 12.3445 14.4072C12.3307 14.3825 12.3472 14.2728 12.3445 14.2755V14.2892L12.3417 14.3002C12.339 14.3496 12.3362 14.4017 12.328 14.4072C12.3225 14.377 12.328 14.3331 12.328 14.3249C12.328 14.3167 12.328 14.3112 12.3253 14.3194L12.3143 14.2975V14.388C12.3006 14.4236 12.2951 14.366 12.2924 14.4702C12.2924 14.388 12.2841 14.3605 12.2704 14.3441C12.2594 14.3249 12.2457 14.3167 12.2485 14.2975C12.2238 14.3304 12.2128 14.3139 12.2073 14.292C12.2046 14.3084 12.1717 14.3743 12.1662 14.3468C12.2402 14.2317 12.1827 14.2646 12.2348 14.1796C12.1991 14.2371 12.2073 14.1576 12.1552 14.2317C12.1552 14.2125 12.1881 14.1988 12.2046 14.1713C12.1827 14.1741 12.1827 14.1521 12.1854 14.1357C12.1909 14.122 12.1909 14.0836 12.1744 14.0562C12.1607 14.0616 12.1415 14.0781 12.1168 14.0753L12.1744 14.015C12.1744 14.015 12.0894 14.037 12.1278 13.9958C12.1168 14.004 12.1004 14.015 12.0922 14.0095C12.1059 13.9382 12.0647 13.8834 12.0346 13.8258C12.0044 13.7682 11.9715 13.7079 12.0071 13.6119C11.988 13.6421 11.9825 13.6311 11.9742 13.6201C11.9742 13.6311 11.9413 13.6366 11.9249 13.6475C11.9249 13.6475 11.9304 13.6283 11.9358 13.6092C11.9386 13.59 11.9441 13.568 11.9441 13.568C11.8892 13.5872 11.9084 13.5159 11.8591 13.5406L11.8755 13.5516C11.8097 13.568 11.7713 13.6558 11.6973 13.6942C11.7329 13.6859 11.7192 13.7134 11.7082 13.738C11.6973 13.7627 11.6863 13.7874 11.7411 13.7819C11.7302 13.7956 11.7137 13.7874 11.7 13.8011C11.7357 13.7929 11.7466 13.8011 11.7411 13.8285H11.7329C11.7658 13.8806 11.7466 13.919 11.7494 13.9931L11.785 13.9739C11.785 13.9903 11.7741 13.9986 11.7686 14.0095C11.8316 14.0013 11.7549 13.9684 11.8234 13.9574C11.7549 14.0068 11.8618 14.0589 11.7795 14.1083C11.7878 14.1302 11.8207 14.0836 11.8289 14.1083L11.807 14.1247L11.8399 14.1192C11.8399 14.1357 11.8152 14.1549 11.7932 14.1631C11.7932 14.1576 11.7823 14.1549 11.7795 14.1521C11.7603 14.1823 11.8097 14.2015 11.8042 14.2125L11.8097 14.185C11.8097 14.185 11.8289 14.2125 11.8371 14.2317C11.8454 14.2536 11.8563 14.2728 11.8673 14.2947C11.892 14.3441 11.9167 14.3989 11.9578 14.4181L11.9688 14.3989C12.0263 14.4291 11.9797 14.462 12.0263 14.5114H12.0209C12.0401 14.5114 12.0538 14.5169 12.062 14.5361C12.0401 14.5415 12.0538 14.6101 12.0291 14.6128C12.0894 14.6348 12.0675 14.6128 12.1251 14.5717L12.1168 14.6156C12.1388 14.5964 12.1443 14.5799 12.1635 14.5936C12.1388 14.6046 12.158 14.6677 12.1278 14.6841C12.136 14.7527 12.1607 14.7554 12.1772 14.7582C12.1964 14.7582 12.2073 14.7582 12.2101 14.8405C12.2485 14.75 12.1799 14.728 12.1964 14.7171C12.1964 14.6704 12.2293 14.654 12.2402 14.6787C12.2512 14.6951 12.243 14.8597 12.2869 14.9063C12.2841 14.9008 12.2814 14.909 12.2786 14.9063C12.2869 14.931 12.2924 14.931 12.3006 14.9282C12.3088 14.909 12.317 14.8926 12.3253 14.909C12.3335 14.8213 12.3499 14.8816 12.3472 14.7856L12.3143 14.8514C12.3362 14.7993 12.3445 14.6704 12.3746 14.6869C12.3746 14.7088 12.3691 14.7417 12.3637 14.7637C12.3746 14.7774 12.3774 14.7225 12.3911 14.739C12.3966 14.8322 12.3527 14.8103 12.3335 14.9118C12.3472 14.9364 12.3719 14.7884 12.3664 14.9035C12.3719 14.8295 12.3801 14.8213 12.3911 14.813C12.402 14.8075 12.4185 14.7993 12.424 14.739L12.4295 14.7911C12.4295 14.7911 12.4377 14.7417 12.4459 14.7335V14.8158C12.4541 14.7335 12.498 14.8021 12.5145 14.7445C12.4679 14.8075 12.4898 14.7033 12.4624 14.6951C12.4953 14.569 12.5254 14.7719 12.5885 14.6649C12.5803 14.6814 12.5446 14.6841 12.5501 14.6485C12.5638 14.6403 12.5885 14.6348 12.6077 14.6458C12.6489 14.5799 12.5803 14.6156 12.5858 14.569C12.6242 14.5964 12.5967 14.5251 12.6022 14.4894L12.6269 14.5223C12.69 14.484 12.5858 14.4401 12.6434 14.4127C12.6434 14.4127 12.6489 14.4291 12.6543 14.4428C12.6598 14.4593 12.6653 14.4757 12.6653 14.4757L12.6763 14.4373L12.7037 14.4757C12.7037 14.4181 12.7174 14.4181 12.7503 14.3935C12.7229 14.3825 12.6955 14.3441 12.7119 14.3194C12.7421 14.3194 12.7393 14.3468 12.7531 14.3194C12.7695 14.3414 12.7969 14.3633 12.7503 14.3578C12.7613 14.366 12.764 14.3825 12.775 14.3907C12.8189 14.3825 12.8107 14.3523 12.8189 14.3414C12.8161 14.3441 12.8107 14.3468 12.8024 14.3468L12.7832 14.2755C12.7997 14.2755 12.8079 14.2892 12.8134 14.3002C12.8134 14.2892 12.8024 14.2728 12.8079 14.2591C12.8353 14.281 12.8628 14.3002 12.8655 14.3249L12.86 14.2673C12.8737 14.2728 12.9066 14.2673 12.9149 14.281C12.9478 14.2701 12.8957 14.1933 12.9341 14.1796C12.9286 14.1741 12.9258 14.1686 12.9258 14.1604C12.9478 14.1384 12.9999 14.1357 12.9779 14.0808L13.041 14.0945C13.0437 14.0616 12.9615 14.0781 12.967 14.0232C12.967 13.9849 13.0163 14.0397 13.0383 14.0397C13.0218 14.0095 12.9834 13.9519 13.0437 13.9492C13.0465 13.9629 13.0355 13.9657 13.0355 13.9766L13.052 13.9602ZM13.2165 13.6393C13.2165 13.6393 13.2357 13.675 13.211 13.6667C13.1754 13.6366 13.1973 13.6421 13.2165 13.6393ZM13.4057 13.1238C13.4057 13.1238 13.4057 13.1375 13.3865 13.1375C13.3865 13.1292 13.392 13.1238 13.4057 13.1238ZM13.9679 11.695C13.946 11.7005 13.9542 11.7005 13.9679 11.695V11.695ZM14.0008 11.6786C14.0008 11.6786 13.9926 11.6703 13.9871 11.6676C13.9953 11.6758 13.9899 11.6813 13.9844 11.6868C13.9953 11.6923 14.0036 11.6923 14.0008 11.6786ZM12.3335 14.3359V14.3578C12.328 14.3743 12.3335 14.3578 12.3335 14.3359Z" fill="#26C7CD"/>
<path d="M13.4223 13.206C13.4223 13.206 13.4086 13.2005 13.4004 13.1978C13.4059 13.2032 13.4114 13.2087 13.4223 13.206Z" fill="#26C7CD"/>
<path d="M12.9502 14.1606C12.9502 14.1606 12.9534 14.1638 12.9565 14.167L12.9502 14.1606Z" fill="#26C7CD"/>
<path d="M14.0149 12.2847C14.0149 12.2847 13.9985 12.2847 13.9902 12.2847C13.9985 12.2902 14.0067 12.2929 14.0149 12.2847Z" fill="#26C7CD"/>
<path d="M14.0423 11.5003V11.5222C14.0423 11.5222 14.0533 11.514 14.0615 11.514C14.0533 11.5085 14.0396 11.503 14.0423 11.4976V11.5003Z" fill="#26C7CD"/>
<path d="M14.3514 11.5034C14.3514 11.5034 14.3542 11.4979 14.3514 11.4924L14.335 11.4814C14.335 11.4814 14.335 11.5089 14.3514 11.5034Z" fill="#26C7CD"/>
<path d="M14.1652 11.5635C14.1954 11.5827 14.1926 11.5635 14.1954 11.5498C14.157 11.5169 14.1625 11.5416 14.1679 11.5608L14.1652 11.5635Z" fill="#26C7CD"/>
<path d="M14.1953 11.547C14.1953 11.547 14.1981 11.5388 14.2035 11.536C14.1898 11.5223 14.1981 11.536 14.1953 11.547Z" fill="#26C7CD"/>
<path d="M14.0061 11.632C14.0061 11.632 13.9731 11.6018 13.9869 11.6073C13.9539 11.5744 14.0033 11.6758 14.0061 11.632Z" fill="#26C7CD"/>
<path d="M14.264 11.6211L14.2256 11.5991L14.2503 11.6265L14.264 11.6211Z" fill="#26C7CD"/>
<path d="M14.174 11.6951L14.1959 11.6841C14.1959 11.6841 14.1877 11.6759 14.1877 11.6704C14.1767 11.6814 14.163 11.6896 14.174 11.6951Z" fill="#26C7CD"/>
<path d="M14.1904 11.6706C14.1904 11.6706 14.1987 11.6596 14.1959 11.6514C14.1959 11.6541 14.1904 11.6623 14.1904 11.6706Z" fill="#26C7CD"/>
<path d="M14.2591 11.6538H14.2481L14.2344 11.6648L14.2591 11.6538Z" fill="#26C7CD"/>
<path d="M14.0254 11.8896V11.9171C14.0254 11.9171 14.0446 11.928 14.0446 11.9171C14.0391 11.9061 14.0391 11.8951 14.0254 11.8896Z" fill="#26C7CD"/>
<path d="M14.1657 11.8952C14.1657 11.8952 14.1465 11.8898 14.1328 11.8843L14.1767 11.9144L14.1657 11.8925V11.8952Z" fill="#26C7CD"/>
<path d="M14.1348 11.964C14.1348 11.964 14.1485 12.0188 14.1649 11.9914C14.154 11.9804 14.1594 11.953 14.1348 11.964Z" fill="#26C7CD"/>
<path d="M13.8692 12.2352L13.8719 12.2297L13.7979 12.1831L13.8692 12.2352Z" fill="#26C7CD"/>
<path d="M13.8747 12.6273C13.9077 12.6136 13.8336 12.5916 13.8693 12.5834C13.8555 12.567 13.8391 12.5889 13.8281 12.5752C13.8364 12.6026 13.8226 12.6026 13.8747 12.6273Z" fill="#26C7CD"/>
<path d="M13.8278 12.5752C13.8278 12.5752 13.825 12.567 13.8223 12.5615C13.8223 12.5698 13.8278 12.5725 13.8278 12.5752Z" fill="#26C7CD"/>
<path d="M11.9746 13.4942L11.9774 13.4668L11.9609 13.4942H11.9746Z" fill="#26C7CD"/>
<path d="M11.8971 13.4941L11.941 13.4585L11.8916 13.475C11.8916 13.475 11.9053 13.4832 11.8971 13.4941Z" fill="#26C7CD"/>
<path d="M13.3403 13.6531L13.3294 13.6448C13.3157 13.6394 13.3129 13.6449 13.3047 13.6503H13.3403V13.6531Z" fill="#26C7CD"/>
<path d="M13.1669 13.8535L13.1697 13.8507L13.123 13.8315L13.1669 13.8535Z" fill="#26C7CD"/>
<path d="M13.1069 14.0753C13.1069 14.0753 13.1069 14.0533 13.1152 14.0479C13.1124 14.0698 13.0521 14.0451 13.1069 14.0753Z" fill="#26C7CD"/>
<path d="M14.7255 16.0144C14.7255 16.0144 14.7008 15.9925 14.6953 15.9897C14.6953 16.0062 14.7337 16.0199 14.7255 16.0144Z" fill="#26C7CD"/>
<path d="M14.72 16.1708L14.709 16.1626L14.7282 16.1982L14.72 16.1708Z" fill="#26C7CD"/>
<path d="M14.6484 16.2805C14.706 16.3025 14.6649 16.2366 14.6951 16.2284L14.7088 16.2339L14.6731 16.1982C14.6649 16.2257 14.6731 16.275 14.6484 16.2805Z" fill="#26C7CD"/>
<path d="M14.5037 16.2612C14.5257 16.2721 14.5119 16.2858 14.5174 16.2529C14.5147 16.2529 14.5119 16.2529 14.5092 16.2529C14.5092 16.2529 14.5065 16.2584 14.501 16.2639L14.5037 16.2612Z" fill="#26C7CD"/>
<path d="M14.4866 16.3132L14.4784 16.2858C14.4647 16.2803 14.4537 16.2912 14.4482 16.2803C14.4482 16.3022 14.462 16.3077 14.4866 16.3104V16.3132Z" fill="#26C7CD"/>
<path d="M14.5176 16.3516V16.3379C14.5176 16.3379 14.5066 16.3379 14.5176 16.3516Z" fill="#26C7CD"/>
<path d="M14.5088 16.3105L14.5143 16.338C14.5143 16.338 14.5417 16.3517 14.5143 16.327C14.528 16.338 14.5143 16.327 14.5088 16.3105Z" fill="#26C7CD"/>
<path d="M14.5225 16.3081C14.5389 16.3081 14.5526 16.2999 14.5609 16.3273C14.5718 16.2944 14.5334 16.2752 14.5225 16.3081Z" fill="#26C7CD"/>
<path d="M14.7009 16.3188H14.7229L14.7119 16.2969C14.7174 16.3078 14.6845 16.3106 14.7009 16.3188Z" fill="#26C7CD"/>
<path d="M14.3994 16.3848C14.3994 16.3848 14.4323 16.3985 14.446 16.4067L14.4405 16.3875C14.4405 16.3875 14.4159 16.393 14.3994 16.3848Z" fill="#26C7CD"/>
<path d="M14.4463 16.4092L14.4545 16.4393C14.4545 16.4393 14.46 16.4174 14.4463 16.4092Z" fill="#26C7CD"/>
<path d="M14.5717 16.3927L14.5498 16.3379L14.569 16.3982L14.5717 16.3927Z" fill="#26C7CD"/>
<path d="M14.3551 16.4478L14.3359 16.4204L14.3634 16.4615L14.3551 16.4478Z" fill="#26C7CD"/>
<path d="M14.3311 16.4916C14.3146 16.4697 14.29 16.4751 14.2817 16.4614C14.2762 16.4751 14.2872 16.4971 14.2982 16.5163C14.2982 16.4998 14.3064 16.4943 14.3311 16.4916Z" fill="#26C7CD"/>
<path d="M14.3116 16.5463C14.3116 16.5463 14.3033 16.5271 14.2979 16.5161C14.2979 16.5243 14.3033 16.5326 14.3116 16.5463Z" fill="#26C7CD"/>
<path d="M14.429 16.4613C14.429 16.4613 14.4043 16.4503 14.3906 16.4531L14.4263 16.4668C14.4263 16.4668 14.429 16.464 14.4318 16.4613H14.429Z" fill="#26C7CD"/>
<path d="M14.4241 16.4668C14.4241 16.4668 14.4158 16.4778 14.4131 16.4778C14.4131 16.4778 14.4186 16.4723 14.4268 16.4668H14.4241Z" fill="#26C7CD"/>
<path d="M14.5146 16.4175C14.5256 16.4394 14.5284 16.4723 14.5695 16.4696C14.553 16.4476 14.5311 16.4504 14.5146 16.4175Z" fill="#26C7CD"/>
<path d="M14.4731 16.478L14.4923 16.4643C14.4923 16.4643 14.4703 16.4534 14.4648 16.4424L14.4731 16.4753V16.478Z" fill="#26C7CD"/>
<path d="M14.4758 16.4945L14.4731 16.478L14.4648 16.4835L14.4758 16.4945Z" fill="#26C7CD"/>
<path d="M14.3604 16.5357C14.3686 16.5521 14.3631 16.5604 14.3604 16.5713C14.3713 16.5659 14.3823 16.5576 14.3905 16.5467C14.3823 16.5384 14.3686 16.522 14.3604 16.5329V16.5357Z" fill="#26C7CD"/>
<path d="M14.3969 16.5491C14.3969 16.5491 14.4024 16.5354 14.3969 16.5244C14.3969 16.5326 14.3969 16.5381 14.3887 16.5464C14.3914 16.5491 14.3942 16.5518 14.3969 16.5464V16.5491Z" fill="#26C7CD"/>
<path d="M14.3086 16.5793C14.3086 16.5793 14.3251 16.5793 14.3333 16.5793C14.3196 16.5766 14.3004 16.5739 14.3086 16.5793Z" fill="#26C7CD"/>
<path d="M14.3857 16.5054C14.3857 16.5054 14.394 16.5191 14.3967 16.5273C14.3967 16.5218 14.3967 16.5136 14.3967 16.5081C14.3967 16.5081 14.3912 16.5081 14.3857 16.5054Z" fill="#26C7CD"/>
<path d="M14.4679 16.8263C14.4405 16.8044 14.4295 16.7688 14.4679 16.7715C14.4596 16.7413 14.3609 16.6865 14.2979 16.6646C14.3088 16.6728 14.3198 16.681 14.3253 16.7112C14.3445 16.7167 14.3883 16.6975 14.4021 16.7304C14.4021 16.7633 14.3801 16.7413 14.3554 16.7413C14.3966 16.7578 14.3856 16.8072 14.4405 16.8373V16.8044C14.4405 16.8044 14.4514 16.8263 14.4624 16.8263H14.4679Z" fill="#26C7CD"/>
<path d="M14.3275 16.6342V16.626C14.3275 16.626 14.3028 16.626 14.2754 16.626C14.2809 16.6479 14.2891 16.6561 14.2973 16.6644L14.3248 16.6315V16.6369L14.3275 16.6342Z" fill="#26C7CD"/>
<path d="M14.3499 16.5929C14.3773 16.6203 14.3773 16.645 14.4184 16.6587C14.4321 16.6368 14.402 16.6258 14.3992 16.6066C14.3828 16.645 14.3883 16.5847 14.3554 16.5984C14.3554 16.5874 14.3554 16.582 14.3608 16.5737C14.3526 16.5765 14.3444 16.5792 14.3334 16.582C14.3334 16.582 14.3416 16.5847 14.3362 16.5847C14.3389 16.5874 14.3444 16.5902 14.3471 16.5929C14.3334 16.5984 14.3389 16.5902 14.3362 16.5847H14.3307V16.582L14.3252 16.6258C14.3252 16.6258 14.3389 16.6121 14.3471 16.5929H14.3499Z" fill="#26C7CD"/>
<path d="M14.6215 16.5301C14.6215 16.5301 14.616 16.5301 14.6133 16.5273C14.6133 16.5328 14.616 16.5356 14.6215 16.5301Z" fill="#26C7CD"/>
<path d="M14.5936 16.5327C14.5936 16.5327 14.5799 16.5163 14.5881 16.5108C14.6018 16.5108 14.6018 16.5218 14.6128 16.5272C14.6073 16.5163 14.6018 16.4943 14.5772 16.4998V16.5053C14.5607 16.5108 14.5086 16.5053 14.5059 16.4971C14.536 16.5135 14.558 16.5218 14.5909 16.5327H14.5936Z" fill="#26C7CD"/>
<path d="M14.4791 16.5684L14.4736 16.6068L14.5093 16.6122L14.4928 16.6013C14.5093 16.5903 14.4873 16.5793 14.4764 16.5684H14.4791Z" fill="#26C7CD"/>
<path d="M14.2782 16.6536L14.248 16.6289L14.281 16.6755L14.2782 16.6536Z" fill="#26C7CD"/>
<path d="M14.2569 16.6916L14.2295 16.6724L14.2405 16.6943L14.2569 16.6916Z" fill="#26C7CD"/>
<path d="M13.3135 18.9846L13.2998 18.9736C13.2998 18.9736 13.3108 18.9846 13.3135 18.9846Z" fill="#26C7CD"/>
<path d="M13.645 17.6134C13.6093 17.6107 13.5599 17.597 13.5928 17.6134L13.6285 17.6299C13.6285 17.6299 13.6367 17.6134 13.645 17.6107V17.6134Z" fill="#26C7CD"/>
<path d="M13.4502 18.3702C13.4502 18.3702 13.4585 18.3702 13.4612 18.3702C13.453 18.3592 13.4448 18.351 13.4365 18.3428C13.442 18.351 13.4448 18.3592 13.4502 18.3675V18.3702Z" fill="#26C7CD"/>
<path d="M13.579 18.458L13.5488 18.4635C13.5488 18.4635 13.568 18.4635 13.579 18.458Z" fill="#26C7CD"/>
<path d="M13.0967 19.4067L13.1214 19.4369C13.1296 19.4205 13.1104 19.4177 13.0967 19.4067Z" fill="#26C7CD"/>
<path d="M14.0044 17.0757C13.9852 17.0757 13.9742 17.0839 13.9688 17.0894C13.9962 17.0894 14.0291 17.0976 14.0044 17.0757Z" fill="#26C7CD"/>
<path d="M12.9512 18.8145C12.9512 18.8145 12.9594 18.8282 12.9649 18.8336C12.9649 18.8254 12.9594 18.8172 12.9512 18.8145Z" fill="#26C7CD"/>
<path d="M13.9472 17.1195C13.9472 17.1195 13.9554 17.1195 13.9581 17.1195C13.9581 17.1086 13.9581 17.0976 13.9664 17.0894C13.9472 17.0894 13.9307 17.0948 13.9472 17.1195Z" fill="#26C7CD"/>
<path d="M11.9396 19.3691C11.9396 19.3691 11.9396 19.366 11.9427 19.3628C11.9364 19.3628 11.9364 19.366 11.9396 19.3691Z" fill="#26C7CD"/>
<path d="M12.1152 18.8281C12.1152 18.8281 12.1235 18.8364 12.1289 18.8446C12.1289 18.8391 12.1289 18.8364 12.1152 18.8281Z" fill="#26C7CD"/>
<path d="M14.2871 16.8784C14.2871 16.8784 14.2926 16.8866 14.3008 16.8921C14.2926 16.8866 14.2899 16.8812 14.2871 16.8784Z" fill="#26C7CD"/>
<path d="M14.161 16.8291C14.161 16.8291 14.15 16.8291 14.1445 16.8318C14.1473 16.8318 14.1528 16.8318 14.161 16.8291Z" fill="#26C7CD"/>
<path d="M14.1465 16.8206C14.1465 16.8206 14.152 16.8179 14.1547 16.8151C14.1492 16.8096 14.1465 16.8096 14.1465 16.8206Z" fill="#26C7CD"/>
<path d="M14.1328 16.8425C14.1328 16.8425 14.1383 16.8343 14.1438 16.8315C14.141 16.8315 14.1383 16.8315 14.1383 16.8315C14.1383 16.8315 14.1383 16.837 14.1328 16.8425Z" fill="#26C7CD"/>
<path d="M12.5237 19.9798C12.5237 19.9798 12.5237 19.9798 12.5237 19.9771C12.5182 20.0072 12.5209 19.999 12.5237 19.9798Z" fill="#26C7CD"/>
<path d="M13.8489 18.0251V18.022L13.8457 18.0251H13.8489Z" fill="#26C7CD"/>
<path d="M13.856 18.0685C13.8231 18.0329 13.834 18.0274 13.8477 18.0246L13.749 17.978L13.856 18.0685Z" fill="#26C7CD"/>
<path d="M13.1898 19.2011H13.231C13.2639 19.2532 13.2364 19.2587 13.2885 19.2669C13.1926 19.2011 13.3269 19.1819 13.231 19.1161H13.2611C13.2611 19.1161 13.2611 19.1243 13.2611 19.127C13.3242 19.1298 13.2008 19.064 13.2364 19.0393C13.2501 19.0311 13.2721 19.0338 13.2776 19.0475L13.2693 19.0064C13.2693 19.0064 13.2913 19.0119 13.2858 19.0201L13.3023 18.9762C13.3023 18.9762 13.2748 18.9351 13.2666 18.9214C13.2885 18.9214 13.2748 18.9323 13.2885 18.9378L13.2776 18.9022C13.3105 18.9076 13.3242 18.9433 13.3105 18.9543C13.4229 18.9954 13.2968 18.9214 13.3818 18.9104V18.9406C13.4476 18.9625 13.4366 18.9323 13.486 18.9296C13.4641 18.9241 13.3681 18.9241 13.3571 18.8857C13.3681 18.8857 13.379 18.8775 13.3653 18.8528C13.401 18.8747 13.401 18.8555 13.4092 18.8391L13.4558 18.8693C13.4531 18.8446 13.4284 18.8309 13.4119 18.8089C13.4284 18.7925 13.4668 18.8089 13.4997 18.8254C13.5244 18.8007 13.4284 18.8117 13.4421 18.7705C13.475 18.7568 13.4668 18.7267 13.4558 18.68C13.4832 18.6718 13.4832 18.6992 13.4997 18.702L13.4723 18.6636C13.4723 18.6636 13.486 18.6691 13.4915 18.6718C13.4832 18.6499 13.4449 18.6416 13.4449 18.6142C13.3955 18.5786 13.5463 18.6142 13.5024 18.5566C13.5189 18.5566 13.5299 18.5758 13.5491 18.5868C13.5299 18.5292 13.5381 18.5402 13.5024 18.4798L13.5491 18.4744C13.5024 18.4716 13.475 18.4223 13.4531 18.3811C13.4311 18.3784 13.4147 18.3729 13.4037 18.3729L13.3982 18.3263C13.3982 18.3263 13.4229 18.34 13.4394 18.3564C13.4366 18.351 13.4339 18.3482 13.4311 18.3455C13.4558 18.3455 13.4805 18.3674 13.4997 18.3893C13.4887 18.3893 13.475 18.3866 13.4641 18.3839C13.4887 18.4085 13.5162 18.436 13.5436 18.4497C13.5408 18.4442 13.5381 18.4387 13.5381 18.4305C13.5436 18.4387 13.5518 18.4415 13.5573 18.4442C13.5628 18.4442 13.5573 18.436 13.5463 18.425L13.6039 18.4497L13.5847 18.436L13.6423 18.414C13.6067 18.351 13.5436 18.2797 13.5518 18.2193C13.5847 18.255 13.6121 18.2605 13.6588 18.2879C13.6012 18.2714 13.6588 18.3372 13.6313 18.3564C13.645 18.3455 13.6642 18.3619 13.6697 18.3702L13.6533 18.2989C13.6889 18.3208 13.6862 18.3071 13.7081 18.3043C13.6286 18.2687 13.678 18.2413 13.667 18.2111C13.6917 18.2248 13.7163 18.244 13.6971 18.2632C13.7684 18.2714 13.6286 18.1809 13.6889 18.1837C13.6889 18.1892 13.6807 18.1892 13.6917 18.2001C13.678 18.1754 13.7136 18.1535 13.7301 18.1754V18.1809C13.7575 18.1508 13.7931 18.074 13.7355 18.0301C13.7438 18.0356 13.8068 18.0795 13.8206 18.0904L13.6478 17.8985C13.6971 17.9369 13.8397 17.9945 13.8507 18.0411C13.8644 18.0383 13.8781 18.0328 13.8699 18.0027C13.8589 18.0027 13.7849 17.9698 13.7822 17.9588C13.8562 17.9725 13.8233 17.9643 13.8919 17.967C13.8754 17.967 13.7986 17.9067 13.8068 17.8957C13.8178 17.9067 13.8919 17.9451 13.8973 17.9561L13.837 17.871C13.848 17.8875 13.9056 17.9149 13.933 17.9232C13.9138 17.9177 13.9522 17.8957 13.9494 17.882H13.922C13.9577 17.8546 13.8288 17.7751 13.8562 17.7394C13.8699 17.7559 13.9549 17.8162 13.9769 17.8025C13.9412 17.7668 13.7986 17.638 13.7876 17.5831L13.8151 17.5913L13.8041 17.5475C13.8562 17.605 13.9632 17.7339 13.9988 17.7888C14.0262 17.7888 14.029 17.8025 14.0399 17.7806C14.0674 17.786 14.0674 17.8135 14.0646 17.8217L14.1085 17.7806C14.0591 17.7531 14.0838 17.712 14.0399 17.6873L14.0591 17.7751C14.0098 17.7476 13.9385 17.6571 13.9686 17.627C13.9933 17.6297 14.0509 17.6901 14.0674 17.6983C14.0537 17.6818 14.0564 17.6434 14.0674 17.6489L14.0838 17.6818C14.114 17.6736 14.0372 17.6078 14.1003 17.616C14.1085 17.6105 14.1798 17.6325 14.1524 17.6133C14.0893 17.5913 13.9138 17.4844 13.8781 17.4487C13.8836 17.4487 13.9604 17.4405 13.9933 17.4487C14.0454 17.4652 14.0838 17.5365 14.1304 17.5475C14.1167 17.5392 14.1058 17.52 14.103 17.5145C14.1195 17.5145 14.1414 17.5447 14.1469 17.5228C14.1003 17.4871 14.1771 17.4899 14.1112 17.4871C14.1112 17.4597 14.1359 17.4734 14.1469 17.4515C14.1112 17.4378 14.0509 17.361 14.0509 17.3336C14.0619 17.3418 14.0811 17.35 14.0893 17.3527C14.1195 17.3198 14.1524 17.3144 14.1771 17.2814C14.1908 17.2869 14.2154 17.2814 14.2319 17.3006C14.2264 17.2897 14.2127 17.2732 14.2182 17.2623C14.273 17.2705 14.21 17.2897 14.2703 17.3089C14.2429 17.2869 14.2484 17.2568 14.2429 17.2293C14.1963 17.2047 14.21 17.2595 14.2182 17.2842C14.1579 17.2431 14.114 17.1745 14.1085 17.1197C14.114 17.0813 14.1551 17.1334 14.1496 17.1224C14.1963 17.0785 14.0783 17.0045 14.1496 16.9908C14.199 16.999 14.2264 17.0429 14.2566 17.0593C14.2566 17.0922 14.2072 17.0758 14.199 17.095L14.2292 17.0895C14.2374 17.1059 14.2346 17.1279 14.2182 17.1279C14.2621 17.1388 14.2867 17.0429 14.3471 17.0264C14.3389 17.01 14.3361 16.988 14.3142 16.9825V16.999C14.273 16.9908 14.284 16.9441 14.2593 16.9524C14.2511 16.9195 14.2292 16.8756 14.2648 16.8646L14.3114 16.8893C14.3114 16.8893 14.2758 16.8893 14.2813 16.903C14.2703 16.8811 14.3663 16.9085 14.3169 16.8564L14.2758 16.8509C14.2648 16.818 14.2346 16.7659 14.2648 16.7522C14.2154 16.733 14.2648 16.7604 14.2072 16.7412C14.2785 16.7714 14.1661 16.7933 14.2456 16.818C14.1771 16.7933 14.2017 16.829 14.1387 16.8125C14.1551 16.8235 14.1716 16.8235 14.1524 16.8372C14.1551 16.8399 14.1606 16.8454 14.1633 16.8509C14.1743 16.8509 14.1825 16.8509 14.1908 16.8564C14.2154 16.8893 14.1963 16.9167 14.2045 16.9387C14.1908 16.9441 14.1908 16.9222 14.1716 16.9167L14.1853 16.9496C14.1524 16.9277 14.1112 16.9414 14.1112 16.903L14.0948 16.9249C14.0674 16.9249 14.0482 16.9387 14.0537 16.9606C14.0399 16.9661 14.0701 17.0127 14.0537 16.9853L14.0482 17.0346L14.0399 17.0292C14.0125 17.0621 14.0399 17.1388 13.9577 17.1416C13.9577 17.1608 13.9577 17.18 13.9357 17.1937L13.9056 17.18C13.9056 17.2019 13.8452 17.2101 13.8699 17.2348C13.7822 17.2019 13.8014 17.3006 13.7712 17.3198L13.8068 17.3445C13.7931 17.361 13.7904 17.3884 13.7904 17.4213L13.8233 17.4405C13.837 17.4789 13.7684 17.4789 13.752 17.5145C13.741 17.5036 13.7493 17.4981 13.7602 17.4981C13.6615 17.4899 13.763 17.6133 13.6889 17.616C13.6944 17.6325 13.6889 17.6352 13.6752 17.638C13.6752 17.638 13.6752 17.638 13.6752 17.6352C13.6752 17.6352 13.6752 17.6352 13.6725 17.638C13.6642 17.638 13.656 17.638 13.6478 17.638C13.6588 17.638 13.667 17.638 13.6725 17.638C13.6697 17.6462 13.667 17.6571 13.6697 17.6736L13.6313 17.6571C13.6313 17.6571 13.6313 17.6571 13.6313 17.6599C13.6121 17.6599 13.6423 17.6791 13.6725 17.6901C13.6752 17.6983 13.6807 17.7065 13.6862 17.7175C13.6231 17.6901 13.6889 17.7559 13.6204 17.7284C13.645 17.7531 13.6121 17.7943 13.6697 17.8381C13.6615 17.8327 13.656 17.8327 13.6588 17.8272C13.645 17.8327 13.6313 17.8409 13.6423 17.8628L13.5929 17.8409L13.6396 17.9012C13.6039 17.9012 13.5847 17.8957 13.5573 17.8601C13.5902 17.9286 13.5573 17.9012 13.5929 17.9643L13.5655 17.9451C13.5655 17.9451 13.5875 17.9972 13.56 17.989C13.4887 17.9807 13.4778 18.1041 13.39 18.1371C13.4832 18.1754 13.3352 18.1425 13.3982 18.1864C13.3763 18.1782 13.3598 18.1809 13.3489 18.159C13.3489 18.2029 13.2885 18.1864 13.3324 18.244C13.3105 18.2358 13.305 18.2193 13.2913 18.2166C13.294 18.2221 13.3023 18.2385 13.2913 18.233C13.2776 18.2303 13.2776 18.2193 13.2693 18.2084C13.2529 18.244 13.316 18.2851 13.3736 18.3208C13.3352 18.3208 13.3352 18.3318 13.3653 18.3674C13.3434 18.3619 13.316 18.3592 13.3214 18.3345C13.3105 18.3455 13.2529 18.3866 13.2995 18.4168C13.2858 18.414 13.2858 18.4305 13.2913 18.436C13.2721 18.4606 13.2666 18.4606 13.2584 18.4881H13.2693C13.3214 18.5292 13.2693 18.5128 13.2639 18.5374H13.2584C13.1898 18.5566 13.2666 18.5649 13.1926 18.5841L13.2282 18.6033C13.3023 18.6526 13.1597 18.617 13.1734 18.6608H13.198C13.2145 18.6937 13.0692 18.6416 13.0527 18.6499C13.0445 18.6499 13.0445 18.6389 13.0417 18.6307C12.9732 18.6416 13.0856 18.6636 13.0774 18.6965C13.05 18.6855 13.0171 18.6526 13.0006 18.6691C12.9732 18.6663 13.0472 18.7733 12.9841 18.7678C13.0061 18.7733 13.028 18.7788 13.0362 18.8007C13.0308 18.8254 12.9293 18.8117 12.9787 18.8638C12.9704 18.8638 12.9649 18.861 12.9622 18.8583C12.9677 18.883 12.9567 18.9241 12.9841 18.9543C12.8553 18.8939 12.9841 19.0859 12.8745 19.0146L12.8525 19.064L12.8415 19.0557C12.8169 19.0804 12.8361 19.1078 12.8553 19.1353C12.8443 19.1353 12.8361 19.127 12.8306 19.1216C12.7812 19.1517 12.784 19.1572 12.8169 19.2312L12.7785 19.212C12.7922 19.2367 12.6825 19.2395 12.6962 19.308C12.6935 19.3053 12.6852 19.2998 12.6825 19.2916C12.688 19.3272 12.6441 19.3409 12.6139 19.3546C12.6002 19.3601 12.5838 19.3738 12.5892 19.3793C12.592 19.3876 12.6057 19.4013 12.6331 19.4287C12.6331 19.4287 12.6496 19.4726 12.6468 19.4753C12.677 19.4534 12.6935 19.5274 12.7209 19.5329C12.7154 19.5576 12.6633 19.5329 12.6688 19.511H12.677C12.6249 19.4479 12.6331 19.5274 12.6002 19.4781C12.5865 19.5027 12.5646 19.5164 12.5454 19.5219C12.5262 19.5274 12.5125 19.5274 12.5015 19.5411L12.5125 19.6371L12.5015 19.6481C12.4988 19.6289 12.496 19.5713 12.5015 19.5658C12.496 19.511 12.4933 19.6316 12.4933 19.6563C12.4796 19.6316 12.496 19.5219 12.4933 19.5247V19.5384L12.4905 19.5494C12.4878 19.5987 12.485 19.6508 12.4768 19.6563C12.4713 19.6261 12.4768 19.5823 12.4768 19.574C12.4768 19.5658 12.4768 19.5631 12.4768 19.5685L12.4658 19.5466V19.6371C12.4521 19.6728 12.4466 19.6152 12.4439 19.7194C12.4439 19.6371 12.4357 19.6097 12.422 19.5932C12.411 19.574 12.3973 19.5685 12.4 19.5466C12.3753 19.5823 12.3644 19.5631 12.3589 19.5411C12.3534 19.5576 12.3232 19.6234 12.3178 19.596C12.3945 19.4808 12.3342 19.5137 12.3891 19.4287C12.3534 19.4863 12.3616 19.4068 12.3095 19.4781C12.3095 19.4589 12.3424 19.4451 12.3589 19.4177C12.337 19.4205 12.3342 19.3985 12.3397 19.3821C12.3452 19.3684 12.3452 19.33 12.326 19.3053C12.3123 19.3108 12.2931 19.3272 12.2684 19.3245L12.326 19.2669C12.326 19.2669 12.241 19.2888 12.2794 19.2477C12.2684 19.2559 12.2519 19.2669 12.2465 19.2614C12.2602 19.1901 12.219 19.1353 12.1889 19.0777C12.1587 19.0201 12.1285 18.9598 12.1614 18.8638C12.1422 18.8939 12.1368 18.883 12.1285 18.872C12.1285 18.883 12.0956 18.8885 12.0792 18.8994C12.0792 18.8994 12.0847 18.8802 12.0901 18.861C12.0956 18.8418 12.0984 18.8226 12.0984 18.8226C12.0435 18.8418 12.0627 18.7705 12.0134 18.7952L12.0298 18.8062C11.964 18.8199 11.9256 18.9104 11.8516 18.9488C11.8872 18.9406 11.8735 18.968 11.8625 18.9927C11.8516 19.0173 11.8406 19.042 11.8954 19.0365C11.8845 19.053 11.868 19.042 11.8543 19.0557C11.89 19.0475 11.9009 19.0557 11.8982 19.0832H11.89C11.9256 19.1353 11.9037 19.1737 11.9092 19.2477L11.9448 19.2285C11.9448 19.245 11.9338 19.2532 11.9283 19.2642C11.9914 19.2559 11.9146 19.223 11.9859 19.212C11.9174 19.2614 12.0243 19.3135 11.9421 19.3629C11.9503 19.3848 11.9832 19.3382 11.9914 19.3629L11.9695 19.3766L12.0024 19.3711C12.0024 19.3876 11.975 19.4068 11.9558 19.415C11.9558 19.4095 11.9475 19.4068 11.9421 19.404C11.9229 19.4342 11.9722 19.4534 11.9667 19.4643L11.9722 19.4369C11.9722 19.4369 11.9914 19.4643 11.9996 19.4835C12.0106 19.5055 12.0188 19.5247 12.0271 19.5466C12.0518 19.596 12.0764 19.6508 12.1176 19.67L12.1285 19.6508C12.1861 19.681 12.1395 19.7139 12.1861 19.766H12.1834C12.2026 19.766 12.2163 19.7715 12.2245 19.7907C12.2026 19.7962 12.2163 19.8647 12.1916 19.8675C12.2519 19.8894 12.23 19.8675 12.2876 19.8263L12.2794 19.8702C12.3013 19.851 12.3068 19.8346 12.326 19.851C12.3013 19.862 12.3205 19.9251 12.2903 19.9415C12.2986 20.0101 12.3232 20.0128 12.3397 20.0155C12.3589 20.0155 12.3699 20.0155 12.3726 20.0978C12.4137 20.0073 12.3424 19.9854 12.3589 19.9744C12.3589 19.9278 12.3918 19.9113 12.4028 19.936C12.4137 19.9525 12.4055 20.117 12.4494 20.1636C12.4466 20.1581 12.4439 20.1664 12.4412 20.1636C12.4466 20.1883 12.4549 20.1911 12.4631 20.1856C12.4713 20.1664 12.4796 20.1499 12.4878 20.1664C12.496 20.0759 12.5097 20.139 12.5097 20.043L12.4768 20.1088C12.4988 20.0567 12.507 19.9278 12.5371 19.9442C12.5371 19.9662 12.5317 19.9991 12.5262 20.021C12.5371 20.0347 12.5399 19.9799 12.5536 19.9964C12.5591 20.0896 12.5152 20.0677 12.496 20.1691C12.507 20.1938 12.5344 20.0457 12.5289 20.1609C12.5344 20.0868 12.5426 20.0786 12.5536 20.0704C12.5646 20.0649 12.581 20.0567 12.5865 19.9964L12.592 20.0485C12.592 20.0485 12.6002 19.9991 12.6084 19.9909V20.0731C12.6167 19.9909 12.6605 20.0622 12.6797 20.0018C12.6304 20.0649 12.6523 19.9607 12.6276 19.9525C12.6605 19.8263 12.6907 20.0293 12.7538 19.9223C12.7456 19.9415 12.7099 19.9415 12.7154 19.9059C12.7291 19.8976 12.7538 19.8921 12.773 19.9031C12.8114 19.84 12.7456 19.8729 12.751 19.8263C12.7894 19.8538 12.7593 19.7825 12.7675 19.7468L12.7922 19.7825C12.8525 19.7441 12.751 19.7002 12.8086 19.6728C12.8086 19.6728 12.8141 19.6892 12.8196 19.7057C12.8251 19.7221 12.8306 19.7386 12.8306 19.7386L12.8415 19.7002L12.869 19.7386C12.869 19.681 12.8799 19.681 12.9156 19.6563C12.8882 19.6453 12.8607 19.6069 12.8772 19.5823C12.9074 19.5823 12.9046 19.6124 12.9183 19.5823C12.9348 19.6042 12.9622 19.6234 12.9156 19.6207C12.9266 19.6289 12.9293 19.6453 12.9403 19.6536C12.9841 19.6453 12.9759 19.6152 12.9841 19.6042C12.9814 19.6069 12.9759 19.6097 12.9677 19.6097L12.9485 19.5384C12.9649 19.5384 12.9732 19.5521 12.9787 19.5631C12.9787 19.5521 12.9677 19.5356 12.9732 19.5219C12.9979 19.5439 13.028 19.5631 13.0308 19.5877L13.0253 19.5302C13.039 19.5356 13.0719 19.5302 13.0801 19.5439C13.113 19.5329 13.0609 19.4561 13.0993 19.4424C13.0938 19.4369 13.0911 19.4314 13.0911 19.4232C13.113 19.4013 13.1624 19.3985 13.1432 19.3437L13.2063 19.3574C13.209 19.3245 13.1267 19.3409 13.1322 19.2888C13.1322 19.2504 13.1816 19.3053 13.2035 19.3053C13.1871 19.2751 13.1487 19.2175 13.209 19.2148C13.2118 19.2285 13.2008 19.2312 13.2008 19.2422L13.1898 19.2011ZM13.3544 18.8802C13.3544 18.8802 13.3736 18.9159 13.3489 18.9076C13.3132 18.8775 13.3352 18.883 13.3544 18.8802ZM13.5463 18.3647C13.5463 18.3647 13.5463 18.3784 13.5271 18.3784C13.5271 18.3702 13.5326 18.3647 13.5463 18.3647ZM14.1085 16.9359C14.0866 16.9414 14.0948 16.9414 14.1085 16.9359V16.9359ZM14.1414 16.9195C14.1414 16.9195 14.1332 16.9112 14.1277 16.9085C14.1359 16.9167 14.1304 16.9222 14.125 16.9277C14.1359 16.9332 14.1441 16.9332 14.1414 16.9195ZM12.4713 19.5768V19.5987C12.4658 19.6152 12.4713 19.5987 12.4713 19.5768Z" fill="#26C7CD"/>
<path d="M13.563 18.4467C13.563 18.4467 13.5492 18.4412 13.541 18.4385C13.5465 18.444 13.552 18.4494 13.563 18.4467Z" fill="#26C7CD"/>
<path d="M13.0908 19.4014C13.0908 19.4014 13.094 19.4045 13.0971 19.4077L13.0908 19.4014Z" fill="#26C7CD"/>
<path d="M14.1555 17.5229C14.1555 17.5229 14.1391 17.5229 14.1309 17.5229C14.1391 17.5284 14.1473 17.5312 14.1555 17.5229Z" fill="#26C7CD"/>
<path d="M14.18 16.7386V16.7605C14.18 16.7605 14.191 16.7523 14.1992 16.7523C14.191 16.7468 14.1773 16.7413 14.18 16.7358V16.7386Z" fill="#26C7CD"/>
<path d="M14.492 16.7441C14.492 16.7441 14.4948 16.7386 14.492 16.7331L14.4756 16.7222C14.4756 16.7222 14.4756 16.7496 14.492 16.7441Z" fill="#26C7CD"/>
<path d="M14.3029 16.8044C14.3331 16.8236 14.3303 16.8044 14.3331 16.7907C14.2947 16.7578 14.3002 16.7797 14.3056 16.8017L14.3029 16.8044Z" fill="#26C7CD"/>
<path d="M14.336 16.7877C14.336 16.7877 14.3388 16.7795 14.3443 16.7767C14.3278 16.763 14.336 16.7767 14.336 16.7877Z" fill="#26C7CD"/>
<path d="M14.1437 16.8727C14.1437 16.8727 14.1108 16.8425 14.1246 16.848C14.0916 16.8151 14.141 16.9166 14.1437 16.8727Z" fill="#26C7CD"/>
<path d="M14.4046 16.8618L14.3662 16.8398L14.3909 16.8673L14.4046 16.8618Z" fill="#26C7CD"/>
<path d="M14.3146 16.9358L14.3365 16.9248C14.3365 16.9248 14.3283 16.9166 14.3283 16.9111C14.3173 16.9221 14.3036 16.9303 14.3146 16.9358Z" fill="#26C7CD"/>
<path d="M14.3281 16.9113C14.3281 16.9113 14.3364 16.9003 14.3336 16.8921C14.3336 16.8948 14.3281 16.9031 14.3281 16.9113Z" fill="#26C7CD"/>
<path d="M14.396 16.8945H14.385L14.374 16.9055L14.396 16.8945Z" fill="#26C7CD"/>
<path d="M14.166 17.1304V17.1578C14.166 17.1578 14.1852 17.1688 14.1852 17.1578C14.1797 17.1468 14.1825 17.1359 14.166 17.1304Z" fill="#26C7CD"/>
<path d="M14.3063 17.136C14.3063 17.136 14.2871 17.1305 14.2734 17.125L14.3173 17.1552L14.3063 17.1332V17.136Z" fill="#26C7CD"/>
<path d="M14.2734 17.2047C14.2734 17.2047 14.2871 17.2595 14.3036 17.2321C14.2926 17.2211 14.2954 17.1937 14.2734 17.2047Z" fill="#26C7CD"/>
<path d="M14.0098 17.4759L14.0125 17.4704L13.9385 17.4238L14.0098 17.4759Z" fill="#26C7CD"/>
<path d="M14.0154 17.868C14.0483 17.8543 13.9742 17.8324 14.0099 17.8241C13.9962 17.8077 13.9797 17.8296 13.9688 17.8159C13.977 17.8433 13.9633 17.8433 14.0154 17.868Z" fill="#26C7CD"/>
<path d="M13.9654 17.816C13.9654 17.816 13.9627 17.8077 13.96 17.8022C13.96 17.8105 13.9627 17.8132 13.9654 17.816Z" fill="#26C7CD"/>
<path d="M12.1153 18.7348L12.118 18.7046L12.1016 18.7348H12.1153Z" fill="#26C7CD"/>
<path d="M12.0377 18.7349L12.0816 18.6992L12.0322 18.7157C12.0322 18.7157 12.0459 18.7239 12.0377 18.7349Z" fill="#26C7CD"/>
<path d="M13.481 18.8938L13.47 18.8856C13.4563 18.8801 13.4508 18.8856 13.4453 18.8911H13.481V18.8938Z" fill="#26C7CD"/>
<path d="M13.3075 19.0942L13.3103 19.0915L13.2637 19.0723L13.3075 19.0942Z" fill="#26C7CD"/>
<path d="M13.247 19.316C13.247 19.316 13.247 19.2941 13.2552 19.2886C13.2552 19.3105 13.1922 19.2858 13.247 19.316Z" fill="#26C7CD"/>
<path d="M27.8335 6.62744H12.5176V9.42736H27.8335V6.62744Z" fill="#545454"/>
</g>
<defs>
<clipPath id="clip0_6552_28520">
<rect width="26" height="37.3944" fill="white" transform="translate(7 1)"/>
</clipPath>
</defs>
</svg>
