<svg width="16" height="16" viewBox="0 0 16 16" fill="none" xmlns="http://www.w3.org/2000/svg">
<path d="M10.1144 4.66661L5.72369 9.05728C5.59634 9.18028 5.49476 9.3274 5.42489 9.49007C5.35501 9.65275 5.31823 9.82771 5.31669 10.0047C5.31515 10.1818 5.34888 10.3574 5.41593 10.5212C5.48297 10.6851 5.58197 10.8339 5.70716 10.9591C5.83235 11.0843 5.98122 11.1833 6.14508 11.2504C6.30894 11.3174 6.48452 11.3512 6.66156 11.3496C6.8386 11.3481 7.01355 11.3113 7.17623 11.2414C7.3389 11.1715 7.48602 11.07 7.60902 10.9426L11.885 6.55195C12.3708 6.04901 12.6396 5.3754 12.6335 4.67621C12.6274 3.97702 12.347 3.30819 11.8525 2.81376C11.3581 2.31934 10.6893 2.03889 9.99009 2.03282C9.2909 2.02674 8.61729 2.29552 8.11435 2.78128L3.83769 7.17128C3.08748 7.92149 2.66602 8.93899 2.66602 9.99995C2.66602 11.0609 3.08748 12.0784 3.83769 12.8286C4.5879 13.5788 5.6054 14.0003 6.66635 14.0003C7.72731 14.0003 8.74481 13.5788 9.49502 12.8286L13.6664 8.66661" stroke="#232325" stroke-linecap="round" stroke-linejoin="round"/>
</svg>
