<svg width="9" height="10" viewBox="0 0 9 10" fill="none" xmlns="http://www.w3.org/2000/svg">
<path d="M0.821733 10V0.545454H4.60724C5.30279 0.545454 5.88293 0.648556 6.34766 0.854758C6.81238 1.06096 7.1617 1.34718 7.3956 1.71342C7.6295 2.07659 7.74645 2.49515 7.74645 2.96911C7.74645 3.33842 7.67259 3.66312 7.52486 3.94318C7.37713 4.22017 7.17401 4.44792 6.91548 4.62642C6.66004 4.80185 6.36766 4.92649 6.03835 5.00035V5.09268C6.39844 5.10807 6.73544 5.20964 7.04936 5.39737C7.36636 5.58511 7.62334 5.84825 7.82031 6.18679C8.01728 6.52225 8.11577 6.92235 8.11577 7.38707C8.11577 7.88873 7.99112 8.33653 7.74183 8.73047C7.49562 9.12133 7.13092 9.43063 6.64773 9.65838C6.16454 9.88613 5.56901 10 4.86115 10H0.821733ZM2.82067 8.36577H4.45028C5.00734 8.36577 5.41359 8.25959 5.66903 8.04723C5.92448 7.83179 6.0522 7.54557 6.0522 7.18857C6.0522 6.92696 5.98911 6.69614 5.86293 6.49609C5.73674 6.29605 5.5567 6.13909 5.3228 6.02521C5.09197 5.91134 4.81652 5.8544 4.49645 5.8544H2.82067V8.36577ZM2.82067 4.50178H4.30256C4.57647 4.50178 4.8196 4.45407 5.03196 4.35866C5.2474 4.26018 5.41667 4.12169 5.53977 3.94318C5.66596 3.76468 5.72905 3.55078 5.72905 3.30149C5.72905 2.95987 5.60748 2.68442 5.36435 2.47514C5.12429 2.26586 4.78267 2.16122 4.33949 2.16122H2.82067V4.50178Z" fill="#232325"/>
</svg>
