<svg width="9" height="11" viewBox="0 0 9 11" fill="none" xmlns="http://www.w3.org/2000/svg">
<path d="M6.31534 2.90909C6.25994 2.44129 6.03527 2.07812 5.64134 1.8196C5.2474 1.56108 4.7642 1.43182 4.19176 1.43182C3.7732 1.43182 3.40696 1.49953 3.09304 1.63494C2.7822 1.77036 2.53906 1.95656 2.36364 2.19354C2.19129 2.43052 2.10511 2.69981 2.10511 3.00142C2.10511 3.25379 2.16513 3.47076 2.28516 3.65234C2.40826 3.83085 2.56522 3.98011 2.75604 4.10014C2.94685 4.21709 3.1469 4.31404 3.35618 4.39098C3.56546 4.46484 3.75781 4.52486 3.93324 4.57102L4.89347 4.82955C5.13968 4.89418 5.41359 4.98343 5.7152 5.0973C6.01989 5.21117 6.31072 5.3666 6.58771 5.56357C6.86778 5.75746 7.0986 6.00675 7.28019 6.31143C7.46177 6.61612 7.55256 6.99006 7.55256 7.43324C7.55256 7.94413 7.41868 8.40578 7.15092 8.81818C6.88625 9.23059 6.49846 9.55836 5.98757 9.80149C5.47976 10.0446 4.86269 10.1662 4.13636 10.1662C3.45928 10.1662 2.87299 10.0569 2.37749 9.83842C1.88506 9.61991 1.49728 9.31522 1.21413 8.92436C0.934067 8.5335 0.775568 8.07955 0.738636 7.5625H1.92045C1.95123 7.91951 2.07126 8.21496 2.28054 8.44886C2.4929 8.67969 2.76065 8.85204 3.08381 8.96591C3.41004 9.0767 3.76089 9.1321 4.13636 9.1321C4.57339 9.1321 4.96579 9.06132 5.31357 8.91974C5.66134 8.77509 5.93679 8.57505 6.13992 8.3196C6.34304 8.06108 6.4446 7.75947 6.4446 7.41477C6.4446 7.10085 6.35689 6.84541 6.18146 6.64844C6.00604 6.45147 5.77521 6.29143 5.48899 6.16832C5.20277 6.04522 4.89347 5.9375 4.56108 5.84517L3.39773 5.51278C2.65909 5.30043 2.07434 4.99728 1.64347 4.60334C1.21259 4.2094 0.997159 3.69389 0.997159 3.05682C0.997159 2.52746 1.14027 2.06581 1.42649 1.67188C1.71579 1.27486 2.10357 0.967092 2.58984 0.748579C3.07919 0.526988 3.62547 0.416193 4.22869 0.416193C4.83807 0.416193 5.37973 0.525449 5.85369 0.743963C6.32765 0.959398 6.70313 1.25485 6.98011 1.63033C7.26018 2.0058 7.40791 2.43205 7.4233 2.90909H6.31534Z" fill="#232325"/>
<path d="M0 5.74361H8.29119V6.62997H0V5.74361Z" fill="#232325"/>
</svg>
