<svg width="16" height="16" viewBox="0 0 16 16" fill="none" xmlns="http://www.w3.org/2000/svg">
<path d="M4.66667 2.6665V13.3332M11.3333 2.6665V13.3332M2 5.33317H4.66667M11.3333 5.33317H14M2 7.99984H14M2 10.6665H4.66667M11.3333 10.6665H14M2.66667 13.3332H13.3333C13.5101 13.3332 13.6797 13.2629 13.8047 13.1379C13.9298 13.0129 14 12.8433 14 12.6665V3.33317C14 3.15636 13.9298 2.98679 13.8047 2.86177C13.6797 2.73674 13.5101 2.6665 13.3333 2.6665H2.66667C2.48986 2.6665 2.32029 2.73674 2.19526 2.86177C2.07024 2.98679 2 3.15636 2 3.33317V12.6665C2 12.8433 2.07024 13.0129 2.19526 13.1379C2.32029 13.2629 2.48986 13.3332 2.66667 13.3332Z" stroke="#232325" stroke-linecap="round" stroke-linejoin="round"/>
</svg>
