<svg width="414" height="455" viewBox="0 0 414 455" fill="none" xmlns="http://www.w3.org/2000/svg">
<path d="M401.829 266.23C394.46 250.327 383.725 236.223 370.369 224.899C360.753 216.998 350.134 210.41 338.79 205.308C348.25 197.451 356.309 188.039 362.623 177.475C373.158 159.658 378.638 139.295 378.472 118.584C378.633 96.4479 372.472 74.7282 360.717 55.9892C349.107 37.1609 332.011 22.3586 311.739 13.5827C285.126 3.50092 256.746 -1.05098 228.323 0.203678H132.99C118.757 0.235313 105.117 5.92528 95.0639 16.0252C85.0107 26.1252 79.3648 39.8102 79.3648 54.0779V249.029C90.7083 238.664 102.645 228.972 115.115 220.001C125.81 212.092 136.994 204.87 148.6 198.38V69.0098H247.032C263.227 68.6179 279.153 73.2032 292.673 82.1498C297.893 86.4802 302.025 91.9793 304.737 98.2039C307.448 104.429 308.663 111.205 308.283 117.986C308.449 129.438 304.986 140.647 298.392 150C296.291 153.089 293.853 155.933 291.124 158.482C285.419 164.074 278.651 168.462 271.223 171.383C263.532 174.183 255.528 176.028 247.389 176.878V177.594C230.553 180.897 214.043 185.694 198.054 191.929C183.24 197.406 168.791 203.83 154.797 211.161L148.958 214.625C137.352 221.116 126.167 228.338 115.472 236.247C102.974 245.18 91.0351 254.874 79.7223 265.274C68.6196 275.623 58.1909 286.675 48.5007 298.363C32.5416 317.545 18.5298 338.273 6.67329 360.241C4.40913 364.541 2.02583 368.842 0 373.381L11.9166 379.832C28.8219 357.601 48.3932 337.541 70.189 320.104L79.9606 312.817V454.849H262.047C302.421 456.632 341.891 442.529 372.037 415.549C385.509 403.25 396.216 388.219 403.448 371.455C410.68 354.69 414.271 336.575 413.984 318.312C413.738 300.275 409.591 282.505 401.829 266.23ZM331.044 354.746C323.909 365.452 313.741 373.773 301.848 378.637C283.909 384.563 265.078 387.312 246.198 386.76H147.766V273.995C156.942 270.172 166.595 267.186 175.77 263.841C188.292 260.246 201.028 257.453 213.904 255.479C224.575 253.65 235.372 252.652 246.198 252.493C256.208 252.493 266.218 252.493 276.108 252.493L282.544 253.807C299.545 257.137 315.013 265.896 326.635 278.773C336.711 290.341 342.184 305.225 342.007 320.582C341.933 332.827 338.106 344.754 331.044 354.746Z" fill="#2FAED9" fill-opacity="0.2"/>
</svg>
