<svg width="241" height="30" viewBox="0 0 241 30" fill="none" xmlns="http://www.w3.org/2000/svg">
<g clip-path="url(#clip0_3179_6226)">
<path d="M14.2548 28.5183C22.1225 28.5183 28.5097 22.1402 28.5097 14.2662C28.5097 6.39228 22.1296 0 14.2548 0C6.38014 0 0 6.38523 0 14.2592C0 22.1331 6.38014 28.5113 14.2548 28.5113" fill="#BE0738"/>
<path d="M13.6838 8.00122V20.5177H17.66V19.3888H14.833V8.00122H13.6838Z" fill="white"/>
<path d="M9.70741 11.4158C10.6521 11.4158 11.4135 10.6468 11.4135 9.70838C11.4135 8.77 10.6521 7.9939 9.70741 7.9939C8.76273 7.9939 8.00134 8.76295 8.00134 9.70838C8.00134 10.6538 8.76273 11.4158 9.70741 11.4158Z" fill="white"/>
<path d="M14.8329 2.3283C14.6848 2.3283 14.4029 2.31418 14.2619 2.31418C7.67727 2.31418 2.32642 7.67637 2.32642 14.2521C2.32642 17.4482 3.56719 20.4468 5.8161 22.6975C8.07206 24.9482 11.0683 26.19 14.2619 26.19C17.4554 26.19 20.4375 24.9482 22.6935 22.6975C24.9495 20.4468 26.1973 17.4482 26.1973 14.2521V13.7229H17.674V14.8236H25.0623C25.0623 14.8236 25.0623 14.9647 25.0623 14.9929C24.6886 20.6232 19.9934 25.0752 14.276 25.0752C11.3785 25.0752 8.66425 23.9464 6.62684 21.9003C4.57533 19.8612 3.44735 17.1519 3.44735 14.245C3.44735 11.3382 4.57533 8.63592 6.62684 6.58982C8.6713 4.54372 11.3855 3.4219 14.276 3.4219C14.4029 3.4219 14.706 3.4219 14.847 3.4219V2.30713L14.8329 2.3283Z" fill="white"/>
<path d="M39.0574 5.07495H34.7711V23.645H47.9403V20.0256H39.0574V5.07495Z" fill="#706F6F"/>
<path d="M57.3733 16.5686H60.863V19.8142C60.2214 20.0611 58.9666 20.308 57.7681 20.308C53.9118 20.308 52.6217 18.3466 52.6217 14.3603C52.6217 10.3739 53.8484 8.32074 57.7046 8.32074C59.8478 8.32074 61.0745 8.99807 62.0826 10.2822L64.7475 7.83392C63.126 5.5056 60.2778 4.80005 57.613 4.80005C51.6135 4.80005 48.4552 8.08086 48.4552 14.332C48.4552 20.5832 51.3033 23.9275 57.5848 23.9275C60.4611 23.9275 63.2811 23.1937 64.8109 22.1213V13.1114H57.3662V16.5757L57.3733 16.5686Z" fill="#706F6F"/>
<path d="M75.1106 15.6934H83.1122V12.5467H75.1106V8.29924H83.3872V5.12427H71.2966V23.6732H83.6974V20.4488H75.1106V15.6934Z" fill="#706F6F"/>
<path d="M92.9256 10.4727C91.4945 10.4727 89.9576 10.8325 88.8367 11.5733V10.7831H85.1848V23.6735H88.8931V14.1839C89.3513 13.8522 90.2748 13.5206 91.0433 13.5206C92.8551 13.5206 93.2428 14.2332 93.2428 15.6726V23.6806H96.9511V14.7765C96.9511 12.1942 96.0275 10.4797 92.9397 10.4797L92.9256 10.4727Z" fill="#706F6F"/>
<path d="M118.792 10.4446C117.614 10.4446 116.084 11.009 115.365 11.8274V10.7762H111.784V23.6666H115.492V14.7907C116.134 13.9723 117.304 13.4573 118.51 13.4573C119.172 13.4573 119.913 13.6336 120.321 13.8665L121.167 10.8749C120.603 10.5716 119.659 10.4375 118.792 10.4375V10.4446Z" fill="#706F6F"/>
<path d="M104.783 10.4441C100.666 10.4441 98.5232 12.8994 98.5232 17.1468C98.5232 21.6482 100.159 23.9765 104.967 23.9765C107.244 23.9765 109.338 23.2851 110.332 22.6219L109.641 20.1948C108.541 20.7592 106.934 21.1685 105.629 21.1685C104.325 21.1685 103.352 20.7875 102.943 20.35C102.457 19.8138 102.231 18.946 102.231 18.0499H110.564V16.8999C110.564 13.2169 108.901 10.4511 104.791 10.4511L104.783 10.4441ZM102.224 15.6652C102.274 13.8731 103.148 13.0052 104.678 13.0052C106.208 13.0052 106.898 14.1059 106.898 15.6652H102.224Z" fill="#706F6F"/>
<path d="M129.832 11.2625C129.169 10.8039 127.914 10.4441 126.842 10.4441C122.218 10.4441 120.787 13.358 120.787 17.6548C120.787 21.4648 122.5 23.9695 126.405 23.9695C127.428 23.9695 128.556 23.8425 129.239 23.6097V24.7597C129.239 26.7564 128.111 27.4196 125.968 27.4196C124.636 27.4196 123.339 27.0104 122.775 26.7L121.908 29.3599C122.93 29.8749 124.438 30.2559 126.201 30.2559C130.008 30.2559 132.976 28.5697 132.976 23.9907V10.7051H130.036L129.832 11.2696V11.2625ZM129.218 21.0132C128.859 21.1402 128.295 21.2178 127.738 21.2178C125.743 21.2178 124.544 20.2724 124.544 17.302C124.544 14.3317 125.595 13.2381 127.639 13.2381C128.224 13.2381 128.788 13.3651 129.225 13.5697V21.0132H129.218Z" fill="#706F6F"/>
<path d="M141.309 19.3483H140.823L138.087 10.7759H134.153L139.342 23.6945C138.574 26.4532 137.551 26.9683 135.634 26.9683C135.253 26.9683 134.894 26.94 134.64 26.8906L134.203 29.7834C134.788 29.9386 135.479 29.9598 136.148 29.9598C139.525 29.9598 141.133 28.2241 142.409 24.7669L147.548 10.7759H143.868L141.309 19.3483Z" fill="#706F6F"/>
<path d="M236.799 10.4727C235.368 10.4727 233.831 10.8325 232.71 11.5733V10.7831H229.059V23.6735H232.767V14.1839C233.225 13.8522 234.149 13.5206 234.917 13.5206C236.729 13.5206 237.117 14.2332 237.117 15.6726V23.6806H240.825V14.7765C240.825 12.1942 239.901 10.4797 236.813 10.4797L236.799 10.4727Z" fill="#706F6F"/>
<path d="M161.761 13.6193C161.07 13.3371 159.765 12.9279 159.075 12.7233C156.776 12.0812 155.521 11.4956 155.521 9.98575C155.521 8.86392 156.262 7.98904 158.793 7.98904C160.604 7.98904 162.395 8.60287 163.622 9.32253L164.954 6.35216C163.213 5.32911 160.583 4.84229 158.715 4.84229C153.78 4.84229 151.51 7.0436 151.51 10.1904C151.51 12.8997 153.554 14.5365 155.775 15.4114C156.875 15.8206 158.102 16.2299 159.018 16.4839C160.499 16.8931 161.091 17.6127 161.091 18.6358C161.091 19.9128 160.195 20.6819 157.848 20.6819C155.958 20.6819 154.14 20.0398 152.631 19.172L151.228 22.2905C153.146 23.3912 155.726 23.9768 157.876 23.9768C162.48 23.9768 165.159 21.6767 165.159 18.4806C165.159 15.4608 163.551 14.3884 161.761 13.6193Z" fill="#706F6F"/>
<path d="M173.033 10.4446C168.331 10.4446 166.336 12.667 166.336 17.1684C166.336 21.3876 167.767 23.97 172.498 23.97C177.228 23.97 179.223 21.7969 179.223 17.2954C179.223 12.794 177.792 10.4375 173.04 10.4375L173.033 10.4446ZM172.575 21.2889C170.629 21.2889 170.094 19.779 170.094 17.1967C170.094 14.2827 170.707 13.1256 172.956 13.1256C175.028 13.1256 175.458 14.6637 175.458 17.0626C175.458 20.033 174.894 21.2818 172.568 21.2818L172.575 21.2889Z" fill="#706F6F"/>
<path d="M221.833 10.4446C217.13 10.4446 215.135 12.667 215.135 17.1684C215.135 21.3876 216.566 23.97 221.297 23.97C226.027 23.97 228.022 21.7969 228.022 17.2954C228.022 12.794 226.591 10.4375 221.84 10.4375L221.833 10.4446ZM221.374 21.2889C219.429 21.2889 218.893 19.779 218.893 17.1967C218.893 14.2827 219.506 13.1256 221.755 13.1256C223.828 13.1256 224.258 14.6637 224.258 17.0626C224.258 20.033 223.694 21.2818 221.367 21.2818L221.374 21.2889Z" fill="#706F6F"/>
<path d="M184.348 5.04712H180.619V23.6666H184.348V5.04712Z" fill="#706F6F"/>
<path d="M214 10.7759H210.292V23.6663H214V10.7759Z" fill="#706F6F"/>
<path d="M214.028 4.99731H210.271V7.98885H214.028V4.99731Z" fill="#706F6F"/>
<path d="M206.069 20.9358C204.842 20.9358 204.391 20.5266 204.391 18.8897V13.6968H208.621V10.7829H204.391V7.68555L200.81 8.39815V10.7759H198.631V13.6686H200.81V19.3483C200.81 22.749 201.839 23.9767 204.744 23.9767C206.372 23.9767 207.923 23.6169 209.129 22.9537L208.6 20.2937C207.825 20.7029 206.795 20.9358 206.069 20.9358Z" fill="#706F6F"/>
<path d="M194.021 20.2161C193.696 20.4984 192.815 20.9287 191.941 20.9287C190.263 20.9287 189.89 20.4913 189.89 18.8333V10.7759H186.308V19.6799C186.308 22.2622 187.182 23.9767 190.263 23.9767C191.842 23.9767 193.316 23.504 194.148 22.8972V23.6663H197.609V10.7759H194.028V20.2161H194.021Z" fill="#706F6F"/>
</g>
<defs>
<clipPath id="clip0_3179_6226">
<rect width="241" height="30" fill="white"/>
</clipPath>
</defs>
</svg>
