<svg width="150" height="26" viewBox="0 0 150 26" fill="none" xmlns="http://www.w3.org/2000/svg">
<path d="M33.7586 12.3176H24.6647V15.3092H33.7586V12.3176Z" fill="#1E1E1E"/>
<path d="M40.9224 2.52759H40.1373C39.4433 2.52759 38.7776 2.79813 38.2869 3.27971C37.7961 3.76128 37.5204 4.41444 37.5204 5.09549V24.252H48.9368V21.0421H40.9224V2.52759Z" fill="#1E1E1E"/>
<path d="M54.7465 7.93286H51.4557V24.3482H54.7465V7.93286Z" fill="#1E1E1E"/>
<path d="M53.0913 1.71209C52.4852 1.71209 51.9037 1.94794 51.4745 2.36793C51.0453 2.78792 50.8032 3.35778 50.8015 3.95258C50.7971 4.24733 50.8527 4.53997 50.9651 4.81336C51.0774 5.08675 51.2442 5.33538 51.4557 5.54468C51.7765 5.86152 52.1861 6.07767 52.6323 6.16568C53.0785 6.25369 53.5414 6.20959 53.962 6.03898C54.3826 5.86838 54.7421 5.57896 54.9948 5.20748C55.2475 4.836 55.382 4.39921 55.3812 3.95258C55.3881 3.65847 55.3336 3.36608 55.2211 3.09338C55.1086 2.82069 54.9404 2.57347 54.7269 2.36691C54.5141 2.15425 54.2592 1.98648 53.978 1.87389C53.6968 1.76129 53.395 1.70623 53.0913 1.71209Z" fill="#1E1E1E"/>
<path d="M66.4115 2.94476L65.9339 2.6623C65.0063 2.03981 63.8692 1.79365 62.7608 1.97539C61.8897 1.98761 61.0408 2.24766 60.3173 2.72399C59.5938 3.20032 59.0268 3.87246 58.6849 4.65884C58.1009 5.68652 57.8009 6.8462 57.8148 8.02279V24.3739H61.1187V12.1764H64.789V9.22328H61.1383V8.38871C61.4066 6.21884 61.9823 5.48699 62.3879 5.27514C62.7474 5.10453 63.1448 5.02512 63.5437 5.04419C63.9426 5.06325 64.3303 5.18018 64.6712 5.38427L65.3254 5.73736L65.5806 5.03118C65.8292 4.38921 66.032 3.82427 66.189 3.4455L66.4115 2.94476Z" fill="#1E1E1E"/>
<path d="M78.4299 19.9892C77.9298 20.404 77.3582 20.728 76.742 20.9457C76.0828 21.1875 75.3848 21.3115 74.6811 21.3116C74.0035 21.3286 73.3299 21.204 72.705 20.9461C72.0801 20.6883 71.5183 20.303 71.0567 19.8158C70.1935 18.9342 69.6687 17.7862 69.5715 16.5674H83.3759V15.9255C83.4305 13.9233 82.7839 11.9634 81.5441 10.3724C80.7524 9.34591 79.7229 8.51933 78.5408 7.96113C77.3586 7.40292 76.058 7.12915 74.7466 7.1625C73.4688 7.12474 72.2004 7.38769 71.0474 7.92937C69.8944 8.47105 68.8904 9.2757 68.1191 10.2761C66.8084 11.9181 66.1248 13.9586 66.1869 16.0436C66.2491 18.1285 67.053 20.1263 68.4593 21.6904C69.255 22.571 70.2415 23.2656 71.3464 23.7233C72.4513 24.181 73.6467 24.3901 74.8447 24.3353C75.9597 24.348 77.0678 24.1631 78.1159 23.7896C79.0817 23.4236 79.9692 22.8836 80.7328 22.1976C81.5747 21.4138 82.2622 20.4845 82.761 19.4563C82.9905 19.0005 83.1576 18.517 83.2582 18.0183H79.9216C79.5278 18.7449 79.025 19.4093 78.4299 19.9892ZM71.3053 11.605C72.248 10.7566 73.4873 10.2969 74.7662 10.321C75.578 10.3213 76.3798 10.4967 77.1149 10.8346C77.8035 11.1328 78.4108 11.5858 78.8879 12.1571C79.2307 12.5927 79.4981 13.0807 79.6795 13.6015H69.9903C70.2681 12.8465 70.7179 12.1637 71.3053 11.605Z" fill="#1E1E1E"/>
<path d="M22.0609 14.3077C21.6563 13.4531 21.0669 12.6951 20.3337 12.0865C19.8058 11.6619 19.2228 11.3078 18.6 11.0337C19.1193 10.6114 19.5618 10.1056 19.9084 9.53786C20.4868 8.58031 20.7876 7.48597 20.7786 6.37292C20.7874 5.1833 20.4492 4.01604 19.8038 3.00897C19.1664 1.9971 18.2278 1.2016 17.1148 0.72996C15.6537 0.188146 14.0956 -0.056482 12.5352 0.0109461H7.30129C6.51987 0.0126462 5.77105 0.318437 5.21912 0.861228C4.66718 1.40402 4.35722 2.13948 4.35722 2.90625V13.3833C4.97999 12.8263 5.63534 12.3054 6.31993 11.8233C6.90711 11.3982 7.52114 11.0101 8.15834 10.6613V3.70872H13.5623C14.4514 3.68766 15.3258 3.93408 16.0681 4.41489C16.3547 4.64762 16.5815 4.94315 16.7304 5.27768C16.8793 5.6122 16.946 5.97636 16.9251 6.34082C16.9342 6.95625 16.7441 7.55865 16.3821 8.06131C16.2667 8.2273 16.1329 8.38017 15.983 8.51711C15.6698 8.81768 15.2983 9.05346 14.8904 9.21045C14.4682 9.36093 14.0288 9.4601 13.582 9.50576V9.54427C12.6576 9.72176 11.7512 9.97956 10.8734 10.3146C10.0601 10.609 9.26684 10.9542 8.49854 11.3482L8.17796 11.5344C7.54076 11.8832 6.92673 12.2713 6.33956 12.6964C5.6534 13.1765 4.99793 13.6974 4.37685 14.2564C3.76729 14.8125 3.19475 15.4065 2.66274 16.0346C1.78657 17.0655 1.01731 18.1795 0.366371 19.3601C0.242066 19.5912 0.11122 19.8223 0 20.0662L0.654237 20.4129C1.58235 19.2182 2.65684 18.1401 3.85346 17.203L4.38993 16.8114V24.4445H14.3867C16.6032 24.5403 18.7702 23.7824 20.4253 22.3324C21.1649 21.6715 21.7527 20.8637 22.1497 19.9627C22.5468 19.0618 22.744 18.0882 22.7282 17.1067C22.7147 16.1374 22.487 15.1824 22.0609 14.3077ZM18.1747 19.0648C17.783 19.6401 17.2247 20.0873 16.5718 20.3487C15.5869 20.6672 14.5531 20.8149 13.5165 20.7853H8.11254V14.725C8.6163 14.5196 9.14623 14.3591 9.65 14.1793C10.3374 13.9861 11.0367 13.836 11.7436 13.73C12.3294 13.6317 12.9222 13.578 13.5165 13.5695C14.0661 13.5695 14.6157 13.5695 15.1587 13.5695L15.512 13.6401C16.4454 13.819 17.2946 14.2898 17.9326 14.9818C18.4858 15.6035 18.7863 16.4034 18.7766 17.2287C18.7725 17.8868 18.5624 18.5278 18.1747 19.0648Z" fill="url(#paint0_linear_1801_6964)"/>
<path d="M145.057 19.9892C144.556 20.4054 143.982 20.7294 143.363 20.9457C142.704 21.1888 142.006 21.3127 141.302 21.3116C140.625 21.3289 139.953 21.2045 139.329 20.9465C138.705 20.6886 138.144 20.3031 137.684 19.8158C136.822 18.9331 136.295 17.7861 136.192 16.5674H149.997V15.9255C150.051 13.9245 149.407 11.9654 148.172 10.3724C147.38 9.3463 146.35 8.52001 145.168 7.96184C143.986 7.40367 142.685 7.12967 141.374 7.1625C139.363 7.1075 137.404 7.79476 135.885 9.08842L135.708 8.97929C135.161 8.60596 134.578 8.28562 133.968 8.02274C133.318 7.7678 132.627 7.62867 131.927 7.61188C131.612 7.60123 131.297 7.61626 130.985 7.65682C130.005 7.7904 129.071 8.14651 128.257 8.69682C128.172 8.74817 128.1 8.81879 128.021 8.87657V7.14966H124.704V15.7329C124.704 15.9447 124.704 16.1501 124.704 16.3748C124.704 17.2287 124.704 18.0825 124.704 18.9427C124.743 20.0662 124.887 21.4657 123.926 22.2746C123.714 22.4586 123.46 22.5901 123.186 22.6583C122.911 22.7264 122.624 22.7291 122.349 22.6662C122.349 21.6134 122.349 19.6232 122.349 15.8099C122.38 13.6184 121.543 11.5006 120.013 9.90373C119.214 9.02184 118.229 8.32062 117.126 7.84847C116.024 7.37632 114.83 7.14447 113.628 7.16892C111.665 7.17623 109.767 7.85763 108.263 9.09484C106.925 10.2864 105.765 11.6565 104.815 13.165C103.743 14.6743 102.574 16.1152 101.315 17.479C99.529 19.4435 97.6972 21.3309 94.8316 21.3309C93.7763 21.3453 92.7344 21.098 91.8025 20.6119C90.9235 20.1431 90.1976 19.4398 89.7089 18.5832C89.2036 17.7314 88.9372 16.7634 88.9369 15.7778C88.923 15.0573 89.0638 14.342 89.3501 13.6784C89.6364 13.0147 90.0618 12.4177 90.5987 11.926C91.1586 11.3945 91.8222 10.9796 92.5496 10.706C93.2769 10.4324 94.0531 10.3058 94.8316 10.3339C95.8006 10.2922 96.7651 10.486 97.6394 10.8981C98.5137 11.3103 99.2707 11.928 99.8431 12.6963L100.144 13.0879L102.179 10.52C101.757 9.91743 101.24 9.38437 100.648 8.94077C99.8542 8.3731 98.9698 7.93917 98.0308 7.65682C97.0151 7.33059 95.9527 7.16588 94.884 7.16892C93.2384 7.14542 91.6143 7.53666 90.1669 8.30522C88.7778 9.04225 87.6214 10.1392 86.8238 11.4766C86.016 12.813 85.5932 14.3396 85.6003 15.8934C85.5852 17.0168 85.8103 18.1308 86.2611 19.1636C86.7118 20.1964 87.3782 21.1249 88.2173 21.8894C89.0829 22.6987 90.1032 23.332 91.2192 23.7529C92.3353 24.1737 93.5252 24.3739 94.7204 24.3417C96.162 24.3656 97.5863 24.0322 98.8617 23.3724C99.9219 22.8464 100.889 22.1572 101.727 21.3309C102.619 20.4356 103.462 19.4949 104.253 18.5126L105.077 17.4726C105.391 19.0898 106.175 20.5834 107.334 21.7738C108.816 23.3284 110.861 24.2494 113.028 24.3382C115.196 24.4271 117.312 23.6767 118.921 22.2489C118.898 22.6799 118.935 23.1118 119.032 23.5329C119.147 24.1074 119.458 24.6261 119.915 25.003C120.609 25.5538 121.454 25.8911 122.342 25.9724C123.263 26.0663 124.192 25.9192 125.036 25.5459C125.879 25.1726 126.607 24.5866 127.144 23.8474C127.741 22.853 128.043 21.7144 128.015 20.5605C128.047 19.4371 128.015 18.2879 128.015 17.1645C127.948 16.0721 128.067 14.9764 128.368 13.9225C128.502 13.5331 128.682 13.1604 128.904 12.8119C129.369 12.1699 130.972 10.3338 133.752 11.8489C132.959 13.4364 132.664 15.2194 132.905 16.9716C133.146 18.7238 133.912 20.3662 135.106 21.6904C135.901 22.5721 136.888 23.2674 137.993 23.7252C139.098 24.183 140.294 24.3915 141.492 24.3353C142.607 24.3474 143.715 24.1626 144.763 23.7896C145.729 23.4241 146.617 22.8841 147.38 22.1976C148.222 21.4138 148.909 20.4845 149.408 19.4563C149.54 19.1932 149.651 18.9206 149.742 18.641H146.163C145.857 19.1362 145.485 19.5895 145.057 19.9892ZM118.535 16.5803C117.579 20.8879 111.626 22.9679 109.068 18.6924C108.54 17.8359 108.258 16.8556 108.25 15.8548C108.24 15.1412 108.375 14.4329 108.649 13.7714C108.922 13.1099 109.327 12.5087 109.84 12.003C110.317 11.4917 110.899 11.085 111.547 10.8096C112.195 10.5341 112.895 10.3961 113.602 10.4045C114.3 10.3948 114.992 10.5318 115.632 10.8064C116.272 11.081 116.844 11.4868 117.311 11.9966C117.884 12.6024 118.296 13.3379 118.51 14.1377C118.723 14.9374 118.732 15.7765 118.535 16.5803ZM137.933 11.605C138.872 10.7559 140.11 10.2959 141.387 10.321C142.199 10.3199 143.001 10.4953 143.736 10.8346C144.426 11.1328 145.036 11.5857 145.515 12.1571C145.856 12.5931 146.121 13.0811 146.3 13.6015H136.618C136.891 12.8442 137.341 12.1604 137.933 11.605Z" fill="#50CCE0"/>
<defs>
<linearGradient id="paint0_linear_1801_6964" x1="-0.0326471" y1="0.0109317" x2="9.49141" y2="28.8264" gradientUnits="userSpaceOnUse">
<stop stop-color="#4BFFE9"/>
<stop offset="1" stop-color="#03C8E8"/>
</linearGradient>
</defs>
</svg>
