<svg width="55" height="46" viewBox="0 0 55 46" fill="none" xmlns="http://www.w3.org/2000/svg">
<g filter="url(#filter0_d_2020_4338)">
<path fill-rule="evenodd" clip-rule="evenodd" d="M27.213 35.5646L22 28L19 28C11.8203 28 6 22.1797 6 15C6 7.8203 11.8203 2 19 2L36 2C43.1797 2 49 7.8203 49 15C49 22.1797 43.1797 28 36 28L34 28L28.786 35.5646C28.386 36.1451 27.614 36.1451 27.213 35.5646Z" fill="white"/>
<path d="M22 28L22.4117 27.7163L22.2627 27.5L22 27.5L22 28ZM27.213 35.5646L26.8013 35.8483L26.8016 35.8487L27.213 35.5646ZM19 28L19 27.5L19 28ZM36 28L36 27.5L36 28ZM34 28L34 27.5L33.7374 27.5L33.5883 27.7162L34 28ZM28.786 35.5646L28.3743 35.2808L28.3743 35.2809L28.786 35.5646ZM21.5883 28.2837L26.8013 35.8483L27.6247 35.2808L22.4117 27.7163L21.5883 28.2837ZM22 27.5L19 27.5L19 28.5L22 28.5L22 27.5ZM19 27.5C12.0964 27.5 6.5 21.9036 6.5 15L5.5 15C5.5 22.4558 11.5442 28.5 19 28.5L19 27.5ZM6.5 15C6.5 8.09644 12.0964 2.5 19 2.5L19 1.5C11.5442 1.5 5.5 7.54415 5.5 15L6.5 15ZM19 2.5L36 2.5L36 1.5L19 1.5L19 2.5ZM36 2.5C42.9036 2.5 48.5 8.09644 48.5 15L49.5 15C49.5 7.54416 43.4558 1.5 36 1.5L36 2.5ZM48.5 15C48.5 21.9036 42.9036 27.5 36 27.5L36 28.5C43.4558 28.5 49.5 22.4558 49.5 15L48.5 15ZM36 27.5L34 27.5L34 28.5L36 28.5L36 27.5ZM29.1977 35.8483L34.4117 28.2838L33.5883 27.7162L28.3743 35.2808L29.1977 35.8483ZM26.8016 35.8487C27.0911 36.2679 27.535 36.5 27.9999 36.5C28.4648 36.5 28.9087 36.2678 29.1977 35.8482L28.3743 35.2809C28.2633 35.4419 28.1212 35.5 27.9999 35.5C27.8785 35.5 27.7359 35.4418 27.6244 35.2804L26.8016 35.8487Z" fill="#E8E8E8"/>
</g>
<defs>
<filter id="filter0_d_2020_4338" x="0.5" y="0.5" width="54" height="45" filterUnits="userSpaceOnUse" color-interpolation-filters="sRGB">
<feFlood flood-opacity="0" result="BackgroundImageFix"/>
<feColorMatrix in="SourceAlpha" type="matrix" values="0 0 0 0 0 0 0 0 0 0 0 0 0 0 0 0 0 0 127 0" result="hardAlpha"/>
<feOffset dy="4"/>
<feGaussianBlur stdDeviation="2.5"/>
<feComposite in2="hardAlpha" operator="out"/>
<feColorMatrix type="matrix" values="0 0 0 0 0 0 0 0 0 0 0 0 0 0 0 0 0 0 0.07 0"/>
<feBlend mode="normal" in2="BackgroundImageFix" result="effect1_dropShadow_2020_4338"/>
<feBlend mode="normal" in="SourceGraphic" in2="effect1_dropShadow_2020_4338" result="shape"/>
</filter>
</defs>
</svg>
