<svg width="226" height="52" viewBox="0 0 226 52" fill="none" xmlns="http://www.w3.org/2000/svg">
<path d="M206.76 44.2231C198.934 44.2231 194.195 38.3814 194.195 30.1698C194.195 21.9031 198.989 15.8409 206.981 15.8409C211.114 15.8409 214.586 17.6596 216.405 20.9662V3L221.53 3V43.5618H216.901L216.46 38.6569C214.696 42.3494 211.059 44.2231 206.76 44.2231ZM207.807 39.5387C213.098 39.5387 216.349 35.6258 216.349 30.0045C216.349 24.4934 213.098 20.5253 207.807 20.5253C202.516 20.5253 199.43 24.4934 199.43 30.0045C199.43 35.5707 202.516 39.5387 207.807 39.5387Z" fill="white"/>
<path d="M192.068 16.3919V21.1315H189.754C184.849 21.1315 181.818 24.1075 181.818 29.288V43.5617H176.637V16.6675H181.487L181.818 20.7457C182.92 17.9351 185.62 16.0613 189.313 16.0613C190.25 16.0613 191.021 16.1715 192.068 16.3919Z" fill="white"/>
<path d="M155.078 44.6069C149.292 44.6069 145.875 41.3553 145.875 36.4504C145.875 31.4904 149.567 28.4042 155.905 27.9082L164.392 27.2468V26.4753C164.392 21.9562 161.692 20.3579 158.054 20.3579C153.701 20.3579 151.221 22.2868 151.221 25.5384H146.702C146.702 19.9171 151.331 16.2246 158.275 16.2246C164.943 16.2246 169.462 19.7517 169.462 27.0264V43.9455H165.054L164.502 39.5917C163.125 42.678 159.432 44.6069 155.078 44.6069ZM156.566 40.5837C161.471 40.5837 164.447 37.3873 164.447 32.3171V30.8842L157.558 31.4353C152.984 31.8762 151.11 33.6397 151.11 36.2851C151.11 39.1509 153.205 40.5837 156.566 40.5837Z" fill="white"/>
<path d="M124.954 44.2231C117.128 44.2231 112.389 38.3814 112.389 30.1698C112.389 21.9031 117.184 15.8409 125.175 15.8409C129.308 15.8409 132.78 17.6596 134.599 20.9662V3L139.724 3V43.5618H135.095L134.654 38.6569C132.89 42.3494 129.253 44.2231 124.954 44.2231ZM126.001 39.5387C131.292 39.5387 134.544 35.6258 134.544 30.0045C134.544 24.4934 131.292 20.5253 126.001 20.5253C120.711 20.5253 117.624 24.4934 117.624 30.0045C117.624 35.5707 120.711 39.5387 126.001 39.5387Z" fill="white"/>
<path d="M87.6334 43.562H82.4529V16.6126H87.1374L87.6885 20.746C89.3969 17.6597 92.8138 15.8411 96.6165 15.8411C103.726 15.8411 106.977 20.1948 106.977 27.0837V43.562H101.797V28.2411C101.797 22.7851 99.2618 20.5806 95.2938 20.5806C90.4441 20.5806 87.6334 24.0526 87.6334 29.2882V43.562Z" fill="white"/>
<path d="M60.8946 44.2233C55.1079 44.2233 51.691 40.9718 51.691 36.0669C51.691 31.1069 55.3835 28.0206 61.7213 27.5246L70.2084 26.8633V26.0917C70.2084 21.5726 67.5079 19.9744 63.8706 19.9744C59.5168 19.9744 57.0368 21.9033 57.0368 25.1548H52.5177C52.5177 19.5335 57.147 15.8411 64.0911 15.8411C70.7595 15.8411 75.2786 19.3682 75.2786 26.6429V43.562H70.8697L70.3186 39.2082C68.9408 42.2944 65.2484 44.2233 60.8946 44.2233ZM62.3826 40.2002C67.2875 40.2002 70.2635 37.0037 70.2635 31.9335V30.5006L63.3746 31.0517C58.8004 31.4926 56.9266 33.2562 56.9266 35.9015C56.9266 38.7673 59.0208 40.2002 62.3826 40.2002Z" fill="white"/>
<path d="M43.3967 43.562H38.2163V20.9664H32.9256V16.6127H38.2163V8.18066H43.3967V16.6127H48.6874V20.9664H43.3967V43.562Z" fill="white"/>
<path d="M2.55111 14.4631C2.55111 7.62934 8.06223 3 16.2738 3C23.8791 3 28.784 7.24356 29.2249 14.1325H23.7689C23.4934 10.1645 20.6827 7.84978 16.2187 7.84978C11.2036 7.84978 7.952 10.3849 7.952 14.2978C7.952 17.4942 9.77067 19.4231 13.5182 20.3049L20.0765 21.848C26.5796 23.336 29.8862 26.8631 29.8862 32.4845C29.8862 39.6489 24.32 44.2231 15.8329 44.2231C7.73156 44.2231 2.33067 39.9796 2 33.1458H7.51112C7.62134 36.9485 10.8178 39.3734 15.8329 39.3734C21.1236 39.3734 24.4854 36.8934 24.4854 32.9254C24.4854 29.784 22.7769 27.8 18.9742 26.9182L12.416 25.4302C5.91289 23.9422 2.55111 20.1947 2.55111 14.4631Z" fill="white"/>
</svg>
