<svg width="271" height="182" viewBox="0 0 271 182" fill="none" xmlns="http://www.w3.org/2000/svg">
<g clip-path="url(#clip0_6552_28077)">
<path d="M120.635 187.076C123.329 184.737 125.211 181.612 125.568 177.985C126.98 163.764 106.418 154.59 108.317 140.452C109.063 134.887 113.283 130.425 114.549 124.961C116.172 117.976 112.715 110.773 108.333 105.192C103.951 99.6101 98.5142 94.8307 95.0736 88.5807C92.1848 83.3501 90.8702 77.3675 89.1986 71.6021C87.527 65.8368 85.336 59.9879 81.1651 55.76C77.7569 52.3175 69.4962 48.3904 64.8708 51.8997C59.2555 56.161 62.826 67.6082 64.9682 72.8054C67.7434 79.5901 71.46 86.5085 70.6323 93.828C69.4151 104.607 58.931 111.909 55.9772 122.321C53.7051 130.392 56.3018 139.048 59.8236 146.635C66.153 160.305 75.5497 172.471 87.0563 181.913C93.2559 186.993 100.494 191.438 108.414 191.555C112.796 191.622 117.324 189.951 120.635 187.076Z" fill="#45B0BF"/>
<path d="M124.997 218C124.651 218 124.355 217.716 124.338 217.366C123.631 192.01 112.246 172.909 102.194 156.043C93.6231 141.664 86.2199 129.236 87.1247 116.007C89.0496 88.1147 73.042 65.0269 72.8775 64.7934C72.6637 64.4931 72.7295 64.0927 73.0256 63.8759C73.3053 63.659 73.7165 63.7257 73.9304 64.026C74.0949 64.2595 90.3657 87.7143 88.4244 116.09C87.536 128.885 94.857 141.146 103.313 155.343C113.447 172.342 124.931 191.609 125.638 217.299C125.638 217.666 125.358 217.967 124.997 217.983H124.98L124.997 218Z" fill="#2CA5B6"/>
<path d="M147.92 55.4102C151.13 56.0185 153.893 57.5952 155.37 60.584C160.169 70.2829 147.274 78.2924 147.507 87.4169C147.688 94.2823 154.547 98.9113 160.63 102.275C165.688 105.065 170.867 107.906 174.774 112.168C178.667 116.421 181.122 122.446 179.585 127.948C177.945 133.855 172.392 137.633 168.27 142.163C162.459 148.541 159.278 156.79 155.484 164.537C151.689 172.284 146.772 180.051 139.021 183.915C131.27 187.78 120.1 186.049 116.113 178.305C111.507 169.349 118.403 158.545 116.322 148.707C114.908 142.021 109.618 136.924 105.615 131.361C101.597 125.791 98.7851 118.001 102.629 112.419C106.681 106.511 116.043 106.251 120.236 100.425C124.704 94.2191 121.018 85.627 120.969 77.9461C120.918 69.9108 125.482 62.0701 132.487 58.1272C136.305 55.9849 142.706 54.4244 147.949 55.4265L147.92 55.4102Z" fill="#45B0BF"/>
<path d="M111.943 216.747C112.22 216.906 112.575 216.834 112.763 216.572C152.723 162.358 147.266 126.463 140.445 109.876C131.931 89.1994 143.033 69.5879 143.145 69.3935C143.322 69.0879 143.217 68.6943 142.913 68.5187C142.609 68.3432 142.216 68.4496 142.04 68.7552C141.92 68.9636 130.527 89.1109 139.263 110.36C145.978 126.683 151.33 162.09 111.729 215.809C111.512 216.09 111.58 216.482 111.86 216.699C111.888 216.715 111.902 216.723 111.916 216.731L111.943 216.747Z" fill="#2CA5B6"/>
<path d="M68.2886 118.038C68.1483 116.717 68.823 113.897 69.5096 114.745C69.7514 115.044 68.7215 115.975 69.3185 116.401C69.8798 116.788 70.4918 114.222 71.3068 114.784C71.9696 115.239 72.5428 115.904 72.3935 116.448C72.1368 117.547 71.3367 117.698 69.441 118.943L68.0527 119.132L68.2886 118.041V118.038Z" fill="#EBC7AD"/>
<path d="M68.8814 117.53C68.8277 117.74 68.971 117.967 69.2008 118.035L71.9982 118.866C72.2281 118.934 72.4609 118.819 72.5147 118.609L75.0702 108.751C75.1239 108.541 74.9806 108.313 74.7507 108.245L71.9534 107.415C71.7235 107.347 71.4907 107.462 71.4369 107.672L68.8814 117.53Z" fill="#E6EBEE"/>
<path d="M68.5377 117.429C68.4839 117.639 68.6272 117.867 68.8571 117.935L71.6544 118.765C71.8843 118.833 72.1172 118.718 72.1709 118.508L74.7264 108.65C74.7802 108.44 74.6369 108.213 74.407 108.145L71.6096 107.314C71.3798 107.246 71.1469 107.361 71.0932 107.571L68.5377 117.429Z" fill="white"/>
<path d="M69.0205 116.782L71.9731 117.66L74.242 108.907L71.2894 108.029L69.0205 116.782Z" fill="#116FA1"/>
<path d="M71.3506 107.654C71.3178 107.778 71.3626 107.9 71.4491 107.923C71.5357 107.95 71.6313 107.87 71.6641 107.746C71.6969 107.622 71.6522 107.5 71.5656 107.477C71.479 107.45 71.3835 107.53 71.3506 107.654Z" fill="#116FA1"/>
<path d="M69.9988 117.201L69.9072 117.525L71.1062 117.857L71.1978 117.533L69.9988 117.201Z" fill="#95AFBC"/>
<path d="M51.3618 116.85C56.446 131.006 64.5305 124.441 68.313 117.973L69.4445 118.916C63.7632 131.482 54.1651 130.891 48.4719 118.996C46.6269 115.262 50.6961 114.86 51.3618 116.847V116.85Z" fill="#0A3734"/>
<path d="M46.7908 147.609L43.2441 181.984H46.7908L44.7757 178.99L50.6599 147.467L48.4835 143.902L46.7908 147.609Z" fill="#EBC7AD"/>
<path d="M46.7908 181.983H43.2441L43.5606 178.747H44.7906L44.7757 178.989L46.7908 181.983Z" fill="#213126"/>
<path d="M50.9883 147.609L51.5525 181.984H55.0992L53.084 178.99L54.8574 147.467L52.681 143.902L50.9883 147.609Z" fill="#EBC7AD"/>
<path d="M55.0985 181.983H51.5518L51.498 178.747H53.0982L53.0833 178.989L55.0985 181.983Z" fill="#213126"/>
<path d="M57.4795 104.199C56.1032 103.909 55.1658 100.655 55.1658 100.655C53.6223 96.2297 48.98 96.008 42.9196 97.2525C42.9196 97.2525 36.3069 98.4023 42.6987 108.207C44.1884 110.495 46.114 111.149 46.8275 114.551L46.8395 114.923L46.9708 115.458L50.8996 115.55C50.5891 114.421 48.6098 113.168 51.8639 110.206C53.688 108.547 55.1718 106.579 55.533 104.282L57.4795 104.199Z" fill="#EBC7AD"/>
<path d="M50.5311 115.135C56.4152 124.095 55.7345 142.105 56.5376 156.831H45.7217C46.6531 136.914 46.8322 128.632 46.7039 115.484L50.5281 115.135H50.5311Z" fill="#0A3734"/>
<path d="M46.3224 93.6312C34.1329 93.1701 34.2046 107.187 40.9397 111.435C44.5968 113.741 42.9071 116.221 41.1158 116.478C47.424 117.312 45.9641 110.664 45.0834 106.046C44.358 105.99 43.7251 105.473 43.5698 104.731C43.3817 103.832 43.9669 102.951 44.8744 102.765C45.0088 102.739 45.1431 102.733 45.2745 102.736C45.4536 101.852 45.7671 101.071 46.2925 100.474C48.8092 101.911 54.5442 100.149 55.4936 96.9626C53.8814 98.0002 53.6217 93.9889 46.3194 93.6312H46.3224Z" fill="#0A3734"/>
<path d="M40.8736 141.249C41.2349 135.739 43.6471 123.598 48.4447 118.585C49.2298 117.79 48.2357 115.703 46.737 115.673C43.2172 118.162 39.2227 131.024 39.1152 141.24L40.8736 141.252V141.249Z" fill="#0A3734"/>
<path d="M40.8708 141.245C41.3455 141.463 42.4292 141.8 42.2441 142.383C42.059 142.965 41.7485 142.658 40.9455 142.383C40.9156 143.027 41.4709 144.245 40.3275 144.245H38.8646C38.1034 143.858 38.3332 142.037 39.1423 141.233L40.8678 141.245H40.8708Z" fill="#EBC7AD"/>
<path d="M49.7344 115.218L50.5942 116.726L51.03 115.132L50.4539 114.24L49.7344 115.218Z" fill="white"/>
<path d="M49.735 115.218L49.3409 117.211L46.1465 115.641L46.5913 114.234L49.735 115.218Z" fill="white"/>
<path d="M50.7014 115.851L53.2569 127.902L48.1279 116.197L49.7341 115.218L50.7014 115.851Z" fill="white"/>
<path d="M149.721 41.0095C149.721 37.8827 152.384 35.3457 155.671 35.3457H200.248C203.535 35.3457 206.198 37.8827 206.198 41.0095V174.966C206.198 178.093 203.535 180.629 200.248 180.629H155.671C152.384 180.629 149.721 178.093 149.721 174.966V41.0095Z" fill="#238D9D"/>
<rect x="164.512" y="58.4868" width="27.6811" height="27.6811" rx="13" fill="white"/>
<path d="M180.546 63.8096C181.098 63.8096 181.546 64.2573 181.546 64.8096V69.1328H185.868C186.42 69.1328 186.868 69.5805 186.868 70.1328V74.5205C186.868 75.0728 186.42 75.5205 185.868 75.5205H181.546V79.8438C181.546 80.396 181.098 80.8438 180.546 80.8438H176.158C175.606 80.8438 175.158 80.396 175.158 79.8438V75.5205H170.834C170.282 75.5205 169.834 75.0728 169.834 74.5205V70.1328C169.834 69.5805 170.282 69.1328 170.834 69.1328H175.158V64.8096C175.158 64.2573 175.606 63.8096 176.158 63.8096H180.546Z" fill="#F86E6E"/>
<path d="M148.993 41.916V174.07C148.993 178.441 152.603 181.986 157.056 181.986H199.48C203.932 181.986 207.543 178.444 207.543 174.07V41.916C207.543 37.5453 203.932 34 199.48 34H157.056C152.603 34 148.993 37.5424 148.993 41.916ZM151.365 43.1598C151.365 40.0852 153.905 37.5918 157.036 37.5918H172.299C172.365 37.65 172.423 37.7168 172.469 37.8011L173.286 39.4633C173.372 39.6638 173.537 39.8644 173.747 39.8644H182.491C182.705 39.8644 182.866 39.6638 182.953 39.4633L183.77 37.8011C183.816 37.7168 183.873 37.65 183.94 37.5918H199.459C202.591 37.5918 205.13 40.0852 205.13 43.1598V174.024C205.13 177.098 202.591 179.592 199.459 179.592H157.036C153.905 179.592 151.365 177.098 151.365 174.024V43.1598Z" fill="white"/>
<path d="M197.713 40.4893H197.035V43.2355H197.713V40.4893Z" fill="white"/>
<path d="M196.767 41.1782H196.089V43.2357H196.767V41.1782Z" fill="white"/>
<path d="M195.82 41.8579H195.142V43.2383H195.82V41.8579Z" fill="white"/>
<path d="M194.873 42.5645H194.195V43.2358H194.873V42.5645Z" fill="white"/>
<path d="M203.332 41.9189H202.975V41.3174H199.047V43.2325H202.975V42.6106H203.332V41.9189ZM202.723 42.9971H202.311V41.5818H202.723V42.9971Z" fill="white"/>
<path d="M154.006 40.4515C154.006 40.1725 154.237 39.9458 154.525 39.9458C154.814 39.9458 155.045 40.1725 155.045 40.4515C155.045 40.7304 154.814 40.9571 154.525 40.9571C154.237 40.9571 154.006 40.7304 154.006 40.4515Z" fill="white"/>
<path d="M154.006 42.0931C154.006 41.8141 154.237 41.5874 154.525 41.5874C154.814 41.5874 155.045 41.8141 155.045 42.0931C155.045 42.372 154.814 42.5987 154.525 42.5987C154.237 42.5987 154.006 42.372 154.006 42.0931Z" fill="white"/>
<path d="M154.006 43.7352C154.006 43.4562 154.237 43.2295 154.525 43.2295C154.814 43.2295 155.045 43.4562 155.045 43.7352C155.045 44.0141 154.814 44.2408 154.525 44.2408C154.237 44.2408 154.006 44.0141 154.006 43.7352Z" fill="white"/>
<path d="M107.124 125.526L107.754 130.454C107.987 132.631 106.775 133.041 105 133.041H90.3086L97.1336 123.855C98.8189 121.562 100.464 120.792 101.904 120.792H104.088C105.982 120.792 106.738 122.271 107.127 125.526H107.124Z" fill="#C2D4E0"/>
<path d="M96.2764 181.949C89.7833 181.949 84.5195 176.648 84.5195 170.109C84.5195 163.571 89.7833 158.27 96.2764 158.27H103.263V181.946H96.2764V181.949Z" fill="#213126"/>
<path d="M103.265 181.949C109.758 181.949 115.022 176.648 115.022 170.109C115.022 163.571 109.758 158.27 103.265 158.27C96.7716 158.27 91.5078 163.571 91.5078 170.109C91.5078 176.648 96.7716 181.949 103.265 181.949Z" fill="#213126"/>
<path d="M167.909 181.949C161.416 181.949 156.152 176.648 156.152 170.109C156.152 163.571 161.416 158.27 167.909 158.27H174.896V181.946H167.909V181.949Z" fill="#213126"/>
<path d="M174.896 181.949C181.389 181.949 186.653 176.648 186.653 170.109C186.653 163.571 181.389 158.27 174.896 158.27C168.402 158.27 163.139 163.571 163.139 170.109C163.139 176.648 168.402 181.949 174.896 181.949Z" fill="#213126"/>
<path d="M234.79 148.599H83.6367V174.183H234.79V148.599Z" fill="#213126"/>
<path d="M140.904 181.949C134.411 181.949 129.147 176.648 129.147 170.109C129.147 163.571 134.411 158.27 140.904 158.27H147.891V181.946H140.904V181.949Z" fill="#213126"/>
<path d="M147.894 181.949C154.387 181.949 159.651 176.648 159.651 170.109C159.651 163.571 154.387 158.27 147.894 158.27C141.4 158.27 136.137 163.571 136.137 170.109C136.137 176.648 141.4 181.949 147.894 181.949Z" fill="#304236"/>
<path d="M147.905 176.029C151.134 176.029 153.752 173.393 153.752 170.141C153.752 166.889 151.134 164.253 147.905 164.253C144.676 164.253 142.059 166.889 142.059 170.141C142.059 173.393 144.676 176.029 147.905 176.029Z" fill="#DBE5E7"/>
<path d="M212.593 181.949C206.1 181.949 200.836 176.648 200.836 170.109C200.836 163.571 206.1 158.27 212.593 158.27H219.579V181.946H212.593V181.949Z" fill="#213126"/>
<path d="M219.579 181.949C226.072 181.949 231.336 176.648 231.336 170.109C231.336 163.571 226.072 158.27 219.579 158.27C213.086 158.27 207.822 163.571 207.822 170.109C207.822 176.648 213.086 181.949 219.579 181.949Z" fill="#304236"/>
<path d="M219.591 176.029C222.82 176.029 225.438 173.393 225.438 170.141C225.438 166.889 222.82 164.253 219.591 164.253C216.362 164.253 213.744 166.889 213.744 170.141C213.744 173.393 216.362 176.029 219.591 176.029Z" fill="#DBE5E7"/>
<path d="M161.107 171.76C161.125 171.47 161.151 171.182 161.151 170.888C161.151 162.78 154.623 156.21 146.574 156.21V152.99H167.436V171.749L161.107 171.763V171.76Z" fill="#7C99A9"/>
<path d="M232.894 171.76C232.912 171.47 232.938 171.182 232.938 170.889C232.938 162.78 226.41 156.21 218.358 156.21V153.062H236.655V170.598L235.621 171.76H232.891H232.894Z" fill="#7C99A9"/>
<path d="M194.669 145.69L201.476 124.685L198.917 99.7109H147.048C128.051 99.7109 119.096 104.881 97.6695 126.458C95.3292 128.748 93.9931 130.012 92.1635 131.221L82.2566 138.78C78.1156 142.031 76.1475 145.051 76.1475 149.015L78.1848 166.334C78.6494 170.571 79.7835 171.76 82.1181 171.76H134.281L134.273 145.69H194.666H194.669Z" fill="#C2D4E0"/>
<path d="M179.205 101.138C167.131 105.566 153.779 119.091 150.125 123.011C148.152 125.121 141.898 131.151 139.385 131.936C126.465 135.461 99.4225 135.339 95.3564 130.288C100.207 125.978 121.637 101.141 140.106 101.141H179.202L179.205 101.138Z" fill="#213126"/>
<path d="M239.881 134.141L223.651 108.022C220.644 102.93 215.138 99.7134 204.57 99.7134H196.531C177.534 99.7134 170.905 104.883 149.478 126.46C147.138 128.75 145.802 130.014 143.972 131.223L134.065 138.782C129.924 142.034 127.956 145.053 127.956 149.017L129.993 166.337C130.565 170.472 131.592 171.762 133.927 171.762H134.766C134.749 171.472 134.723 171.184 134.723 170.891C134.723 162.783 141.251 156.212 149.302 156.212C157.353 156.212 163.881 162.786 163.881 170.891C163.881 171.184 163.855 171.472 163.838 171.762H206.559C206.541 171.472 206.515 171.184 206.515 170.891C206.515 162.783 213.043 156.212 221.094 156.212C229.146 156.212 235.67 162.786 235.67 170.891C235.67 171.184 235.644 171.472 235.627 171.762H235.82C239.93 171.762 244.365 167.703 244.365 159.961V146.521C244.365 142.394 241.886 137.98 239.886 134.141H239.881Z" fill="#DBE5E7"/>
<path d="M223.648 108.019C220.231 102.306 214.304 99.7109 204.568 99.7109H196.528C177.531 99.7109 170.902 104.881 149.475 126.458C147.135 128.748 145.799 130.012 143.969 131.221L134.062 138.78C132.934 139.666 131.982 140.535 131.171 141.409H243.323C242.417 138.904 241.064 136.42 239.875 134.139L223.645 108.019H223.648Z" fill="#FFFCFF"/>
<path d="M76.1475 149.017L77.0594 156.66L78.4214 158.02C79.14 158.686 80.4155 158.61 80.8657 157.747C81.4111 156.57 82.2913 155.344 83.9535 155.344H115.737C118.583 155.344 119.347 158.906 122.331 158.418L128.821 156.404C130.893 155.646 131.144 153.737 131.075 152.057L130.83 148.666C130.524 145.995 132.971 143.121 135.011 141.171C136.235 139.837 136.235 138.913 135.623 137.474C134.91 136.96 133.993 136.449 131.615 137.149C127.814 138.541 123.841 141.848 120.903 145.675C119.174 148.285 118.658 149.851 115.547 149.851H83.2263C80.2626 149.851 79.3911 147.303 80.2626 145.672C81.743 142.923 83.7717 141.432 85.2549 140.174C87.2836 138.445 87.0586 136.821 84.9952 136.754L84.9317 136.736L82.2566 138.776C78.1156 142.028 76.1475 145.048 76.1475 149.011V149.017Z" fill="#B5C6CE"/>
<path d="M115.21 165.663C114.763 164.26 114.056 162.908 111.698 162.908H88.8679C87.3355 162.908 85.7108 163.786 85.5059 165.994L84.9951 171.76H117.057L115.21 165.663Z" fill="#7C99A9"/>
<path d="M188.912 136.513C188.265 136.513 187.74 135.984 187.74 135.333C187.74 134.682 188.265 134.153 188.912 134.153H195.76C196.406 134.153 196.932 134.682 196.932 135.333C196.932 135.984 196.406 136.513 195.76 136.513H188.912Z" fill="#DBE5E7"/>
<path d="M223.651 136.513C223.005 136.513 222.479 135.984 222.479 135.333C222.479 134.682 223.005 134.153 223.651 134.153H230.499C231.146 134.153 231.671 134.682 231.671 135.333C231.671 135.984 231.146 136.513 230.499 136.513H223.651Z" fill="#DBE5E7"/>
<path d="M201.084 171.678H200.316V141.68L197.035 101.553L197.8 101.489L201.084 141.648V171.678Z" fill="#FFFCFF"/>
<path d="M152.627 156.597L151.862 156.452V141.68L151.461 129.968H152.226L152.627 141.648V156.597Z" fill="#FFFCFF"/>
<path d="M230.946 131.235H148.22C152.577 127.42 156.19 123.424 159.05 120.524C161.411 118.132 172.905 101.469 195.313 101.469H202.403C211.585 101.469 215.888 103.343 218.947 108.481L230.94 131.235H230.946Z" fill="#213126"/>
<path d="M200.632 129.876H228.327L217.237 108.571C214.896 103.945 209.315 102.681 202.845 102.681H198.248L200.632 129.873V129.876Z" fill="#2B3D31"/>
<path d="M198.747 129.875H152.909L159.292 123.157C173.817 106.005 186.208 102.681 196.441 102.681L198.744 129.872L198.747 129.875Z" fill="#2B3D31"/>
<path d="M138.786 102.097H174.229C158.427 109.943 143.175 129.39 139.225 130.494C118.265 134.583 100.379 132.372 97.1963 129.942C105.098 122.648 122.545 103.091 138.786 102.097Z" fill="#2B3D31"/>
<path d="M146.86 131.003L158.051 120.6C161.638 120.451 164.966 122.076 164.966 125.525V130.454C164.966 132.549 163.987 133.041 162.213 133.041H147.348C146.369 133.041 145.882 132.044 146.86 131.003Z" fill="#DCE6E8"/>
<path d="M76.1474 149.015L76.7823 154.344L78.7937 156.175C79.3016 156.602 79.7662 156.559 80.2337 155.919L81.0792 154.513C81.6708 153.661 82.3922 153.449 83.9592 153.449H116.75C118.71 153.449 120.473 156.559 121.942 156.163L128.114 154.388C129.534 153.746 129.73 152.859 129.583 151.034L129.289 149.497C129.093 146.931 130.123 144.464 132.033 142.441C133.895 140.567 135.363 139.282 134.581 138.297C131.398 136.176 122.727 145.304 120.963 148.509C119.642 150.779 118.121 151.406 115.853 151.406H82.9636C79.215 151.406 77.8038 148.506 79.3016 145.321C80.4443 142.72 83.535 140.291 85.0587 138.8C85.9561 137.925 85.1597 137.585 84.0891 137.385L82.2537 138.785C78.1126 142.037 76.1445 145.057 76.1445 149.02L76.1474 149.015Z" fill="white"/>
<path d="M144.085 170.624C144.085 168.046 146.159 165.954 148.722 165.954C149.622 165.954 150.457 166.224 151.169 166.672C150.338 165.881 149.224 165.387 147.989 165.387C145.429 165.387 143.352 167.477 143.352 170.054C143.352 171.725 144.229 173.181 145.542 174.004C144.647 173.152 144.085 171.955 144.085 170.618V170.624Z" fill="white"/>
<path d="M215.75 170.624C215.75 168.046 217.825 165.954 220.387 165.954C221.288 165.954 222.122 166.224 222.834 166.672C222.003 165.881 220.889 165.387 219.654 165.387C217.094 165.387 215.017 167.477 215.017 170.054C215.017 171.725 215.894 173.181 217.207 174.004C216.312 173.152 215.75 171.955 215.75 170.618V170.624Z" fill="white"/>
<path d="M205.768 41.082V173.652C205.768 178.514 202.75 180.173 200.704 180.173H196.32V181.984H202.883C207.335 181.984 210.945 178.441 210.945 174.067V41.916C210.945 37.5454 207.335 34 202.883 34H198.187V35.9064H201.284C202.989 35.9064 205.765 37.6994 205.765 41.082H205.768Z" fill="#BACBD5"/>
<path d="M208.55 86.5121C208.55 87.102 208.925 87.5815 209.387 87.5815C209.848 87.5815 210.224 87.102 210.224 86.5121V72.5279C210.224 71.938 209.848 71.4585 209.387 71.4585C208.925 71.4585 208.55 71.938 208.55 72.5279V86.5121Z" fill="#415C6D"/>
<path d="M199.482 34H187.425V37.5948H199.462C202.593 37.5948 205.132 40.0881 205.132 43.1627V174.027C205.132 177.101 202.593 179.595 199.462 179.595H159.102V181.986H199.485C203.938 181.986 207.548 178.444 207.548 174.07V41.916C207.545 37.5424 203.935 34 199.482 34Z" fill="white"/>
<path d="M55.9196 90.4255L55.4564 89.966C53.8115 88.3403 52.7256 87.2646 52.7256 85.9522C52.7256 84.8766 53.4985 84.0376 54.4823 84.0376C55.038 84.0376 55.5714 84.3196 55.9196 84.7617C56.2677 84.3196 56.8011 84.0376 57.3568 84.0376C58.3406 84.0376 59.1135 84.8766 59.1135 85.9522C59.1135 87.2646 58.0276 88.3403 56.3827 89.966L55.9196 90.4255Z" fill="white"/>
<path d="M47.402 81.9084L46.9389 81.4489C45.294 79.8232 44.208 78.7475 44.208 77.4351C44.208 76.3595 44.9809 75.5205 45.9647 75.5205C46.5204 75.5205 47.0538 75.8025 47.402 76.2446C47.7501 75.8025 48.2835 75.5205 48.8393 75.5205C49.823 75.5205 50.5959 76.3595 50.5959 77.4351C50.5959 78.7475 49.51 79.8232 47.8651 81.4489L47.402 81.9084Z" fill="white"/>
</g>
<defs>
<clipPath id="clip0_6552_28077">
<rect width="271" height="182" fill="white"/>
</clipPath>
</defs>
</svg>
