<svg width="271" height="182" viewBox="0 0 271 182" fill="none" xmlns="http://www.w3.org/2000/svg">
<g clip-path="url(#clip0_102_332)">
<path d="M120.635 187.076C123.329 184.737 125.212 181.612 125.569 177.985C126.981 163.764 106.418 154.59 108.317 140.452C109.063 134.887 113.283 130.425 114.549 124.961C116.172 117.976 112.715 110.773 108.333 105.192C103.951 99.6101 98.5144 94.8307 95.0738 88.5807C92.1849 83.3501 90.8704 77.3675 89.1988 71.6021C87.5271 65.8368 85.3362 59.9879 81.1652 55.76C77.7571 52.3175 69.4963 48.3904 64.871 51.8997C59.2557 56.161 62.8261 67.6082 64.9684 72.8054C67.7436 79.5901 71.4601 86.5085 70.6324 93.828C69.4152 104.607 58.9311 111.909 55.9774 122.321C53.7053 130.392 56.302 139.048 59.8237 146.635C66.1531 160.305 75.5499 172.471 87.0565 181.913C93.2561 186.993 100.494 191.438 108.414 191.555C112.796 191.622 117.324 189.951 120.635 187.076Z" fill="#196F7D"/>
<path d="M124.997 218C124.651 218 124.355 217.716 124.338 217.366C123.631 192.009 112.246 172.909 102.194 156.043C93.6231 141.663 86.2199 129.235 87.1247 116.007C89.0496 88.1144 73.042 65.0267 72.8775 64.7931C72.6637 64.4929 72.7295 64.0925 73.0256 63.8756C73.3053 63.6588 73.7165 63.7255 73.9304 64.0258C74.0949 64.2593 90.3657 87.7141 88.4244 116.09C87.536 128.885 94.857 141.146 103.313 155.343C113.447 172.341 124.931 191.609 125.638 217.299C125.638 217.666 125.358 217.966 124.997 217.983H124.98L124.997 218Z" fill="#005F6E"/>
<path d="M147.921 55.4097C151.13 56.018 153.893 57.5947 155.37 60.5835C160.169 70.2824 147.275 78.2919 147.508 87.4164C147.688 94.2818 154.548 98.9108 160.631 102.274C165.689 105.064 170.868 107.906 174.774 112.168C178.667 116.421 181.123 122.445 179.585 127.947C177.946 133.854 172.392 137.632 168.27 142.162C162.459 148.54 159.278 156.79 155.484 164.536C151.69 172.283 146.772 180.05 139.021 183.915C131.27 187.78 120.1 186.049 116.113 178.304C111.507 169.348 118.404 158.545 116.323 148.706C114.908 142.02 109.619 136.923 105.615 131.361C101.597 125.791 98.7856 118.001 102.63 112.419C106.681 106.511 116.043 106.251 120.236 100.424C124.705 94.2186 121.018 85.6265 120.97 77.9456C120.918 69.9103 125.483 62.0696 132.487 58.1267C136.305 55.9845 142.707 54.4239 147.949 55.426L147.921 55.4097Z" fill="#196F7D"/>
<path d="M111.943 216.747C112.219 216.906 112.574 216.834 112.762 216.572C152.723 162.358 147.265 126.463 140.445 109.876C131.931 89.1994 143.033 69.5879 143.145 69.3935C143.321 69.0879 143.217 68.6943 142.913 68.5187C142.609 68.3432 142.216 68.4496 142.04 68.7552C141.919 68.9636 130.527 89.1109 139.262 110.36C145.978 126.683 151.329 162.09 111.729 215.809C111.511 216.09 111.58 216.482 111.86 216.699C111.888 216.715 111.901 216.723 111.915 216.731L111.943 216.747Z" fill="#005F6E"/>
<path d="M68.2887 118.039C68.1484 116.717 68.8231 113.897 69.5097 114.746C69.7515 115.044 68.7216 115.975 69.3186 116.401C69.8799 116.788 70.4919 114.222 71.3069 114.784C71.9697 115.239 72.5429 115.904 72.3936 116.448C72.1369 117.548 71.3368 117.699 69.441 118.943L68.0528 119.132L68.2887 118.042V118.039Z" fill="#EBC7AD"/>
<path d="M68.8809 117.53C68.8272 117.74 68.9705 117.968 69.2004 118.036L71.9977 118.866C72.2276 118.934 72.4604 118.819 72.5142 118.609L75.0697 108.751C75.1234 108.541 74.9801 108.313 74.7502 108.245L71.9529 107.415C71.723 107.347 71.4902 107.462 71.4364 107.672L68.8809 117.53Z" fill="#E6EBEE"/>
<path d="M68.5375 117.43C68.4838 117.639 68.6271 117.867 68.857 117.935L71.6543 118.766C71.8842 118.834 72.117 118.718 72.1708 118.509L74.7263 108.65C74.78 108.44 74.6367 108.213 74.4069 108.145L71.6095 107.314C71.3797 107.246 71.1468 107.361 71.0931 107.571L68.5375 117.43Z" fill="white"/>
<path d="M69.0208 116.782L71.9734 117.66L74.2423 108.907L71.2897 108.03L69.0208 116.782Z" fill="#116FA1"/>
<path d="M71.3503 107.654C71.3175 107.779 71.3623 107.9 71.4488 107.923C71.5354 107.95 71.631 107.87 71.6638 107.746C71.6966 107.622 71.6519 107.501 71.5653 107.477C71.4787 107.45 71.3832 107.53 71.3503 107.654Z" fill="#116FA1"/>
<path d="M69.9985 117.201L69.9069 117.525L71.1059 117.857L71.1975 117.533L69.9985 117.201Z" fill="#95AFBC"/>
<path d="M51.3614 116.85C56.4456 131.006 64.5301 124.441 68.3126 117.973L69.4441 118.916C63.7629 131.482 54.1648 130.891 48.4716 118.996C46.6266 115.263 50.6957 114.861 51.3614 116.847V116.85Z" fill="#0A3734"/>
<path d="M46.7906 147.609L43.2439 181.984H46.7906L44.7754 178.99L50.6597 147.467L48.4833 143.902L46.7906 147.609Z" fill="#EBC7AD"/>
<path d="M46.7906 181.984H43.2439L43.5603 178.747H44.7903L44.7754 178.989L46.7906 181.984Z" fill="#213126"/>
<path d="M50.9882 147.609L51.5524 181.984H55.0991L53.084 178.99L54.8573 147.467L52.6809 143.902L50.9882 147.609Z" fill="#EBC7AD"/>
<path d="M55.0986 181.984H51.5519L51.4982 178.747H53.0984L53.0835 178.989L55.0986 181.984Z" fill="#213126"/>
<path d="M57.4797 104.199C56.1034 103.909 55.166 100.655 55.166 100.655C53.6225 96.2297 48.9802 96.008 42.9198 97.2525C42.9198 97.2525 36.3071 98.4023 42.6989 108.207C44.1886 110.495 46.1142 111.149 46.8277 114.551L46.8397 114.923L46.971 115.458L50.8998 115.55C50.5894 114.421 48.61 113.168 51.8641 110.206C53.6882 108.547 55.172 106.579 55.5332 104.282L57.4797 104.199Z" fill="#EBC7AD"/>
<path d="M50.5312 115.135C56.4154 124.095 55.7347 142.105 56.5378 156.832H45.7219C46.6533 136.915 46.8324 128.632 46.704 115.484L50.5283 115.135H50.5312Z" fill="#0A3734"/>
<path d="M46.3224 93.6312C34.1329 93.1701 34.2046 107.187 40.9397 111.435C44.5968 113.741 42.9071 116.221 41.1158 116.478C47.424 117.312 45.9641 110.664 45.0835 106.046C44.358 105.99 43.7251 105.473 43.5698 104.731C43.3818 103.832 43.9669 102.951 44.8745 102.765C45.0088 102.739 45.1432 102.733 45.2745 102.736C45.4536 101.852 45.7671 101.071 46.2925 100.474C48.8092 101.911 54.5442 100.149 55.4936 96.9626C53.8815 98.0002 53.6217 93.9889 46.3194 93.6312H46.3224Z" fill="#0A3734"/>
<path d="M40.8738 141.249C41.235 135.739 43.6472 123.599 48.4448 118.585C49.23 117.79 48.2358 115.703 46.7372 115.674C43.2173 118.163 39.2229 131.024 39.1154 141.24L40.8738 141.252V141.249Z" fill="#0A3734"/>
<path d="M40.8713 141.245C41.3459 141.464 42.4296 141.801 42.2446 142.383C42.0595 142.965 41.749 142.658 40.9459 142.383C40.916 143.027 41.4713 144.245 40.3279 144.245H38.8651C38.1038 143.858 38.3337 142.037 39.1427 141.233L40.8683 141.245H40.8713Z" fill="#EBC7AD"/>
<path d="M49.7342 115.218L50.594 116.725L51.0298 115.132L50.4536 114.24L49.7342 115.218Z" fill="white"/>
<path d="M49.7348 115.218L49.3407 117.211L46.1463 115.641L46.5912 114.234L49.7348 115.218Z" fill="white"/>
<path d="M50.7017 115.851L53.2572 127.902L48.1283 116.197L49.7344 115.218L50.7017 115.851Z" fill="white"/>
<path d="M149.721 41.0093C149.721 37.8824 152.385 35.3455 155.672 35.3455H200.248C203.535 35.3455 206.198 37.8824 206.198 41.0093V174.965C206.198 178.092 203.535 180.629 200.248 180.629H155.672C152.385 180.629 149.721 178.092 149.721 174.965V41.0093Z" fill="#004B57"/>
<rect x="164.512" y="58.4866" width="27.6811" height="27.6811" rx="13" fill="white"/>
<path d="M180.546 63.8093C181.098 63.8093 181.546 64.257 181.546 64.8093V69.1326H185.868C186.42 69.1326 186.868 69.5803 186.868 70.1326V74.5203C186.868 75.0725 186.42 75.5203 185.868 75.5203H181.546V79.8435C181.546 80.3958 181.098 80.8435 180.546 80.8435H176.158C175.606 80.8434 175.158 80.3957 175.158 79.8435V75.5203H170.834C170.282 75.5203 169.834 75.0725 169.834 74.5203V70.1326C169.834 69.5803 170.282 69.1326 170.834 69.1326H175.158V64.8093C175.158 64.2571 175.606 63.8094 176.158 63.8093H180.546Z" fill="#F86E6E"/>
<path d="M148.993 41.916V174.07C148.993 178.441 152.603 181.986 157.056 181.986H199.479C203.932 181.986 207.542 178.444 207.542 174.07V41.916C207.542 37.5453 203.932 34 199.479 34H157.056C152.603 34 148.993 37.5424 148.993 41.916ZM151.365 43.1598C151.365 40.0852 153.904 37.5918 157.036 37.5918H172.298C172.365 37.65 172.422 37.7168 172.469 37.8011L173.285 39.4633C173.372 39.6638 173.536 39.8644 173.747 39.8644H182.491C182.704 39.8644 182.866 39.6638 182.953 39.4633L183.769 37.8011C183.815 37.7168 183.873 37.65 183.94 37.5918H199.459C202.59 37.5918 205.13 40.0852 205.13 43.1598V174.024C205.13 177.098 202.59 179.592 199.459 179.592H157.036C153.904 179.592 151.365 177.098 151.365 174.024V43.1598Z" fill="white"/>
<path d="M197.713 40.4893H197.035V43.2355H197.713V40.4893Z" fill="white"/>
<path d="M196.767 41.178H196.089V43.2355H196.767V41.178Z" fill="white"/>
<path d="M195.82 41.8579H195.142V43.2383H195.82V41.8579Z" fill="white"/>
<path d="M194.874 42.5642H194.195V43.2355H194.874V42.5642Z" fill="white"/>
<path d="M203.333 41.9189H202.975V41.3174H199.047V43.2325H202.975V42.6106H203.333V41.9189ZM202.724 42.9971H202.311V41.5818H202.724V42.9971Z" fill="white"/>
<path d="M154.006 40.4515C154.006 40.1725 154.236 39.9458 154.525 39.9458C154.814 39.9458 155.044 40.1725 155.044 40.4515C155.044 40.7304 154.814 40.9571 154.525 40.9571C154.236 40.9571 154.006 40.7304 154.006 40.4515Z" fill="white"/>
<path d="M154.006 42.0933C154.006 41.8143 154.236 41.5876 154.525 41.5876C154.814 41.5876 155.044 41.8143 155.044 42.0933C155.044 42.3723 154.814 42.599 154.525 42.599C154.236 42.599 154.006 42.3723 154.006 42.0933Z" fill="white"/>
<path d="M154.006 43.7352C154.006 43.4562 154.236 43.2295 154.525 43.2295C154.814 43.2295 155.044 43.4562 155.044 43.7352C155.044 44.0141 154.814 44.2408 154.525 44.2408C154.236 44.2408 154.006 44.0141 154.006 43.7352Z" fill="white"/>
<path d="M107.124 125.525L107.753 130.454C107.987 132.631 106.775 133.04 105 133.04H90.3084L97.1335 123.854C98.8188 121.561 100.464 120.791 101.904 120.791H104.088C105.981 120.791 106.738 122.27 107.127 125.525H107.124Z" fill="#C2D4E0"/>
<path d="M96.2766 181.949C89.7835 181.949 84.5197 176.648 84.5197 170.109C84.5197 163.571 89.7835 158.27 96.2766 158.27H103.263V181.946H96.2766V181.949Z" fill="#213126"/>
<path d="M103.265 181.949C109.758 181.949 115.022 176.648 115.022 170.109C115.022 163.571 109.758 158.27 103.265 158.27C96.7717 158.27 91.5079 163.571 91.5079 170.109C91.5079 176.648 96.7717 181.949 103.265 181.949Z" fill="#213126"/>
<path d="M167.909 181.949C161.416 181.949 156.152 176.648 156.152 170.109C156.152 163.571 161.416 158.27 167.909 158.27H174.896V181.946H167.909V181.949Z" fill="#213126"/>
<path d="M174.896 181.949C181.389 181.949 186.653 176.648 186.653 170.109C186.653 163.571 181.389 158.27 174.896 158.27C168.403 158.27 163.139 163.571 163.139 170.109C163.139 176.648 168.403 181.949 174.896 181.949Z" fill="#213126"/>
<path d="M234.79 148.599H83.6363V174.184H234.79V148.599Z" fill="#213126"/>
<path d="M140.904 181.949C134.411 181.949 129.147 176.648 129.147 170.109C129.147 163.571 134.411 158.27 140.904 158.27H147.891V181.946H140.904V181.949Z" fill="#213126"/>
<path d="M147.893 181.949C154.387 181.949 159.65 176.648 159.65 170.109C159.65 163.571 154.387 158.27 147.893 158.27C141.4 158.27 136.136 163.571 136.136 170.109C136.136 176.648 141.4 181.949 147.893 181.949Z" fill="#304236"/>
<path d="M147.905 176.029C151.134 176.029 153.752 173.393 153.752 170.141C153.752 166.889 151.134 164.253 147.905 164.253C144.676 164.253 142.058 166.889 142.058 170.141C142.058 173.393 144.676 176.029 147.905 176.029Z" fill="#DBE5E7"/>
<path d="M212.593 181.949C206.1 181.949 200.836 176.648 200.836 170.109C200.836 163.571 206.1 158.27 212.593 158.27H219.579V181.946H212.593V181.949Z" fill="#213126"/>
<path d="M219.579 181.949C226.072 181.949 231.336 176.648 231.336 170.109C231.336 163.571 226.072 158.27 219.579 158.27C213.086 158.27 207.822 163.571 207.822 170.109C207.822 176.648 213.086 181.949 219.579 181.949Z" fill="#304236"/>
<path d="M219.591 176.029C222.82 176.029 225.438 173.393 225.438 170.141C225.438 166.89 222.82 164.254 219.591 164.254C216.362 164.254 213.744 166.89 213.744 170.141C213.744 173.393 216.362 176.029 219.591 176.029Z" fill="#DBE5E7"/>
<path d="M161.108 171.76C161.125 171.47 161.151 171.182 161.151 170.888C161.151 162.78 154.623 156.21 146.575 156.21V152.99H167.436V171.749L161.108 171.763V171.76Z" fill="#7C99A9"/>
<path d="M232.895 171.76C232.912 171.469 232.938 171.182 232.938 170.888C232.938 162.78 226.41 156.21 218.359 156.21V153.062H236.655V170.598L235.622 171.76H232.892H232.895Z" fill="#7C99A9"/>
<path d="M194.669 145.69L201.477 124.685L198.917 99.7109H147.048C128.051 99.7109 119.097 104.881 97.6697 126.458C95.3294 128.748 93.9933 130.012 92.1637 131.221L82.2568 138.78C78.1158 142.031 76.1477 145.051 76.1477 149.015L78.185 166.334C78.6496 170.571 79.7837 171.76 82.1183 171.76H134.281L134.273 145.69H194.666H194.669Z" fill="#C2D4E0"/>
<path d="M179.205 101.138C167.131 105.566 153.778 119.091 150.125 123.011C148.151 125.121 141.897 131.151 139.384 131.936C126.464 135.461 99.4219 135.339 95.3558 130.288C100.207 125.978 121.637 101.141 140.105 101.141H179.202L179.205 101.138Z" fill="#213126"/>
<path d="M239.88 134.141L223.651 108.022C220.644 102.93 215.138 99.7134 204.57 99.7134H196.53C177.533 99.7134 170.905 104.883 149.478 126.46C147.137 128.75 145.801 130.014 143.972 131.223L134.065 138.782C129.924 142.034 127.956 145.053 127.956 149.017L129.993 166.337C130.564 170.472 131.592 171.762 133.926 171.762H134.766C134.749 171.472 134.723 171.184 134.723 170.891C134.723 162.783 141.25 156.212 149.302 156.212C157.353 156.212 163.881 162.786 163.881 170.891C163.881 171.184 163.855 171.472 163.837 171.762H206.558C206.541 171.472 206.515 171.184 206.515 170.891C206.515 162.783 213.043 156.212 221.094 156.212C229.145 156.212 235.67 162.786 235.67 170.891C235.67 171.184 235.644 171.472 235.627 171.762H235.82C239.929 171.762 244.365 167.703 244.365 159.961V146.521C244.365 142.394 241.886 137.98 239.886 134.141H239.88Z" fill="#DBE5E7"/>
<path d="M223.648 108.019C220.231 102.306 214.304 99.7109 204.567 99.7109H196.528C177.531 99.7109 170.902 104.881 149.475 126.458C147.135 128.748 145.799 130.012 143.969 131.221L134.062 138.78C132.934 139.666 131.982 140.535 131.171 141.409H243.323C242.417 138.904 241.064 136.42 239.875 134.139L223.645 108.019H223.648Z" fill="#FFFCFF"/>
<path d="M76.1476 149.017L77.0595 156.66L78.4215 158.02C79.1401 158.686 80.4156 158.61 80.8658 157.747C81.4112 156.57 82.2914 155.344 83.9536 155.344H115.737C118.583 155.344 119.348 158.906 122.331 158.418L128.821 156.404C130.893 155.646 131.145 153.737 131.075 152.057L130.83 148.666C130.524 145.995 132.971 143.121 135.011 141.171C136.235 139.837 136.235 138.913 135.623 137.474C134.91 136.96 133.993 136.449 131.615 137.149C127.814 138.541 123.841 141.848 120.903 145.675C119.174 148.285 118.658 149.851 115.547 149.851H83.2263C80.2627 149.851 79.3912 147.303 80.2627 145.672C81.7431 142.923 83.7718 141.432 85.255 140.174C87.2837 138.445 87.0586 136.821 84.9953 136.754L84.9318 136.736L82.2567 138.776C78.1156 142.028 76.1476 145.048 76.1476 149.011V149.017Z" fill="#B5C6CE"/>
<path d="M115.21 165.663C114.763 164.26 114.056 162.908 111.698 162.908H88.8681C87.3357 162.908 85.711 163.786 85.5061 165.994L84.9953 171.76H117.057L115.21 165.663Z" fill="#7C99A9"/>
<path d="M188.912 136.513C188.266 136.513 187.74 135.984 187.74 135.333C187.74 134.682 188.266 134.153 188.912 134.153H195.76C196.407 134.153 196.932 134.682 196.932 135.333C196.932 135.984 196.407 136.513 195.76 136.513H188.912Z" fill="#DBE5E7"/>
<path d="M223.651 136.513C223.004 136.513 222.479 135.984 222.479 135.333C222.479 134.682 223.004 134.153 223.651 134.153H230.499C231.145 134.153 231.67 134.682 231.67 135.333C231.67 135.984 231.145 136.513 230.499 136.513H223.651Z" fill="#DBE5E7"/>
<path d="M201.084 171.678H200.316V141.68L197.035 101.553L197.8 101.489L201.084 141.648V171.678Z" fill="#FFFCFF"/>
<path d="M152.626 156.597L151.861 156.452V141.68L151.46 129.968H152.225L152.626 141.648V156.597Z" fill="#FFFCFF"/>
<path d="M230.946 131.235H148.219C152.577 127.42 156.19 123.424 159.05 120.524C161.41 118.132 172.904 101.469 195.312 101.469H202.403C211.585 101.469 215.888 103.343 218.947 108.481L230.94 131.235H230.946Z" fill="#213126"/>
<path d="M200.631 129.876H228.326L217.236 108.571C214.896 103.945 209.315 102.681 202.845 102.681H198.247L200.631 129.873V129.876Z" fill="#2B3D31"/>
<path d="M198.747 129.875H152.909L159.292 123.157C173.816 106.005 186.208 102.681 196.441 102.681L198.744 129.872L198.747 129.875Z" fill="#2B3D31"/>
<path d="M138.786 102.097H174.229C158.427 109.943 143.175 129.39 139.225 130.494C118.266 134.583 100.38 132.372 97.1965 129.942C105.098 122.648 122.545 103.091 138.786 102.097Z" fill="#2B3D31"/>
<path d="M146.86 131.003L158.051 120.599C161.638 120.451 164.966 122.076 164.966 125.525V130.454C164.966 132.549 163.987 133.04 162.212 133.04H147.347C146.369 133.04 145.881 132.044 146.86 131.003Z" fill="#DCE6E8"/>
<path d="M76.1472 149.014L76.7821 154.344L78.7935 156.175C79.3013 156.602 79.766 156.558 80.2335 155.919L81.079 154.513C81.6706 153.661 82.392 153.449 83.959 153.449H116.75C118.709 153.449 120.473 156.558 121.941 156.163L128.114 154.388C129.534 153.745 129.73 152.859 129.583 151.034L129.289 149.497C129.092 146.931 130.123 144.464 132.033 142.441C133.894 140.567 135.363 139.282 134.581 138.297C131.398 136.176 122.726 145.303 120.963 148.509C119.642 150.778 118.121 151.406 115.852 151.406H82.9634C79.2148 151.406 77.8036 148.506 79.3013 145.321C80.4441 142.72 83.5348 140.291 85.0585 138.8C85.9559 137.925 85.1595 137.585 84.0888 137.385L82.2535 138.785C78.1124 142.037 76.1443 145.056 76.1443 149.02L76.1472 149.014Z" fill="white"/>
<path d="M144.085 170.624C144.085 168.046 146.16 165.954 148.723 165.954C149.623 165.954 150.457 166.224 151.17 166.672C150.339 165.881 149.225 165.387 147.99 165.387C145.43 165.387 143.352 167.477 143.352 170.054C143.352 171.725 144.229 173.181 145.542 174.004C144.648 173.152 144.085 171.955 144.085 170.618V170.624Z" fill="white"/>
<path d="M215.749 170.624C215.749 168.046 217.824 165.954 220.387 165.954C221.287 165.954 222.121 166.224 222.834 166.672C222.003 165.881 220.889 165.387 219.654 165.387C217.094 165.387 215.016 167.477 215.016 170.054C215.016 171.725 215.894 173.181 217.207 174.004C216.312 173.152 215.749 171.955 215.749 170.618V170.624Z" fill="white"/>
<path d="M205.768 41.082V173.652C205.768 178.514 202.749 180.173 200.703 180.173H196.32V181.984H202.882C207.335 181.984 210.945 178.441 210.945 174.067V41.916C210.945 37.5454 207.335 34 202.882 34H198.187V35.9064H201.283C202.989 35.9064 205.765 37.6994 205.765 41.082H205.768Z" fill="#BACBD5"/>
<path d="M208.55 86.5121C208.55 87.102 208.925 87.5815 209.387 87.5815C209.849 87.5815 210.224 87.102 210.224 86.5121V72.5279C210.224 71.938 209.849 71.4585 209.387 71.4585C208.925 71.4585 208.55 71.938 208.55 72.5279V86.5121Z" fill="#415C6D"/>
<path d="M199.483 34H187.426V37.5948H199.462C202.593 37.5948 205.133 40.0881 205.133 43.1627V174.027C205.133 177.101 202.593 179.595 199.462 179.595H159.102V181.986H199.485C203.938 181.986 207.548 178.444 207.548 174.07V41.916C207.545 37.5424 203.935 34 199.483 34Z" fill="white"/>
<path d="M55.9199 90.4255L55.4567 89.966C53.8118 88.3403 52.7259 87.2646 52.7259 85.9522C52.7259 84.8766 53.4988 84.0376 54.4826 84.0376C55.0383 84.0376 55.5717 84.3196 55.9199 84.7617C56.268 84.3196 56.8014 84.0376 57.3571 84.0376C58.3409 84.0376 59.1138 84.8766 59.1138 85.9522C59.1138 87.2646 58.0279 88.3403 56.383 89.966L55.9199 90.4255Z" fill="white"/>
<path d="M47.4024 81.9084L46.9393 81.4489C45.2944 79.8232 44.2085 78.7475 44.2085 77.4351C44.2085 76.3595 44.9814 75.5205 45.9651 75.5205C46.5209 75.5205 47.0543 75.8025 47.4024 76.2446C47.7506 75.8025 48.284 75.5205 48.8397 75.5205C49.8235 75.5205 50.5964 76.3595 50.5964 77.4351C50.5964 78.7475 49.5105 79.8232 47.8656 81.4489L47.4024 81.9084Z" fill="white"/>
</g>
<defs>
<clipPath id="clip0_102_332">
<rect width="271" height="182" fill="white"/>
</clipPath>
</defs>
</svg>
