<svg width="231" height="130" viewBox="0 0 231 130" fill="none" xmlns="http://www.w3.org/2000/svg">
<path d="M18.6052 101.05H71.0488V48.6061L18.6052 48.6061L18.6052 101.05Z" fill="#42BBCB"/>
<path d="M15 48.606L71.0488 48.606V40.3287L15 40.3287V48.606Z" fill="#42BBCB"/>
<path d="M71.0519 48.606L105.407 48.606V40.3287H71.0519V48.606Z" fill="#298EAA"/>
<path d="M71.0481 101.05H101.356V48.6061L71.0481 48.6061V101.05Z" fill="#298EAA"/>
<path d="M18.6052 53.8579L71.0488 53.8579V48.6065L18.6052 48.6065V53.8579Z" fill="#298EAA"/>
<path d="M71.0481 53.8579L101.356 53.8579V48.6065H71.0481V53.8579Z" fill="#106283"/>
<path d="M36.1664 101.05H48.1572L48.1572 40.3288H36.1664L36.1664 101.05Z" fill="#FCC65E"/>
<path d="M83.1318 101.05H92.4844L92.4844 40.3288H83.1318V101.05Z" fill="#4BA6B0"/>
<path d="M83.1318 53.8574H92.4844V48.606H83.1318V53.8574Z" fill="#348499"/>
<path d="M36.1664 53.8574H48.1572V48.606H36.1664V53.8574Z" fill="#EC8F30"/>
<path d="M58.867 40.3274C58.867 40.3274 32.6431 10.7275 24.8201 19.2132C5.86903 39.7689 47.6264 40.3274 47.6264 40.3274H58.867Z" fill="#FCC65E"/>
<path d="M58.8671 40.3291C58.8671 40.3291 30.2801 16.3266 27.8169 21.3572C25.3537 26.3877 38.0947 34.7859 58.8671 40.3291Z" fill="#EC8F30"/>
<path d="M58.8662 40.3274C58.8662 40.3274 85.0901 10.7275 92.9131 19.2132C111.864 39.7689 70.1068 40.3274 70.1068 40.3274H58.8662Z" fill="#FCC65E"/>
<path d="M58.8665 40.3291C58.8665 40.3291 87.4535 16.3266 89.9126 21.3572C92.3757 26.3877 79.6347 34.7859 58.8623 40.3291H58.8665Z" fill="#EC8F30"/>
<path d="M20.9639 65.6839L26.9614 60.7576L32.9547 65.6839V40.3311H20.9639V65.6839Z" fill="#FCC65E"/>
<path d="M170.884 72.9981L155.793 16L124.46 24.2962L139.551 81.2943L170.884 72.9981Z" fill="#FEF2EC"/>
<path d="M141.303 78.3505L127.44 25.9901L154.039 18.9507L167.902 71.311L141.303 78.3546V78.3505ZM129.249 27.0446L142.353 76.5416L166.089 70.2566L152.985 20.7595L129.249 27.0446Z" fill="#2BB29B"/>
<path d="M166.992 70.7805L164.875 62.7866C160.461 63.9536 157.827 68.484 158.998 72.8978L166.992 70.7805Z" fill="#2BB29B"/>
<path d="M153.51 19.8525L155.628 27.8464C151.214 29.0134 146.684 26.3835 145.517 21.9698L153.51 19.8525Z" fill="#2BB29B"/>
<path d="M141.828 77.444L139.711 69.4501C144.125 68.2832 148.655 70.913 149.822 75.3268L141.828 77.444Z" fill="#2BB29B"/>
<path d="M128.343 26.5132L130.46 34.5071C134.874 33.3401 137.508 28.8097 136.337 24.396L128.343 26.5132Z" fill="#2BB29B"/>
<path d="M147.739 41.4229C147.123 41.4229 146.498 41.5029 145.876 41.6659C143.995 42.1637 142.419 43.3669 141.441 45.0502C140.463 46.7334 140.197 48.6982 140.697 50.58C141.195 52.4618 142.398 54.0384 144.081 55.0193C145.763 55.9973 147.728 56.264 149.609 55.7631C151.49 55.2653 153.066 54.0621 154.047 52.3788C155.025 50.6956 155.291 48.7308 154.791 46.849C153.925 43.5862 150.969 41.4229 147.742 41.4229H147.739Z" fill="#2BB29B"/>
<path d="M151.926 61.677C152.201 62.7231 152.48 63.7651 152.755 64.8112C152.851 65.178 153.422 65.0238 153.326 64.657C153.051 63.6109 152.772 62.5689 152.497 61.5228C152.401 61.156 151.83 61.3102 151.926 61.677Z" fill="#2E383C"/>
<path d="M150.265 63.3874C150.482 63.8876 150.699 64.3877 150.911 64.892C150.941 64.9587 151.028 65.0129 151.095 65.0296C151.166 65.0462 151.253 65.0379 151.316 65.0004C151.466 64.9087 151.491 64.7503 151.424 64.5961C151.207 64.096 150.991 63.5958 150.778 63.0915C150.749 63.0248 150.661 62.9707 150.595 62.954C150.524 62.9373 150.436 62.9457 150.374 62.9832C150.224 63.0749 150.199 63.2332 150.265 63.3874Z" fill="#2E383C"/>
<path d="M170.961 82.4045L183.331 24.7544L151.639 17.9545L139.27 75.6046L170.961 82.4045Z" fill="#FEF2EC"/>
<path d="M169.067 79.5411L142.164 73.7686L153.53 20.8081L180.433 26.5805L169.067 79.5411ZM143.927 72.6308L167.934 77.7822L178.678 27.7184L154.672 22.5669L143.927 72.6308Z" fill="#2BB29B"/>
<path d="M168.501 78.6612L170.235 70.5756C165.767 69.617 161.37 72.4594 160.411 76.9273L168.497 78.6612H168.501Z" fill="#2BB29B"/>
<path d="M179.554 27.1501L177.82 35.2357C173.352 34.2771 170.51 29.88 171.468 25.4121L179.554 27.1459V27.1501Z" fill="#2BB29B"/>
<path d="M143.046 73.1993L144.78 65.1138C149.248 66.0724 152.09 70.4694 151.131 74.9373L143.046 73.2035V73.1993Z" fill="#2BB29B"/>
<path d="M154.096 21.687L152.362 29.7726C156.83 30.7312 161.227 27.8887 162.186 23.4208L154.1 21.687H154.096Z" fill="#2BB29B"/>
<path d="M159.72 57.5114C163.768 58.3801 167.761 55.7951 168.627 51.7499C169.496 47.7047 166.911 43.7113 162.866 42.8425C158.821 41.9768 154.828 44.5587 153.959 48.604C153.09 52.6492 155.675 56.6426 159.72 57.5114Z" fill="#2BB29B"/>
<path d="M159.194 63.7058C158.969 64.7603 158.739 65.8189 158.514 66.8734C158.435 67.2443 159.006 67.3944 159.085 67.0193C159.31 65.9648 159.54 64.9062 159.765 63.8517C159.844 63.4808 159.273 63.3307 159.194 63.7058Z" fill="#2E383C"/>
<path d="M156.939 64.4772C156.905 65.0232 156.868 65.565 156.834 66.111C156.826 66.2652 156.98 66.4111 157.134 66.4027C157.305 66.3944 157.418 66.2693 157.426 66.1026C157.459 65.5566 157.497 65.0148 157.53 64.4688C157.539 64.3146 157.384 64.1688 157.23 64.1771C157.059 64.1854 156.947 64.3105 156.939 64.4772Z" fill="#2E383C"/>
<path d="M168.288 91.3915L206.251 46.2769L181.45 25.4074L143.487 70.5221L168.288 91.3915Z" fill="#FEF2EC"/>
<path d="M167.96 87.9774L146.908 70.2642L181.78 28.8193L202.832 46.5326L167.96 87.9774ZM148.992 70.0849L167.776 85.8935L200.744 46.716L181.96 30.9074L148.992 70.0849Z" fill="#2BB29B"/>
<path d="M167.867 86.9355L173.193 80.6088C169.696 77.6663 164.483 78.1164 161.54 81.6132L167.867 86.9397V86.9355Z" fill="#2BB29B"/>
<path d="M201.793 46.6238L196.466 52.9506C192.97 50.0081 192.524 44.7942 195.462 41.2974L201.789 46.6238H201.793Z" fill="#2BB29B"/>
<path d="M147.95 70.1725L153.277 63.8457C156.773 66.7882 157.219 72.0021 154.281 75.4989L147.954 70.1725H147.95Z" fill="#2BB29B"/>
<path d="M181.867 29.8601L176.54 36.1869C180.037 39.1294 185.251 38.6792 188.193 35.1824L181.867 29.856V29.8601Z" fill="#2BB29B"/>
<path d="M170.137 63.8868C173.215 66.478 177.828 66.0808 180.416 63.0003C181.67 61.509 182.269 59.6204 182.103 57.6785C181.937 55.7365 181.024 53.9755 179.533 52.7213C176.455 50.1301 171.842 50.5274 169.254 53.6049C166.663 56.6823 167.06 61.2926 170.137 63.8838V63.8868Z" fill="#2BB29B"/>
<path d="M166.677 69.3513C165.98 70.1765 165.284 71.0059 164.588 71.8311C164.484 71.952 164.468 72.127 164.588 72.2479C164.693 72.3521 164.905 72.3729 165.005 72.2479C165.701 71.4227 166.397 70.5933 167.093 69.7681C167.197 69.6472 167.214 69.4721 167.093 69.3513C166.989 69.2471 166.777 69.2262 166.677 69.3513Z" fill="#2E383C"/>
<path d="M164.315 68.9752C164.028 69.442 163.744 69.9046 163.457 70.3714C163.377 70.5048 163.427 70.7048 163.565 70.7757C163.711 70.8507 163.882 70.809 163.969 70.6673C164.257 70.2005 164.54 69.7379 164.828 69.2711C164.907 69.1377 164.857 68.9377 164.719 68.8668C164.574 68.7918 164.403 68.8335 164.315 68.9752Z" fill="#2E383C"/>
<path d="M160.048 96.9595L215.001 75.5894L203.253 45.38L148.3 66.7502L160.048 96.9595Z" fill="#FEF2EC"/>
<path d="M161.394 93.8242L151.42 68.1795L201.901 48.5449L211.874 74.1895L161.394 93.8242ZM153.337 69.0256L162.235 91.907L209.957 73.3476L201.059 50.4663L153.337 69.0256Z" fill="#2BB29B"/>
<path d="M161.818 92.8642L169.525 89.8675C167.87 85.6122 163.077 83.5032 158.817 85.1579L161.814 92.8642H161.818Z" fill="#2BB29B"/>
<path d="M210.917 73.7681L203.211 76.7647C201.556 72.5094 203.665 67.7164 207.92 66.0576L210.917 73.7639V73.7681Z" fill="#2BB29B"/>
<path d="M152.378 68.6036L160.084 65.6069C161.739 69.8623 159.63 74.6553 155.375 76.3141L152.378 68.6078V68.6036Z" fill="#2BB29B"/>
<path d="M201.476 49.5083L193.77 52.505C195.424 56.7603 200.217 58.8692 204.477 57.2146L201.48 49.5083H201.476Z" fill="#2BB29B"/>
<path d="M174.711 73.8685C176.169 77.6154 180.404 79.48 184.15 78.0215C187.896 76.5631 189.76 72.3271 188.302 68.5802C186.844 64.8333 182.609 62.9687 178.863 64.4272C177.049 65.1327 175.615 66.5052 174.832 68.2867C174.047 70.0712 174.006 72.0514 174.711 73.8685Z" fill="#2BB29B"/>
<path d="M169.212 76.8658C168.203 77.2575 167.199 77.6493 166.19 78.0411C166.04 78.0994 165.936 78.237 165.982 78.4037C166.019 78.5454 166.194 78.6704 166.344 78.6121C167.353 78.2203 168.357 77.8285 169.366 77.4367C169.516 77.3784 169.62 77.2409 169.574 77.0741C169.537 76.9324 169.362 76.8074 169.212 76.8658Z" fill="#2E383C"/>
<path d="M167.319 75.3979C166.844 75.6689 166.373 75.9398 165.898 76.2107C165.765 76.2857 165.702 76.4816 165.79 76.615C165.877 76.7525 166.048 76.8067 166.194 76.7233C166.669 76.4524 167.14 76.1815 167.615 75.9106C167.748 75.8356 167.811 75.6397 167.723 75.5063C167.636 75.3688 167.465 75.3146 167.319 75.3979Z" fill="#2E383C"/>
<g style="mix-blend-mode:multiply">
<path d="M151.636 17.9526L139.266 75.5978L151.482 78.2194L138.282 76.5147L151.636 17.9526Z" fill="#DBD2CD"/>
</g>
<g style="mix-blend-mode:multiply">
<path d="M152.506 78.1049L143.487 70.5195L181.451 25.4028L141.865 70.7696L152.506 78.1049Z" fill="#DBD2CD"/>
</g>
<g style="mix-blend-mode:multiply">
<path d="M203.249 45.3926L148.3 66.7693L152.81 78.3642L147.441 66.2567L203.249 45.3926Z" fill="#DBD2CD"/>
</g>
<path d="M78.5656 108.7H52.8252V111.676H78.5656V108.7Z" fill="#FDCF8C"/>
<path d="M78.5656 110.51H52.8252V111.677H78.5656V110.51Z" fill="#F4AE51"/>
<path d="M79.8791 105.721H54.1387V108.697H79.8791V105.721Z" fill="#FDCF8C"/>
<path d="M79.8791 107.53H54.1387V108.697H79.8791V107.53Z" fill="#F4AE51"/>
<path d="M78.7873 102.744H53.0469V105.72H78.7873V102.744Z" fill="#FDCF8C"/>
<path d="M78.7873 104.554H53.0469V105.721H78.7873V104.554Z" fill="#F4AE51"/>
<path d="M78.5266 93.8945H52.7861V96.8704H78.5266V93.8945Z" fill="#FDCF8C"/>
<path d="M78.5266 95.708H52.7861V96.875H78.5266V95.708Z" fill="#F4AE51"/>
<path d="M79.8459 90.9194H54.1055V93.8953H79.8459V90.9194Z" fill="#FDCF8C"/>
<path d="M79.8459 92.7319H54.1055V93.8989H79.8459V92.7319Z" fill="#F4AE51"/>
<path d="M78.758 87.9438H53.0176V90.9197H78.758V87.9438Z" fill="#FDCF8C"/>
<path d="M78.758 89.7524H53.0176V90.9194H78.758V89.7524Z" fill="#F4AE51"/>
<path d="M80.5168 85.1001H54.7764V88.0759H80.5168V85.1001Z" fill="#FDCF8C"/>
<path d="M80.5168 86.9141H54.7764V88.0811H80.5168V86.9141Z" fill="#F4AE51"/>
<path d="M79.4231 82.125H53.6826V85.1008H79.4231V82.125Z" fill="#FDCF8C"/>
<path d="M79.4231 83.938H53.6826V85.105H79.4231V83.938Z" fill="#F4AE51"/>
<path d="M78.2385 79.1494H52.498V82.1252H78.2385V79.1494Z" fill="#FDCF8C"/>
<path d="M78.2385 80.9585H52.498V82.1255H78.2385V80.9585Z" fill="#F4AE51"/>
<path d="M79.9973 76.3062H54.2568V79.282H79.9973V76.3062Z" fill="#FDCF8C"/>
<path d="M79.9973 78.1196H54.2568V79.2866H79.9973V78.1196Z" fill="#F4AE51"/>
<path d="M78.9035 73.3311H53.1631V76.3069H78.9035V73.3311Z" fill="#FDCF8C"/>
<path d="M78.9035 75.1431H53.1631V76.3101H78.9035V75.1431Z" fill="#F4AE51"/>
<path d="M79.8791 99.7646H54.1387V102.74H79.8791V99.7646Z" fill="#FDCF8C"/>
<path d="M79.8791 101.579H54.1387V102.746H79.8791V101.579Z" fill="#F4AE51"/>
<path d="M78.7873 96.8335H53.0469V99.8093H78.7873V96.8335Z" fill="#FDCF8C"/>
<path d="M78.7873 98.6421H53.0469V99.8091H78.7873V98.6421Z" fill="#F4AE51"/>
<path d="M57.3835 100.759C57.1 100.067 57.0792 99.7708 56.9167 99.6125C56.7624 99.4499 56.4624 99.4291 55.7705 99.1457C56.4624 98.8623 56.7583 98.8414 56.9167 98.6789C57.0792 98.5247 57.1 98.2246 57.3835 97.5327C57.6669 98.2246 57.6877 98.5205 57.8502 98.6789C58.0045 98.8414 58.3045 98.8623 58.9964 99.1457C58.3045 99.4291 58.0086 99.4499 57.8502 99.6125C57.6877 99.7667 57.6669 100.067 57.3835 100.759Z" fill="white"/>
<path d="M71.6646 85.6051C71.177 84.4173 71.1436 83.9088 70.8644 83.6421C70.5977 83.3629 70.0892 83.3295 68.9014 82.8419C70.0892 82.3542 70.5977 82.3209 70.8644 82.0417C71.1436 81.7749 71.177 81.2664 71.6646 80.0786C72.1523 81.2664 72.1856 81.7749 72.4649 82.0417C72.7316 82.3209 73.2401 82.3542 74.4279 82.8419C73.2401 83.3295 72.7316 83.3629 72.4649 83.6421C72.1856 83.9088 72.1523 84.4173 71.6646 85.6051Z" fill="white"/>
<path d="M67.985 87.4544C67.6599 86.6584 67.6349 86.3208 67.4515 86.1415C67.2723 85.954 66.9306 85.9332 66.1387 85.6081C66.9347 85.283 67.2723 85.258 67.4515 85.0746C67.6391 84.8954 67.6599 84.5536 67.985 83.7617C68.3101 84.5578 68.3351 84.8954 68.5185 85.0746C68.6977 85.2621 69.0395 85.283 69.8314 85.6081C69.0353 85.9332 68.6977 85.9582 68.5185 86.1415C68.3309 86.3208 68.3101 86.6625 67.985 87.4544Z" fill="white"/>
<g style="mix-blend-mode:multiply" opacity="0.75">
<path d="M78.7588 96.8335H68.4184V101.443H66.4971V111.675H76.8374V101.581H78.7588V96.8335Z" fill="#F4AE51"/>
</g>
<path d="M95.4133 110.47H69.6729V113.446H95.4133V110.47Z" fill="#FDCF8C"/>
<path d="M95.4133 112.283H69.6729V113.45H95.4133V112.283Z" fill="#F4AE51"/>
<path d="M96.7326 107.489H70.9922V110.465H96.7326V107.489Z" fill="#FDCF8C"/>
<path d="M96.7326 109.303H70.9922V110.47H96.7326V109.303Z" fill="#F4AE51"/>
<path d="M95.6447 104.514H69.9043V107.489H95.6447V104.514Z" fill="#FDCF8C"/>
<path d="M95.6447 106.327H69.9043V107.494H95.6447V106.327Z" fill="#F4AE51"/>
<path d="M96.7326 101.534H70.9922V104.51H96.7326V101.534Z" fill="#FDCF8C"/>
<path d="M96.7326 103.347H70.9922V104.514H96.7326V103.347Z" fill="#F4AE51"/>
<path d="M95.6447 98.5991H69.9043V101.575H95.6447V98.5991Z" fill="#FDCF8C"/>
<path d="M95.6447 100.413H69.9043V101.58H95.6447V100.413Z" fill="#F4AE51"/>
<path d="M175.522 73.9444L175.075 77.449C174.909 78.9968 175.771 79.2882 177.033 79.2882H187.479L182.626 72.7562C181.428 71.1257 180.258 70.5781 179.234 70.5781H177.681C176.335 70.5781 175.797 71.6299 175.52 73.9444H175.522Z" fill="#C2D4E0"/>
<path d="M183.237 114.064C187.854 114.064 191.597 110.295 191.597 105.645C191.597 100.996 187.854 97.2266 183.237 97.2266H178.269V114.062H183.237V114.064Z" fill="#213126"/>
<path d="M178.268 114.064C173.651 114.064 169.908 110.295 169.908 105.645C169.908 100.996 173.651 97.2266 178.268 97.2266C182.885 97.2266 186.628 100.996 186.628 105.645C186.628 110.295 182.885 114.064 178.268 114.064Z" fill="#213126"/>
<path d="M132.299 114.063C136.916 114.063 140.659 110.294 140.659 105.645C140.659 100.995 136.916 97.2261 132.299 97.2261H127.331V114.061H132.299V114.063Z" fill="#213126"/>
<path d="M127.332 114.063C122.715 114.063 118.972 110.294 118.972 105.645C118.972 100.995 122.715 97.2261 127.332 97.2261C131.949 97.2261 135.692 100.995 135.692 105.645C135.692 110.294 131.949 114.063 127.332 114.063Z" fill="#213126"/>
<path d="M84.7419 90.3501H192.223V108.543H84.7419V90.3501Z" fill="#213126"/>
<path d="M151.504 114.064C156.121 114.064 159.864 110.295 159.864 105.645C159.864 100.996 156.121 97.2266 151.504 97.2266H146.536V114.062H151.504V114.064Z" fill="#213126"/>
<path d="M146.533 114.064C141.915 114.064 138.173 110.295 138.173 105.645C138.173 100.996 141.915 97.2266 146.533 97.2266C151.15 97.2266 154.893 100.996 154.893 105.645C154.893 110.295 151.15 114.064 146.533 114.064Z" fill="#304236"/>
<path d="M146.525 109.855C144.229 109.855 142.368 107.981 142.368 105.669C142.368 103.356 144.229 101.482 146.525 101.482C148.821 101.482 150.683 103.356 150.683 105.669C150.683 107.981 148.821 109.855 146.525 109.855Z" fill="#DBE5E7"/>
<path d="M100.53 114.064C105.147 114.064 108.89 110.295 108.89 105.646C108.89 100.996 105.147 97.2271 100.53 97.2271H95.5617V114.062H100.53V114.064Z" fill="#213126"/>
<path d="M95.557 114.064C90.9399 114.064 87.197 110.295 87.197 105.645C87.197 100.996 90.9399 97.2266 95.557 97.2266C100.174 97.2266 103.917 100.996 103.917 105.645C103.917 110.295 100.174 114.064 95.557 114.064Z" fill="#304236"/>
<path d="M95.5545 109.855C93.2584 109.855 91.3971 107.981 91.3971 105.669C91.3971 103.356 93.2584 101.482 95.5545 101.482C97.8506 101.482 99.7119 103.356 99.7119 105.669C99.7119 107.981 97.8506 109.855 95.5545 109.855Z" fill="#DBE5E7"/>
<path d="M137.137 106.82C137.124 106.613 137.106 106.409 137.106 106.2C137.106 100.434 141.748 95.7623 147.471 95.7623V93.4727H132.637V106.812L137.137 106.822V106.82Z" fill="#7C99A9"/>
<path d="M86.0907 106.82C86.0784 106.614 86.0599 106.409 86.0599 106.2C86.0599 100.435 90.7016 95.7629 96.4268 95.7629V93.5249H83.4169V105.994L84.1515 106.82H86.0927H86.0907Z" fill="#7C99A9"/>
<path d="M113.273 88.2823L108.432 73.3464L110.252 55.5879H147.135C160.643 55.5879 167.01 59.264 182.246 74.6069C183.91 76.2352 184.86 77.1341 186.161 77.9937L193.206 83.3684C196.15 85.6807 197.55 87.8277 197.55 90.6462L196.101 102.962C195.771 105.975 194.964 106.82 193.304 106.82H156.213L156.219 88.2823H113.275H113.273Z" fill="#C2D4E0"/>
<path d="M124.269 56.6011C132.855 59.7502 142.349 69.3672 144.947 72.1548C146.351 73.655 150.797 77.9427 152.585 78.5007C161.771 81.0072 181 80.9204 183.892 77.329C180.442 74.2646 165.204 56.6031 152.072 56.6031H124.271L124.269 56.6011Z" fill="#213126"/>
<path d="M81.1238 80.0703L92.6642 61.4976C94.8023 57.8773 98.7175 55.5898 106.232 55.5898H111.949C125.457 55.5898 130.17 59.2659 145.406 74.6089C147.07 76.2372 148.02 77.1361 149.321 77.9957L156.366 83.3704C159.311 85.6826 160.71 87.8296 160.71 90.6482L159.261 102.964C158.855 105.904 158.124 106.822 156.464 106.822H155.867C155.88 106.615 155.898 106.411 155.898 106.202C155.898 100.437 151.256 95.7645 145.531 95.7645C139.806 95.7645 135.165 100.439 135.165 106.202C135.165 106.411 135.183 106.615 135.196 106.822H104.818C104.83 106.615 104.849 106.411 104.849 106.202C104.849 100.437 100.207 95.7645 94.4822 95.7645C88.7572 95.7645 84.1177 100.439 84.1177 106.202C84.1177 106.411 84.1361 106.615 84.1484 106.822H84.0109C81.0889 106.822 77.935 103.935 77.935 98.4302V88.8731C77.935 85.9389 79.6977 82.8 81.1197 80.0703H81.1238Z" fill="#DBE5E7"/>
<path d="M92.6651 61.4957C95.0946 57.4332 99.3094 55.5879 106.233 55.5879H111.95C125.458 55.5879 130.171 59.264 145.407 74.6069C147.071 76.2352 148.021 77.1341 149.322 77.9937L156.367 83.3684C157.169 83.9987 157.846 84.6165 158.423 85.2385H78.6747C79.319 83.4573 80.2814 81.6905 81.1268 80.0684L92.6671 61.4957H92.6651Z" fill="#FFFCFF"/>
<path d="M197.55 90.6495L196.901 96.0841L195.933 97.0512C195.422 97.5244 194.515 97.4707 194.195 96.857C193.807 96.0201 193.181 95.1481 191.999 95.1481H169.399C167.375 95.1481 166.832 97.6815 164.71 97.3343L160.095 95.9023C158.622 95.363 158.443 94.0054 158.492 92.811L158.667 90.3995C158.884 88.5005 157.144 86.4568 155.693 85.0703C154.823 84.1218 154.823 83.4647 155.258 82.4419C155.765 82.0761 156.418 81.7124 158.109 82.2104C160.811 83.2002 163.637 85.5518 165.726 88.2732C166.955 90.1288 167.322 91.2426 169.534 91.2426H192.516C194.624 91.2426 195.243 89.4304 194.624 88.2711C193.571 86.3163 192.128 85.2563 191.074 84.3615C189.631 83.132 189.791 81.9769 191.258 81.9294L191.304 81.917L193.206 83.3676C196.15 85.6799 197.55 87.8269 197.55 90.6454V90.6495Z" fill="#B5C6CE"/>
<path d="M169.772 102.485C170.09 101.487 170.593 100.526 172.269 100.526H188.503C189.593 100.526 190.748 101.15 190.894 102.721L191.257 106.821H168.459L169.772 102.485Z" fill="#7C99A9"/>
<path d="M117.365 81.758C117.825 81.758 118.198 81.3819 118.198 80.9191C118.198 80.4562 117.825 80.0801 117.365 80.0801H112.496C112.036 80.0801 111.663 80.4562 111.663 80.9191C111.663 81.3819 112.036 81.758 112.496 81.758H117.365Z" fill="#DBE5E7"/>
<path d="M92.663 81.758C93.1226 81.758 93.4961 81.3819 93.4961 80.9191C93.4961 80.4562 93.1226 80.0801 92.663 80.0801H87.7935C87.3338 80.0801 86.9604 80.4562 86.9604 80.9191C86.9604 81.3819 87.3338 81.758 87.7935 81.758H92.663Z" fill="#DBE5E7"/>
<path d="M108.711 106.762H109.257V85.4307L111.59 56.898L111.046 56.8525L108.711 85.4079V106.762Z" fill="#FFFCFF"/>
<path d="M143.169 96.0393L143.713 95.936V85.4322L143.998 77.1045H143.454L143.169 85.4095V96.0393Z" fill="#FFFCFF"/>
<path d="M87.4747 78.0049H146.299C143.2 75.2917 140.631 72.4504 138.598 70.3882C136.919 68.6875 128.746 56.8389 112.813 56.8389H107.771C101.241 56.8389 98.1819 58.1717 96.0068 61.8251L87.4788 78.0049H87.4747Z" fill="#213126"/>
<path d="M109.034 77.0379H89.3402L97.2261 61.8889C98.8903 58.5991 102.859 57.7002 107.46 57.7002H110.729L109.034 77.0359V77.0379Z" fill="#2B3D31"/>
<path d="M110.373 77.0375H142.967L138.428 72.26C128.1 60.0641 119.289 57.7002 112.013 57.7002L110.375 77.0354L110.373 77.0375Z" fill="#2B3D31"/>
<path d="M153.011 57.2847H127.808C139.045 62.8639 149.89 76.6922 152.699 77.4774C167.602 80.3848 180.321 78.8123 182.584 77.0848C176.966 71.8982 164.559 57.9914 153.011 57.2847Z" fill="#2B3D31"/>
<path d="M147.27 77.8395L139.312 70.4417C136.761 70.3363 134.395 71.4914 134.395 73.9443V77.449C134.395 78.9389 135.091 79.2881 136.353 79.2881H146.923C147.619 79.2881 147.966 78.5793 147.27 77.8395Z" fill="#DCE6E8"/>
<path d="M197.551 90.6476L197.099 94.4374L195.669 95.7392C195.308 96.043 194.977 96.012 194.645 95.5574L194.044 94.5572C193.623 93.9518 193.11 93.8009 191.996 93.8009H168.679C167.286 93.8009 166.032 96.012 164.988 95.7309L160.599 94.4684C159.589 94.0117 159.449 93.3814 159.554 92.0838L159.763 90.9906C159.903 89.166 159.17 87.4116 157.812 85.9734C156.488 84.6406 155.444 83.7273 156 83.0268C158.263 81.5183 164.43 88.0088 165.683 90.2881C166.623 91.9019 167.705 92.3483 169.317 92.3483H192.704C195.369 92.3483 196.373 90.286 195.308 88.0212C194.495 86.1718 192.298 84.4443 191.214 83.3843C190.576 82.7623 191.142 82.5205 191.904 82.3779L193.209 83.3739C196.153 85.6862 197.553 87.8332 197.553 90.6517L197.551 90.6476Z" fill="white"/>
<path d="M149.241 106.012C149.241 104.179 147.766 102.692 145.944 102.692C145.304 102.692 144.711 102.884 144.204 103.202C144.795 102.64 145.587 102.289 146.465 102.289C148.285 102.289 149.763 103.774 149.763 105.607C149.763 106.795 149.139 107.831 148.205 108.416C148.841 107.81 149.241 106.959 149.241 106.008V106.012Z" fill="white"/>
<path d="M98.2835 106.012C98.2835 104.179 96.8081 102.692 94.9859 102.692C94.3456 102.692 93.7526 102.884 93.2457 103.202C93.8367 102.64 94.6288 102.289 95.5071 102.289C97.3272 102.289 98.8047 103.774 98.8047 105.607C98.8047 106.795 98.1809 107.831 97.2472 108.416C97.8833 107.81 98.2835 106.959 98.2835 106.008V106.012Z" fill="white"/>
</svg>
