<svg width="16" height="16" viewBox="0 0 16 16" fill="none" xmlns="http://www.w3.org/2000/svg">
<path d="M2.66699 10.6665L5.72433 7.60917C5.97436 7.35921 6.31344 7.21879 6.66699 7.21879C7.02054 7.21879 7.35962 7.35921 7.60966 7.60917L10.667 10.6665M9.33366 9.33317L10.391 8.27584C10.641 8.02587 10.9801 7.88545 11.3337 7.88545C11.6872 7.88545 12.0263 8.02587 12.2763 8.27584L13.3337 9.33317M9.33366 5.33317H9.34032M4.00033 13.3332H12.0003C12.3539 13.3332 12.6931 13.1927 12.9431 12.9426C13.1932 12.6926 13.3337 12.3535 13.3337 11.9998V3.99984C13.3337 3.64622 13.1932 3.30708 12.9431 3.05703C12.6931 2.80698 12.3539 2.6665 12.0003 2.6665H4.00033C3.6467 2.6665 3.30756 2.80698 3.05752 3.05703C2.80747 3.30708 2.66699 3.64622 2.66699 3.99984V11.9998C2.66699 12.3535 2.80747 12.6926 3.05752 12.9426C3.30756 13.1927 3.6467 13.3332 4.00033 13.3332Z" stroke="#232325" stroke-linecap="round" stroke-linejoin="round"/>
</svg>
