<svg width="10" height="14" viewBox="0 0 10 14" fill="none" xmlns="http://www.w3.org/2000/svg">
<path d="M7.34943 0.545454H8.49432V6.8054C8.49432 7.4517 8.34197 8.02876 8.03729 8.53658C7.73568 9.04131 7.30942 9.43987 6.75852 9.73224C6.20762 10.0215 5.56132 10.1662 4.8196 10.1662C4.07789 10.1662 3.43158 10.0215 2.88068 9.73224C2.32978 9.43987 1.90199 9.04131 1.5973 8.53658C1.29569 8.02876 1.14489 7.4517 1.14489 6.8054V0.545454H2.28977V6.71307C2.28977 7.17472 2.39134 7.58558 2.59446 7.94567C2.79759 8.30268 3.08688 8.58428 3.46236 8.79048C3.84091 8.99361 4.29332 9.09517 4.8196 9.09517C5.34588 9.09517 5.7983 8.99361 6.17685 8.79048C6.5554 8.58428 6.8447 8.30268 7.04474 7.94567C7.24787 7.58558 7.34943 7.17472 7.34943 6.71307V0.545454Z" fill="#232325"/>
<path d="M0 12.5852H9.6392V13.4716H0V12.5852Z" fill="#232325"/>
</svg>
