<svg width="16" height="16" viewBox="0 0 16 16" fill="none" xmlns="http://www.w3.org/2000/svg">
<path fill-rule="evenodd" clip-rule="evenodd" d="M2.40039 4.0002C2.40039 3.78802 2.48468 3.58454 2.63471 3.43451C2.78473 3.28448 2.98822 3.2002 3.20039 3.2002H12.8004C13.0126 3.2002 13.216 3.28448 13.3661 3.43451C13.5161 3.58454 13.6004 3.78802 13.6004 4.0002C13.6004 4.21237 13.5161 4.41585 13.3661 4.56588C13.216 4.71591 13.0126 4.8002 12.8004 4.8002H3.20039C2.98822 4.8002 2.78473 4.71591 2.63471 4.56588C2.48468 4.41585 2.40039 4.21237 2.40039 4.0002ZM2.40039 8.00019C2.40039 7.78802 2.48468 7.58454 2.63471 7.43451C2.78473 7.28448 2.98822 7.20019 3.20039 7.20019H12.8004C13.0126 7.20019 13.216 7.28448 13.3661 7.43451C13.5161 7.58454 13.6004 7.78802 13.6004 8.00019C13.6004 8.21237 13.5161 8.41585 13.3661 8.56588C13.216 8.71591 13.0126 8.80019 12.8004 8.80019H3.20039C2.98822 8.80019 2.78473 8.71591 2.63471 8.56588C2.48468 8.41585 2.40039 8.21237 2.40039 8.00019ZM2.40039 12.0002C2.40039 11.788 2.48468 11.5845 2.63471 11.4345C2.78473 11.2845 2.98822 11.2002 3.20039 11.2002H8.00039C8.21256 11.2002 8.41605 11.2845 8.56608 11.4345C8.71611 11.5845 8.80039 11.788 8.80039 12.0002C8.80039 12.2124 8.71611 12.4158 8.56608 12.5659C8.41605 12.7159 8.21256 12.8002 8.00039 12.8002H3.20039C2.98822 12.8002 2.78473 12.7159 2.63471 12.5659C2.48468 12.4158 2.40039 12.2124 2.40039 12.0002Z" fill="#232325"/>
</svg>
