<svg width="16" height="16" viewBox="0 0 16 16" fill="none" xmlns="http://www.w3.org/2000/svg">
<path d="M9.21823 6.78128C8.71816 6.28136 8.04 6.00052 7.3329 6.00052C6.62579 6.00052 5.94764 6.28136 5.44757 6.78128L2.7809 9.44795C2.5262 9.69394 2.32305 9.98819 2.1833 10.3135C2.04354 10.6389 1.96997 10.9888 1.9669 11.3429C1.96382 11.697 2.03129 12.0481 2.16537 12.3758C2.29946 12.7035 2.49746 13.0013 2.74785 13.2517C2.99823 13.502 3.29596 13.7001 3.62369 13.8341C3.95141 13.9682 4.30256 14.0357 4.65664 14.0326C5.01071 14.0295 5.36063 13.956 5.68598 13.8162C6.01132 13.6765 6.30557 13.4733 6.55157 13.2186L7.28623 12.4846M6.7809 9.21861C7.28097 9.71854 7.95913 9.99938 8.66623 9.99938C9.37334 9.99938 10.0515 9.71854 10.5516 9.21861L13.2182 6.55195C13.704 6.04901 13.9728 5.3754 13.9667 4.67621C13.9606 3.97702 13.6802 3.30819 13.1857 2.81376C12.6913 2.31934 12.0225 2.03889 11.3233 2.03282C10.6241 2.02674 9.9505 2.29552 9.44757 2.78128L8.71423 3.51461" stroke="#232325" stroke-linecap="round" stroke-linejoin="round"/>
</svg>
